<svg width="551" height="321" viewBox="0 0 551 321" fill="none" xmlns="http://www.w3.org/2000/svg">
<path style="mix-blend-mode:color-dodge" d="M110.121 160.268L79.2156 142.425L78.732 142.705L109.632 160.548L110.121 160.268ZM107.718 161.652L76.8128 143.835L76.3292 144.115L107.235 161.932L107.718 161.652ZM102.913 164.427L72.0124 146.584L71.5033 146.864L102.409 164.707L102.913 164.427ZM93.3066 169.976L62.4012 152.133L61.8921 152.413L92.7975 170.256L93.3066 169.976ZM98.1121 167.201L67.2068 149.358L66.7232 149.638L97.6234 167.481L98.1121 167.201ZM100.51 165.817L69.6096 147.999L69.126 148.279L100.026 166.122L100.51 165.817ZM105.315 163.068L74.4152 145.225L73.9061 145.505L104.832 163.322L105.315 163.068ZM112.524 158.909L81.6184 141.091L81.1348 141.371L112.035 159.189L112.524 158.909ZM119.727 154.744L88.8268 136.876L88.3177 137.156L119.223 154.973L119.727 154.744ZM95.7094 168.586L64.804 150.769L64.3204 151.049L95.2257 168.866L95.7094 168.586ZM117.324 156.109L86.424 138.266L85.9149 138.546L116.82 156.389L117.324 156.109ZM114.921 157.493L84.0212 139.651L83.5121 139.931L114.453 157.773L114.921 157.493ZM280.312 62.008L249.406 44.1907L248.897 44.4707L279.823 62.2727L280.312 62.008ZM268.298 68.9415L237.397 51.1242L236.914 51.4042L267.814 69.2469L268.298 68.9415ZM270.701 67.5568L239.8 49.7395L239.291 50.0195L270.227 67.8368L270.701 67.5568ZM287.5 57.8489L256.599 40.0317L256.09 40.3116L287.026 58.1289L287.5 57.8489ZM289.902 56.4592L259.028 38.6215L258.519 38.9015L289.424 56.7188L289.902 56.4592ZM285.112 59.2183L254.212 41.401L253.703 41.681L284.603 59.5238L285.112 59.2183ZM292.321 55.0593L261.415 37.242L260.932 37.522L291.837 55.3647L292.321 55.0593ZM294.723 53.6746L263.818 35.8573L263.309 36.1373L294.209 53.98L294.723 53.6746ZM273.103 66.1518L242.229 48.3243L241.719 48.6043L272.625 66.4216L273.103 66.1518ZM277.909 63.3774L247.004 45.5601L246.52 45.8401L277.425 63.6574L277.909 63.3774ZM275.506 64.7671L244.601 46.9397L244.092 47.2197L274.997 65.0369L275.506 64.7671ZM282.709 60.6081L251.809 42.7653L251.326 43.0453L282.226 60.8881L282.709 60.6081ZM268.313 263.216L299.213 281.059L299.697 280.779L268.797 262.961L268.313 263.216ZM265.91 264.606L296.81 282.448L297.32 282.169L266.414 264.351L265.91 264.606ZM263.507 265.99L294.408 283.808L294.917 283.528L264.011 265.71L263.507 265.99ZM270.736 261.867L301.641 279.684L302.125 279.404L271.225 261.562L270.736 261.867ZM261.105 267.426L292.01 285.243L292.494 284.963L261.588 267.146L261.105 267.426ZM285.122 253.554L316.028 271.371L316.511 271.091L285.611 253.249L285.122 253.554ZM282.725 254.944L313.625 272.786L314.109 272.506L283.208 254.664L282.725 254.944ZM280.322 256.328L311.222 274.171L311.731 273.891L280.826 256.074L280.322 256.328ZM287.535 252.154L318.441 269.971L318.924 269.691L288.024 251.849L287.535 252.154ZM273.124 260.472L304.029 278.289L304.513 278.009L273.612 260.167L273.124 260.472ZM277.929 257.703L308.829 275.52L309.339 275.24L278.433 257.423L277.929 257.703ZM275.526 259.087L306.432 276.905L306.915 276.625L276.01 258.808L275.526 259.087ZM455.313 155.289L486.218 173.106L486.727 172.826L455.827 155.009L455.313 155.289ZM457.716 153.904L488.616 171.722L489.125 171.442L458.22 153.599L457.716 153.904ZM462.521 151.13L493.422 168.947L493.931 168.667L463.005 150.85L462.521 151.13ZM460.108 152.515L491.009 170.332L491.518 170.057L460.612 152.24L460.108 152.515ZM452.9 156.674L483.805 174.516L484.289 174.237L453.389 156.394L452.9 156.674ZM438.488 164.992L469.394 182.835L469.903 182.555L439.003 164.737L438.488 164.992ZM450.502 158.058L481.403 175.876L481.886 175.596L450.986 157.753L450.502 158.058ZM440.891 163.607L471.817 181.45L472.301 181.17L441.4 163.327L440.891 163.607ZM436.091 166.382L466.991 184.224L467.5 183.944L436.585 166.122L436.091 166.382ZM443.309 162.223L474.215 180.04L474.698 179.76L443.793 161.943L443.309 162.223ZM448.115 159.448L479.015 177.291L479.524 177.011L448.619 159.168L448.115 159.448ZM445.712 160.833L476.617 178.676L477.126 178.396L446.221 160.553L445.712 160.833ZM162.545 254.134L205.067 229.597H188.033L164.072 243.434C163.566 243.277 163.02 243.319 162.545 243.551C162.436 243.59 162.342 243.661 162.276 243.756C162.21 243.85 162.174 243.962 162.174 244.078C162.174 244.193 162.21 244.305 162.276 244.4C162.342 244.494 162.436 244.566 162.545 244.605C162.827 244.746 163.139 244.82 163.456 244.82C163.772 244.82 164.084 244.746 164.367 244.605C164.79 244.365 164.876 243.999 164.576 243.714L188.339 229.994H203.407L162.076 253.854L162.545 254.134ZM175.979 256.079C175.868 256.116 175.771 256.186 175.703 256.281C175.635 256.375 175.598 256.489 175.598 256.606C175.598 256.723 175.635 256.836 175.703 256.931C175.771 257.025 175.868 257.096 175.979 257.133C176.262 257.274 176.574 257.348 176.89 257.348C177.206 257.348 177.518 257.274 177.801 257.133C178.219 256.888 178.285 256.522 178.005 256.242L199.467 243.856L198.983 243.576L177.536 255.962C177.282 255.878 177.013 255.845 176.746 255.865C176.479 255.885 176.218 255.958 175.979 256.079ZM135.467 194.599L192.34 161.77L191.856 161.49L134.984 194.319L135.467 194.599ZM133.94 181.318V170.958H133.233V181.481L137.896 184.173L166.958 167.374L83.0693 118.962L82.5856 119.242L165.991 167.395L137.896 183.613L133.94 181.318ZM131.94 187.63L134.816 185.976L130.148 183.278V172.231L120.221 177.963L125.25 180.865L125.759 180.585L121.214 177.963L129.486 173.183V183.43L133.874 185.976L131.965 187.08L118.526 179.358L118.017 179.638L131.94 187.63ZM169.223 256.939C169.641 256.7 169.707 256.333 169.427 256.048L198.688 239.158L198.205 238.878L168.923 255.768C168.418 255.61 167.871 255.652 167.396 255.885C167.285 255.922 167.189 255.993 167.12 256.087C167.052 256.182 167.015 256.296 167.015 256.412C167.015 256.529 167.052 256.643 167.12 256.737C167.189 256.832 167.285 256.903 167.396 256.939C167.679 257.082 167.992 257.156 168.31 257.156C168.627 257.156 168.94 257.082 169.223 256.939ZM189.718 269.829L190.227 270.109L217.681 254.256V248.234L226.335 253.228L193.669 272.064L194.152 272.344L227.303 253.203L217.004 247.252V254.068L189.718 269.829ZM123.005 160.66L104.104 171.574L115.599 178.192L134.495 167.283L123.005 160.66ZM133.528 167.278L115.599 177.647L105.076 171.574L123.005 161.22L133.528 167.278ZM232.46 272.374L231.976 272.094L219.249 279.45L219.758 279.73L232.46 272.374ZM203.346 272.929L232.404 256.13L258.519 271.239H245.283L231.793 263.44L205.225 278.778L205.708 279.058L231.793 264L245.028 271.636H260.199L232.404 255.59L202.878 272.649L203.346 272.929ZM249.406 269.259L232.831 259.688L206.619 274.823L207.103 275.103L232.831 260.248L248.923 269.539L249.406 269.259ZM236.588 277.607L219.875 287.254L220.385 287.534L237.097 277.862L236.588 277.607ZM234.552 292.065L262.744 275.775H252.771L229.573 289.163L230.057 289.443L253.056 276.167H261.1L234.083 291.764L234.552 292.065ZM156.568 167.593L139.194 177.622V165.613L123.026 156.277L95.7959 171.997L131.517 192.619L176.284 166.774L82.774 112.782L82.2904 113.062L175.312 166.774L131.517 192.084L96.7682 171.997L123.026 156.832L138.506 165.771V178.579L157.535 167.593L72.4502 118.468L0 160.293L0.509065 160.573L72.4705 119.023L156.568 167.593ZM267.173 275.663L233.508 295.099L233.992 295.379L267.173 276.223L293.97 291.693L329.406 271.234L266.928 235.167L266.445 235.446L328.428 271.234L293.96 291.133L267.173 275.663ZM243.664 278.559L235.468 273.825L220.43 282.51L214.357 279.002L232.684 268.429L241.719 273.647H262.846V273.25H241.974L232.658 267.869L213.37 279.002L220.415 283.075L235.453 274.39L242.682 278.564L223.724 289.463L224.208 289.748L243.664 278.559ZM158.049 251.538L158.559 251.818L191.984 232.519L191.5 232.239L158.049 251.538ZM324.814 76.2567L310.952 68.2491L310.443 68.5291L323.827 76.2567L321.918 77.3614L317.535 74.8161H299.753L308.025 70.041L312.571 72.6678L313.055 72.3878L308.025 69.4811L298.098 75.2132H317.265L321.933 77.9112L324.814 76.2567ZM297.004 60.2008L278.102 71.1152L289.597 77.733L308.499 66.8543L297.004 60.2008ZM307.526 66.8187L289.597 77.1883L279.075 71.1152L297.004 60.7455L307.526 66.8187ZM281.834 2.34047L212.967 42.0985L223.006 47.8916L291.873 8.13363L281.834 2.34047ZM290.9 8.13363L223.006 47.3317L213.935 42.0985L281.834 2.90044L290.9 8.13363ZM314.17 77.0356H295.94V77.4276H313.885L317.86 79.7286L289.765 95.9474L206.36 47.7796L205.876 48.0596L289.765 96.4921L318.833 79.6929L314.17 77.0356ZM297.717 55.4054L270.487 71.1254L286.65 80.4616H307.465L290.086 90.4902L205.988 41.9101L277.95 0.380572L277.466 0.100586L205.021 41.9101L290.106 91.0349L309.14 80.09H286.955L271.474 71.1508L297.717 55.9654L332.486 76.0175L288.706 101.303L195.664 47.6065L195.181 47.8865L288.686 101.873L333.453 76.0175L297.717 55.4054ZM281.096 6.45881L220.099 41.6759L223.739 43.7733L284.735 8.56125L281.096 6.45881ZM283.768 8.56125L223.739 43.2133L221.072 41.6861L281.096 7.01878L283.768 8.56125ZM361.543 135.385C361.961 135.145 362.052 134.779 361.747 134.494L388.249 119.191V104.495L344.469 129.759L344.953 130.039L387.551 105.447V119.028L361.248 134.214C360.743 134.053 360.195 134.095 359.721 134.331C359.61 134.367 359.513 134.438 359.445 134.533C359.377 134.627 359.34 134.741 359.34 134.858C359.34 134.974 359.377 135.088 359.445 135.183C359.513 135.277 359.61 135.348 359.721 135.385C360.004 135.526 360.316 135.6 360.632 135.6C360.948 135.6 361.26 135.526 361.543 135.385ZM381.987 116.509C382.096 116.471 382.191 116.4 382.258 116.306C382.325 116.212 382.361 116.1 382.361 115.984C382.361 115.869 382.325 115.756 382.258 115.662C382.191 115.568 382.096 115.498 381.987 115.46C381.704 115.318 381.392 115.245 381.076 115.245C380.76 115.245 380.448 115.318 380.165 115.46C379.747 115.699 379.656 116.066 379.961 116.351L342.799 137.818C342.294 137.658 341.746 137.702 341.272 137.94C341.163 137.978 341.069 138.049 341.002 138.143C340.935 138.237 340.899 138.349 340.899 138.465C340.899 138.58 340.935 138.692 341.002 138.786C341.069 138.88 341.163 138.951 341.272 138.989C341.555 139.13 341.867 139.204 342.183 139.204C342.5 139.204 342.812 139.13 343.095 138.989C343.512 138.75 343.578 138.383 343.298 138.098L380.486 116.631C380.983 116.783 381.521 116.74 381.987 116.509ZM343.853 69.6745L370.93 54.0411L370.421 53.7611L343.14 69.5116V79.6471L278.581 116.951L219.957 83.1037V70.7436L187.759 52.1627L187.249 52.4427L219.27 70.9268V83.2869L278.581 117.532L343.853 79.8609V69.6745ZM280.027 111.143L336.884 78.3083L336.406 78.0537L279.543 110.858L280.027 111.143ZM271.306 106.872L271.815 106.592L229.385 82.1263V73.691L279.08 102.382L279.563 102.102L228.698 72.734V82.2688L271.306 106.872ZM321.266 29.0562L293.074 45.3463H303.057L326.255 31.9528L325.771 31.6728L302.772 44.934H294.728L321.75 29.3362L321.266 29.0562ZM350.115 42.0425L324.035 57.1006L310.8 49.4646H295.635L323.419 65.5104L352.945 48.4516L352.461 48.1716L323.399 64.9708L297.269 49.8821H310.504L324.015 57.6809L350.583 42.3428L350.115 42.0425ZM288.66 45.4379L322.33 26.0018L321.821 25.7218L288.66 44.878L261.868 29.4075L226.447 49.8719L288.92 85.9341L289.404 85.6541L227.399 49.8719L261.868 29.9674L288.66 45.4379ZM385.276 101.13C384.993 100.988 384.681 100.914 384.365 100.914C384.048 100.914 383.736 100.988 383.453 101.13C383.036 101.369 382.944 101.735 383.25 102.021L330.231 132.641L330.714 132.921L383.749 102.301C384.254 102.46 384.802 102.416 385.276 102.178C385.385 102.141 385.479 102.07 385.546 101.976C385.613 101.882 385.649 101.769 385.649 101.654C385.649 101.539 385.613 101.426 385.546 101.332C385.479 101.238 385.385 101.167 385.276 101.13ZM306.422 51.8471L322.997 61.4124L349.209 46.2779L348.725 45.9826L322.997 60.8371L306.905 51.5823L306.422 51.8471ZM362.19 49.037L361.706 48.757L328.551 67.8724L338.854 73.8234V67.007L366.104 51.2769L365.595 50.9969L338.167 66.8543V72.8765L329.513 67.8826L362.19 49.037ZM323.368 48.7519L323.852 49.0319L336.579 41.6759L336.095 41.3959L323.368 48.7519ZM291.867 17.984L278.326 25.8033L289.449 32.2379L302.996 24.4186L291.867 17.984ZM302.023 24.4084L289.449 31.6677L279.294 25.788L291.867 18.5287L302.023 24.4084ZM312.169 42.5566L320.365 47.2909L335.387 38.591L341.496 42.0985L323.17 52.6717L314.129 47.4538H292.982V47.8509H313.854L323.17 53.2317L342.453 42.0985L335.413 38.0259L320.365 46.7157L313.141 42.5413L332.099 31.6423L331.59 31.3623L312.169 42.5566ZM292.59 13.9115L271.281 26.2054L288.732 36.2798L310.036 23.9757L292.59 13.9115ZM309.069 23.9757L288.732 35.7199L272.263 26.2054L292.626 14.4613L309.069 23.9757ZM319.25 43.5137L335.963 33.8414L335.479 33.5614L318.756 43.2337L319.25 43.5137ZM293.446 9.04486L262.871 26.6992L287.871 41.1363L318.451 23.4819L293.446 9.04486ZM317.479 23.4819L287.871 40.5764L263.838 26.6992L293.446 9.60483L317.479 23.4819ZM378.958 98.5232C378.541 98.7676 378.449 99.1341 378.755 99.4141L325.715 130.034L326.199 130.314L379.233 99.6941C379.738 99.8553 380.286 99.8133 380.76 99.577C380.871 99.5404 380.968 99.4698 381.036 99.3752C381.104 99.2806 381.141 99.1668 381.141 99.0501C381.141 98.9334 381.104 98.8197 381.036 98.7251C380.968 98.6305 380.871 98.5599 380.76 98.5232C380.48 98.385 380.172 98.313 379.859 98.313C379.547 98.313 379.239 98.385 378.958 98.5232ZM213.079 138.989C213.362 139.13 213.674 139.204 213.991 139.204C214.307 139.204 214.619 139.13 214.902 138.989C215.011 138.951 215.105 138.88 215.172 138.786C215.239 138.692 215.275 138.58 215.275 138.465C215.275 138.349 215.239 138.237 215.172 138.143C215.105 138.049 215.011 137.978 214.902 137.94C214.428 137.702 213.88 137.658 213.375 137.818L176.213 116.351C176.488 116.066 176.422 115.699 176.004 115.46C175.721 115.318 175.409 115.245 175.093 115.245C174.777 115.245 174.465 115.318 174.182 115.46C174.071 115.496 173.974 115.567 173.906 115.662C173.838 115.756 173.801 115.87 173.801 115.987C173.801 116.103 173.838 116.217 173.906 116.312C173.974 116.406 174.071 116.477 174.182 116.514C174.657 116.747 175.204 116.789 175.709 116.631L212.871 138.123C212.596 138.383 212.657 138.75 213.079 138.989ZM225.903 132.641L172.868 102.021C173.143 101.735 173.082 101.369 172.66 101.13C172.377 100.988 172.065 100.914 171.748 100.914C171.432 100.914 171.12 100.988 170.837 101.13C170.728 101.167 170.634 101.238 170.567 101.332C170.5 101.426 170.464 101.539 170.464 101.654C170.464 101.769 170.5 101.882 170.567 101.976C170.634 102.07 170.728 102.141 170.837 102.178C171.311 102.416 171.859 102.46 172.364 102.301L225.429 132.921L225.903 132.641ZM374.952 224.049L331.172 198.779L330.689 199.059L373.298 223.646H349.779L323.475 208.466C323.755 208.181 323.689 207.82 323.272 207.575C322.989 207.434 322.677 207.36 322.36 207.36C322.044 207.36 321.732 207.434 321.449 207.575C321.338 207.612 321.242 207.682 321.174 207.777C321.105 207.872 321.068 207.985 321.068 208.102C321.068 208.219 321.105 208.333 321.174 208.427C321.242 208.522 321.338 208.592 321.449 208.629C321.924 208.865 322.472 208.907 322.976 208.746L349.478 224.049H374.952ZM144.427 85.5828C144.702 85.2977 144.641 84.9363 144.218 84.6919C143.935 84.5504 143.623 84.4767 143.307 84.4767C142.991 84.4767 142.679 84.5504 142.396 84.6919C142.287 84.731 142.194 84.8025 142.127 84.8968C142.061 84.9911 142.025 85.1036 142.025 85.2188C142.025 85.3341 142.061 85.4465 142.127 85.5408C142.194 85.6351 142.287 85.7067 142.396 85.7457C142.87 85.982 143.418 86.024 143.923 85.8628L164.749 97.9073V102.703L146.249 92.0123L145.766 92.2923L165.436 103.65V97.7291L144.427 85.5828ZM330.236 188.21L383.24 218.846C382.965 219.131 383.031 219.492 383.448 219.737C383.731 219.878 384.043 219.952 384.36 219.952C384.676 219.952 384.988 219.878 385.271 219.737C385.382 219.7 385.478 219.63 385.546 219.535C385.615 219.44 385.652 219.327 385.652 219.21C385.652 219.093 385.615 218.979 385.546 218.885C385.478 218.79 385.382 218.72 385.271 218.683C384.796 218.447 384.248 218.405 383.744 218.566L330.714 187.946L330.236 188.21ZM134.307 94.6187C134.587 94.3336 134.52 93.9671 134.103 93.7278C133.82 93.5863 133.508 93.5126 133.192 93.5126C132.875 93.5126 132.563 93.5863 132.281 93.7278C132.172 93.7656 132.077 93.8364 132.01 93.9304C131.943 94.0243 131.907 94.1368 131.907 94.2522C131.907 94.3676 131.943 94.48 132.01 94.574C132.077 94.668 132.172 94.7388 132.281 94.7765C132.754 95.0145 133.302 95.0583 133.808 94.8987L157.581 108.598V117.298L116.25 93.458L115.741 93.738L158.263 118.27V108.455L134.307 94.6187ZM148.454 83.2767L169.463 95.4078H179.705L160.035 84.0454L159.551 84.3254L178.051 95.0158H169.743L148.937 83.0018C149.212 82.7168 149.146 82.3502 148.728 82.111C148.446 81.9694 148.134 81.8957 147.817 81.8957C147.501 81.8957 147.189 81.9694 146.906 82.111C146.797 82.1487 146.702 82.2195 146.636 82.3135C146.569 82.4075 146.533 82.52 146.533 82.6353C146.533 82.7507 146.569 82.8632 146.636 82.9572C146.702 83.0511 146.797 83.1219 146.906 83.1597C147.385 83.4001 147.939 83.4421 148.448 83.2767H148.454ZM112.122 102.662L133.569 115.042L134.078 114.762L112.605 102.382C112.885 102.097 112.819 101.735 112.402 101.491C112.119 101.35 111.807 101.276 111.49 101.276C111.174 101.276 110.862 101.35 110.579 101.491C110.468 101.528 110.372 101.598 110.303 101.693C110.235 101.788 110.198 101.901 110.198 102.018C110.198 102.135 110.235 102.248 110.303 102.343C110.372 102.438 110.468 102.508 110.579 102.545C111.058 102.785 111.612 102.827 112.122 102.662ZM120.267 91.1418L119.758 91.4218L153.183 110.72L153.666 110.44L120.267 91.1418ZM167.905 104.495V119.191L194.376 134.494C194.096 134.779 194.163 135.145 194.58 135.385C194.863 135.526 195.175 135.6 195.491 135.6C195.808 135.6 196.12 135.526 196.402 135.385C196.513 135.348 196.61 135.277 196.678 135.183C196.746 135.088 196.783 134.974 196.783 134.858C196.783 134.741 196.746 134.627 196.678 134.533C196.61 134.438 196.513 134.367 196.402 134.331C195.928 134.095 195.38 134.053 194.875 134.214L168.572 119.028V105.452L211.176 130.045L211.659 129.765L167.905 104.495ZM317.061 196.9C316.778 196.759 316.466 196.685 316.15 196.685C315.834 196.685 315.522 196.759 315.239 196.9C315.128 196.937 315.031 197.007 314.963 197.102C314.895 197.197 314.858 197.31 314.858 197.427C314.858 197.544 314.895 197.657 314.963 197.752C315.031 197.847 315.128 197.917 315.239 197.954C315.713 198.19 316.261 198.232 316.766 198.071L353.928 219.543C353.648 219.823 353.714 220.19 354.131 220.434C354.414 220.576 354.726 220.649 355.042 220.649C355.359 220.649 355.671 220.576 355.954 220.434C356.065 220.398 356.161 220.327 356.229 220.232C356.298 220.138 356.335 220.024 356.335 219.907C356.335 219.791 356.298 219.677 356.229 219.582C356.161 219.488 356.065 219.417 355.954 219.38C355.479 219.144 354.931 219.102 354.426 219.263L317.239 197.791C317.509 197.506 317.443 197.144 317.025 196.9H317.061ZM239.103 123.966C239.386 124.108 239.698 124.182 240.014 124.182C240.33 124.182 240.642 124.108 240.925 123.966C241.036 123.93 241.133 123.859 241.201 123.764C241.269 123.67 241.306 123.556 241.306 123.439C241.306 123.323 241.269 123.209 241.201 123.114C241.133 123.02 241.036 122.949 240.925 122.913C240.452 122.675 239.904 122.631 239.398 122.79L202.211 101.323C202.491 101.038 202.425 100.672 202.007 100.432C201.724 100.291 201.412 100.217 201.096 100.217C200.78 100.217 200.468 100.291 200.185 100.432C200.074 100.469 199.978 100.539 199.909 100.634C199.841 100.729 199.804 100.842 199.804 100.959C199.804 101.076 199.841 101.19 199.909 101.284C199.978 101.379 200.074 101.449 200.185 101.486C200.659 101.722 201.207 101.764 201.712 101.603L238.874 123.07C238.619 123.361 238.665 123.722 239.103 123.966ZM172.1 61.2139L171.591 61.4938L198.948 77.2749L199.431 76.9949L172.1 61.2139ZM173.067 67.4754L198.205 81.9888L198.688 81.7088L173.551 67.1954C173.83 66.9103 173.764 66.5489 173.347 66.3045C173.064 66.1629 172.752 66.0892 172.436 66.0892C172.119 66.0892 171.807 66.1629 171.524 66.3045C171.414 66.3411 171.317 66.4117 171.249 66.5063C171.18 66.6009 171.144 66.7147 171.144 66.8314C171.144 66.9481 171.18 67.0619 171.249 67.1565C171.317 67.251 171.414 67.3217 171.524 67.3583C172.003 67.5987 172.557 67.6408 173.067 67.4754ZM315.203 122.913C315.094 122.95 314.999 123.021 314.933 123.115C314.866 123.209 314.83 123.322 314.83 123.437C314.83 123.552 314.866 123.665 314.933 123.759C314.999 123.853 315.094 123.923 315.203 123.961C315.485 124.107 315.797 124.183 316.114 124.183C316.431 124.183 316.744 124.107 317.025 123.961C317.443 123.722 317.509 123.355 317.229 123.07L354.416 101.603C354.922 101.76 355.468 101.718 355.943 101.486C356.052 101.447 356.146 101.375 356.212 101.281C356.278 101.187 356.314 101.074 356.314 100.959C356.314 100.844 356.278 100.731 356.212 100.637C356.146 100.543 356.052 100.471 355.943 100.432C355.66 100.29 355.347 100.216 355.03 100.216C354.712 100.216 354.399 100.29 354.116 100.432C353.699 100.672 353.607 101.038 353.912 101.323L316.751 122.79C316.239 122.625 315.682 122.669 315.203 122.913ZM322.992 112.115C322.486 111.956 321.938 111.999 321.464 112.237C321.355 112.275 321.261 112.346 321.194 112.44C321.127 112.534 321.091 112.646 321.091 112.762C321.091 112.877 321.127 112.99 321.194 113.084C321.261 113.178 321.355 113.248 321.464 113.286C321.747 113.428 322.059 113.501 322.376 113.501C322.692 113.501 323.004 113.428 323.287 113.286C323.704 113.047 323.771 112.68 323.491 112.395L349.794 97.2099H373.313L330.704 121.803L331.188 122.083L374.967 96.8179H349.514L322.992 112.115ZM158.533 69.0433L158.024 69.3233L191.449 88.6219L191.933 88.3419L158.533 69.0433ZM164.072 77.4327L188.033 91.2894H205.067L162.57 66.7525L162.086 67.0325L203.412 90.8974H188.318L164.555 77.1527C164.835 76.8676 164.769 76.5011 164.352 76.2618C164.07 76.1163 163.758 76.0404 163.44 76.0404C163.123 76.0404 162.811 76.1163 162.529 76.2618C162.42 76.2996 162.326 76.3704 162.259 76.4643C162.192 76.5583 162.156 76.6708 162.156 76.7862C162.156 76.9015 162.192 77.014 162.259 77.108C162.326 77.202 162.42 77.2727 162.529 77.3105C163.007 77.5526 163.562 77.5965 164.072 77.4327ZM343.054 181.872C342.771 181.731 342.459 181.657 342.143 181.657C341.826 181.657 341.514 181.731 341.232 181.872C341.121 181.909 341.024 181.98 340.956 182.074C340.887 182.169 340.851 182.283 340.851 182.399C340.851 182.516 340.887 182.63 340.956 182.724C341.024 182.819 341.121 182.89 341.232 182.926C341.706 183.163 342.254 183.205 342.759 183.043L379.92 204.516C379.64 204.796 379.707 205.162 380.124 205.407C380.407 205.548 380.719 205.622 381.035 205.622C381.352 205.622 381.664 205.548 381.947 205.407C382.057 205.37 382.154 205.299 382.222 205.205C382.291 205.11 382.327 204.996 382.327 204.88C382.327 204.763 382.291 204.649 382.222 204.555C382.154 204.46 382.057 204.389 381.947 204.353C381.472 204.117 380.924 204.074 380.419 204.236L343.232 182.763C343.532 182.483 343.471 182.117 343.054 181.872ZM127.465 132.524H142.039L184.45 157.005L184.933 156.725L142.324 132.127H125.81L176.676 161.495L177.185 161.215L127.465 132.524ZM388.249 216.367V201.67L361.747 186.373C362.027 186.088 361.961 185.721 361.543 185.477C361.26 185.335 360.948 185.261 360.632 185.261C360.316 185.261 360.004 185.335 359.721 185.477C359.61 185.513 359.513 185.584 359.445 185.678C359.377 185.773 359.34 185.887 359.34 186.004C359.34 186.12 359.377 186.234 359.445 186.329C359.513 186.423 359.61 186.494 359.721 186.53C360.195 186.768 360.742 186.812 361.248 186.653L387.551 201.838V215.415L344.953 190.822L344.469 191.102L388.249 216.367ZM249.03 117.221C248.755 117.506 248.816 117.873 249.238 118.112C249.521 118.254 249.833 118.327 250.15 118.327C250.466 118.327 250.778 118.254 251.061 118.112C251.17 118.074 251.264 118.004 251.331 117.91C251.398 117.816 251.434 117.703 251.434 117.588C251.434 117.472 251.398 117.36 251.331 117.266C251.264 117.172 251.17 117.101 251.061 117.063C250.587 116.825 250.039 116.782 249.534 116.941L210.066 94.1555H185.646L150.342 73.7929L149.833 74.0728L185.335 94.5729H209.74L249.03 117.221ZM181.176 96.8179L224.956 122.083L225.465 121.803L182.866 97.2099H206.385L232.689 112.395C232.414 112.68 232.475 113.047 232.897 113.286C233.179 113.432 233.491 113.508 233.809 113.508C234.126 113.508 234.438 113.432 234.72 113.286C234.829 113.248 234.923 113.178 234.99 113.084C235.057 112.99 235.093 112.877 235.093 112.762C235.093 112.646 235.057 112.534 234.99 112.44C234.923 112.346 234.829 112.275 234.72 112.237C234.246 111.999 233.698 111.956 233.193 112.115L206.691 96.8433L181.176 96.8179ZM483.816 193.927L544.812 158.71L541.172 156.613L480.176 191.825L483.816 193.927ZM481.143 191.825L541.172 157.173L543.839 158.7L483.816 193.367L481.143 191.825ZM440.214 125.763L467.668 109.911L467.159 109.631L439.904 125.366H428.134L438.432 131.312L471.583 112.161L471.099 111.881L438.432 130.717L429.778 125.728L440.214 125.763ZM366.736 178.706C367.016 178.421 366.949 178.054 366.532 177.815C366.249 177.674 365.937 177.6 365.621 177.6C365.304 177.6 364.992 177.674 364.71 177.815C364.601 177.853 364.506 177.924 364.439 178.018C364.372 178.112 364.336 178.224 364.336 178.34C364.336 178.455 364.372 178.567 364.439 178.661C364.506 178.755 364.601 178.826 364.71 178.864C365.183 179.102 365.731 179.146 366.237 178.986L409.202 203.818H427.019L453.872 219.319L454.381 219.039L427.33 203.426H409.512L366.736 178.706ZM353.429 160.166L418.009 122.877H435.561L462.842 107.126L462.333 106.846L435.251 122.48H417.724L352.456 160.151L411.747 194.411H433.179L465.158 212.875L465.667 212.595L433.484 194.014H412.053L353.429 160.166ZM420.844 126.781L420.335 126.501L363.498 159.331L364.007 159.611L420.844 126.781ZM470.315 150.341V141.585L457.079 133.949L483.159 118.891L482.675 118.611L456.107 133.949L469.618 141.748V149.384L443.487 134.295L472.545 117.496L472.036 117.216L442.51 134.275L470.315 150.341ZM407.166 154.21L469.633 190.277L505.069 169.813L478.277 154.347L511.458 135.186L510.949 134.906L477.279 154.347L504.076 169.813L469.608 189.717L407.624 153.93L407.166 154.21ZM481.123 136.973L497.835 127.301L497.326 127.021L480.614 136.693L481.123 136.973ZM397.636 251.818L398.12 251.538L364.694 232.239L364.185 232.519L397.636 251.818ZM501.19 129.266L482.309 140.211L475.085 136.041L490.143 127.357L483.098 123.284L463.814 134.417L473.135 139.798V151.868H473.823V139.651L464.787 134.433L483.113 123.859L489.191 127.367L474.148 136.052L482.344 140.781L501.689 129.556L501.19 129.266ZM466.68 143.81L450.594 134.524L476.322 119.67L475.813 119.39L449.596 134.524L466.217 144.09L466.68 143.81ZM501.159 132.921L500.676 132.641L477.478 146.034V151.797L505.67 135.507L505.161 135.227L478.165 150.85V146.207L501.159 132.921ZM202.913 74.4241V84.7072L245.889 109.519C245.609 109.799 245.675 110.166 246.092 110.41C246.375 110.551 246.687 110.625 247.004 110.625C247.32 110.625 247.632 110.551 247.915 110.41C248.026 110.373 248.122 110.303 248.19 110.208C248.259 110.114 248.296 110 248.296 109.883C248.296 109.766 248.259 109.653 248.19 109.558C248.122 109.463 248.026 109.393 247.915 109.356C247.44 109.12 246.892 109.078 246.388 109.239L203.626 84.5443V74.2612L176.559 58.6431L176.075 58.9231L202.913 74.4241ZM407.675 237.59L386.666 225.459H376.428L396.099 236.816L396.608 236.536L378.108 225.846H386.411L407.222 237.859C406.942 238.145 407.008 238.506 407.425 238.75C407.708 238.892 408.02 238.966 408.336 238.966C408.653 238.966 408.965 238.892 409.248 238.75C409.359 238.714 409.455 238.643 409.523 238.549C409.592 238.454 409.629 238.34 409.629 238.223C409.629 238.107 409.592 237.993 409.523 237.898C409.455 237.804 409.359 237.733 409.248 237.697C409.006 237.575 408.742 237.503 408.472 237.485C408.202 237.466 407.931 237.502 407.675 237.59ZM176.89 99.6941L229.924 130.314L230.408 130.034L177.374 99.4345C177.654 99.1545 177.587 98.788 177.17 98.5436C176.887 98.402 176.575 98.3283 176.259 98.3283C175.942 98.3283 175.63 98.402 175.348 98.5436C175.237 98.5802 175.14 98.6508 175.072 98.7454C175.003 98.84 174.967 98.9538 174.967 99.0705C174.967 99.1872 175.003 99.301 175.072 99.3955C175.14 99.4901 175.237 99.5608 175.348 99.5974C175.829 99.8311 176.383 99.8658 176.89 99.6941ZM379.238 221.167L326.224 190.557L325.741 190.837L378.775 221.457C378.495 221.742 378.561 222.109 378.979 222.348C379.262 222.49 379.574 222.564 379.89 222.564C380.206 222.564 380.518 222.49 380.801 222.348C380.912 222.312 381.008 222.241 381.077 222.146C381.145 222.052 381.182 221.938 381.182 221.821C381.182 221.705 381.145 221.591 381.077 221.496C381.008 221.402 380.912 221.331 380.801 221.294C380.562 221.171 380.301 221.096 380.032 221.074C379.764 221.053 379.494 221.084 379.238 221.167ZM392.057 243.434L368.095 229.597H351.087L393.589 254.134L394.072 253.854L352.741 229.994H367.81L391.573 243.714C391.298 243.999 391.359 244.365 391.782 244.605C392.065 244.746 392.377 244.82 392.693 244.82C393.009 244.82 393.321 244.746 393.604 244.605C393.715 244.568 393.811 244.497 393.88 244.403C393.948 244.308 393.985 244.194 393.985 244.078C393.985 243.961 393.948 243.847 393.88 243.753C393.811 243.658 393.715 243.587 393.604 243.551C393.124 243.309 392.568 243.267 392.057 243.434ZM307.099 203.64C307.379 203.355 307.312 202.994 306.895 202.749C306.612 202.608 306.3 202.534 305.984 202.534C305.667 202.534 305.356 202.608 305.073 202.749C304.962 202.786 304.865 202.856 304.797 202.951C304.729 203.046 304.692 203.159 304.692 203.276C304.692 203.393 304.729 203.507 304.797 203.601C304.865 203.696 304.962 203.766 305.073 203.803C305.547 204.039 306.095 204.081 306.6 203.92L346.078 226.701H370.482L405.786 247.063L406.295 246.783L370.767 226.309H346.363L307.099 203.64ZM411.701 235.263C411.426 235.548 411.493 235.915 411.91 236.154C412.192 236.3 412.504 236.376 412.821 236.376C413.138 236.376 413.451 236.3 413.733 236.154C413.842 236.116 413.936 236.046 414.003 235.952C414.07 235.858 414.106 235.745 414.106 235.63C414.106 235.514 414.07 235.402 414.003 235.308C413.936 235.214 413.842 235.143 413.733 235.105C413.259 234.867 412.711 234.824 412.205 234.983L391.385 222.969V218.179L409.884 228.869L410.393 228.589L390.718 217.232V223.137L411.701 235.263ZM443.676 223.137L414.42 206.241L413.911 206.521L443.172 223.417C442.897 223.702 442.958 224.064 443.381 224.308C443.663 224.45 443.975 224.523 444.292 224.523C444.608 224.523 444.92 224.45 445.203 224.308C445.311 224.269 445.405 224.198 445.471 224.103C445.538 224.009 445.573 223.897 445.573 223.781C445.573 223.666 445.538 223.554 445.471 223.459C445.405 223.365 445.311 223.293 445.203 223.254C444.729 223.018 444.181 222.976 443.676 223.137ZM351.362 176.023C351.251 176.06 351.155 176.131 351.086 176.225C351.018 176.32 350.981 176.433 350.981 176.55C350.981 176.667 351.018 176.781 351.086 176.875C351.155 176.97 351.251 177.04 351.362 177.077C351.836 177.313 352.384 177.355 352.889 177.194L392.153 199.863V213.974L427.661 234.474L428.17 234.194L392.866 213.832V199.72L353.388 176.914C353.668 176.629 353.602 176.268 353.184 176.023C352.901 175.882 352.589 175.808 352.273 175.808C351.957 175.808 351.645 175.882 351.362 176.023ZM421.827 226.248C421.552 226.533 421.613 226.894 422.035 227.139C422.318 227.28 422.63 227.354 422.947 227.354C423.263 227.354 423.575 227.28 423.858 227.139C423.969 227.102 424.065 227.031 424.134 226.937C424.202 226.842 424.239 226.728 424.239 226.612C424.239 226.495 424.202 226.381 424.134 226.287C424.065 226.192 423.969 226.121 423.858 226.085C423.383 225.848 422.836 225.806 422.331 225.968L398.573 212.248V203.548L439.899 227.408L440.408 227.128L397.911 202.591V212.411L421.827 226.248ZM444.007 218.199L422.565 205.829L422.056 206.109L443.503 218.49C443.223 218.775 443.289 219.141 443.706 219.38C443.99 219.523 444.303 219.597 444.62 219.597C444.937 219.597 445.25 219.523 445.534 219.38C445.643 219.343 445.737 219.272 445.804 219.178C445.871 219.084 445.907 218.971 445.907 218.856C445.907 218.741 445.871 218.628 445.804 218.534C445.737 218.44 445.643 218.369 445.534 218.332C445.061 218.09 444.514 218.043 444.007 218.199ZM435.862 229.725L436.371 229.445L402.94 210.146L402.457 210.426L435.862 229.725ZM471.109 134.02L471.618 134.3L484.345 126.944L483.836 126.664L471.109 134.02ZM396.099 84.0454L376.428 95.4027H386.671L407.675 83.2767C408.18 83.4364 408.728 83.3926 409.202 83.1546C409.311 83.1168 409.405 83.046 409.472 82.9521C409.539 82.8581 409.575 82.7456 409.575 82.6302C409.575 82.5149 409.539 82.4024 409.472 82.3084C409.405 82.2144 409.311 82.1436 409.202 82.1059C408.919 81.9643 408.607 81.8906 408.291 81.8906C407.974 81.8906 407.662 81.9643 407.379 82.1059C406.962 82.3452 406.87 82.7117 407.176 82.9968L386.365 95.0107H378.083L396.582 84.3203L396.099 84.0454ZM428.358 188.572H413.783L371.378 164.086L370.869 164.366L413.478 188.964H429.992L379.167 159.596L378.658 159.876L428.358 188.572ZM402.905 110.72L436.335 91.4218L435.826 91.1418L402.401 110.44L402.905 110.72ZM392.153 120.998L352.884 143.667C352.378 143.508 351.831 143.551 351.357 143.789C351.248 143.827 351.153 143.898 351.086 143.992C351.019 144.086 350.983 144.198 350.983 144.314C350.983 144.429 351.019 144.542 351.086 144.635C351.153 144.729 351.248 144.8 351.357 144.838C351.64 144.98 351.952 145.053 352.268 145.053C352.584 145.053 352.896 144.98 353.179 144.838C353.597 144.599 353.663 144.232 353.383 143.947L392.851 121.161V107.07L428.154 86.7078L427.645 86.4279L392.143 106.923L392.153 120.998ZM346.078 94.1555L306.61 116.941C306.104 116.782 305.557 116.825 305.083 117.063C304.974 117.101 304.879 117.172 304.812 117.266C304.745 117.36 304.709 117.472 304.709 117.588C304.709 117.703 304.745 117.816 304.812 117.91C304.879 118.004 304.974 118.074 305.083 118.112C305.366 118.254 305.678 118.327 305.994 118.327C306.31 118.327 306.622 118.254 306.905 118.112C307.323 117.873 307.414 117.506 307.109 117.221L346.373 94.5525H370.767L406.275 74.0525L405.766 73.7725L370.457 94.1351L346.078 94.1555ZM380.15 64.7875C380.26 64.7509 380.357 64.6803 380.425 64.5857C380.494 64.4911 380.53 64.3773 380.53 64.2606C380.53 64.1439 380.494 64.0301 380.425 63.9356C380.357 63.841 380.26 63.7703 380.15 63.7337C379.867 63.5922 379.555 63.5185 379.238 63.5185C378.922 63.5185 378.61 63.5922 378.327 63.7337C377.905 63.973 377.818 64.3395 378.118 64.6246L356.671 77.0051L357.181 77.285L378.627 64.9046C379.133 65.0631 379.679 65.0212 380.155 64.7875H380.15ZM352.528 74.2612V84.5443L309.766 109.239C309.261 109.078 308.713 109.12 308.239 109.356C308.128 109.393 308.032 109.463 307.963 109.558C307.895 109.653 307.858 109.766 307.858 109.883C307.858 110 307.895 110.114 307.963 110.208C308.032 110.303 308.128 110.373 308.239 110.41C308.522 110.551 308.834 110.625 309.15 110.625C309.467 110.625 309.779 110.551 310.061 110.41C310.484 110.166 310.545 109.799 310.27 109.519L353.205 84.7072V74.4241L380.053 58.9231L379.544 58.6431L352.528 74.2612ZM398.552 108.598L422.315 94.8783C422.821 95.038 423.369 94.9941 423.843 94.7562C423.952 94.7184 424.046 94.6476 424.113 94.5537C424.18 94.4597 424.216 94.3472 424.216 94.2318C424.216 94.1165 424.18 94.004 424.113 93.91C424.046 93.816 423.952 93.7452 423.843 93.7075C423.56 93.5659 423.248 93.4922 422.931 93.4922C422.615 93.4922 422.303 93.5659 422.02 93.7075C421.598 93.9467 421.511 94.3133 421.811 94.5984L397.85 108.43V118.27L440.347 93.7329L439.837 93.453L398.512 117.318L398.552 108.598ZM357.924 81.9684L387.185 65.0726C387.69 65.2338 388.238 65.1918 388.712 64.9555C388.823 64.9189 388.919 64.8483 388.988 64.7537C389.056 64.6591 389.093 64.5453 389.093 64.4286C389.093 64.3119 389.056 64.1981 388.988 64.1035C388.919 64.009 388.823 63.9383 388.712 63.9017C388.429 63.7602 388.117 63.6865 387.801 63.6865C387.484 63.6865 387.172 63.7602 386.89 63.9017C386.472 64.1461 386.381 64.5126 386.686 64.7926L357.425 81.6885L357.924 81.9684ZM368.105 91.2436L392.072 77.4123C392.577 77.572 393.125 77.5281 393.599 77.2901C393.71 77.2535 393.806 77.1829 393.875 77.0883C393.943 76.9937 393.98 76.88 393.98 76.7633C393.98 76.6465 393.943 76.5328 393.875 76.4382C393.806 76.3436 393.71 76.273 393.599 76.2364C393.316 76.0948 393.004 76.0211 392.688 76.0211C392.371 76.0211 392.06 76.0948 391.777 76.2364C391.359 76.4807 391.293 76.8473 391.568 77.1323L367.81 90.8771H352.741L394.072 67.0121L393.589 66.7321L351.087 91.2894L368.105 91.2436ZM364.664 88.6016L398.094 69.3029L397.585 69.0229L364.16 88.3216L364.664 88.6016ZM410.378 92.2617L409.894 91.9868L391.39 102.677V97.9073L412.2 85.8933C412.705 86.0546 413.253 86.0125 413.727 85.7763C413.838 85.7396 413.935 85.669 414.003 85.5744C414.072 85.4798 414.108 85.3661 414.108 85.2494C414.108 85.1327 414.072 85.0189 414.003 84.9243C413.935 84.8297 413.838 84.7591 413.727 84.7225C413.445 84.5809 413.133 84.5072 412.816 84.5072C412.5 84.5072 412.188 84.5809 411.905 84.7225C411.488 84.9668 411.396 85.3283 411.701 85.6134L390.687 97.7444V103.66L410.378 92.2617ZM399.26 153.507L416.634 143.479V155.493L432.797 164.829L460.027 149.104L424.311 128.482L379.544 154.332L473.054 208.318L473.563 208.038L380.511 154.332L424.291 129.042L459.039 149.104L432.777 164.269L417.347 155.33V142.522L398.313 153.507L483.403 202.637L555.813 160.807L555.329 160.527L483.378 202.077L399.26 153.507ZM432.823 160.441L451.719 149.526L440.229 142.909L421.328 153.823L432.823 160.441ZM422.3 153.823L440.255 143.453L450.777 149.526L432.823 159.881L422.3 153.823ZM423.914 133.486L421.033 135.15L425.706 137.849V148.905L435.633 143.178L430.583 140.256L430.074 140.536L434.655 143.163L426.383 147.938V137.665L421.995 135.12L423.914 134.051L437.297 141.784L437.806 141.504L423.914 133.486ZM421.929 139.783V150.142H422.616V139.62L417.953 136.927L388.885 153.726L472.779 202.159L473.263 201.879L389.857 153.706L417.953 137.487L421.929 139.783ZM483.077 198.045L551.944 158.287L541.905 152.494L473.039 192.252L483.077 198.045ZM474.011 192.252L541.905 153.054L550.977 158.287L483.077 197.486L474.011 192.252ZM441.1 99.9741C441.211 99.9375 441.307 99.8669 441.376 99.7723C441.444 99.6777 441.481 99.5639 441.481 99.4472C441.481 99.3305 441.444 99.2167 441.376 99.1221C441.307 99.0275 441.211 98.9569 441.1 98.9203C440.817 98.7788 440.505 98.7051 440.189 98.7051C439.872 98.7051 439.56 98.7788 439.277 98.9203C438.86 99.1647 438.768 99.5261 439.069 99.8112L413.931 114.325L414.44 114.605L439.578 100.091C440.081 100.251 440.627 100.209 441.1 99.9741ZM422.565 115.042L449.917 99.2614L449.408 98.9814L422.051 114.762L422.565 115.042ZM409.202 117.043L366.232 141.855C365.727 141.694 365.179 141.736 364.705 141.972C364.594 142.009 364.497 142.079 364.429 142.174C364.36 142.268 364.324 142.382 364.324 142.499C364.324 142.616 364.36 142.729 364.429 142.824C364.497 142.918 364.594 142.989 364.705 143.026C364.987 143.167 365.299 143.241 365.616 143.241C365.932 143.241 366.244 143.167 366.527 143.026C366.944 142.781 367.036 142.42 366.731 142.135L409.492 117.44H427.309L454.361 101.822L453.852 101.542L427.019 117.043H409.202ZM511.305 160.314L524.851 152.494L513.728 146.07L500.202 153.904L511.305 160.314ZM501.124 153.889L513.703 146.63L523.884 152.494L511.305 159.754L501.124 153.889ZM509.702 169.237L540.281 151.583L515.281 137.146L484.747 154.8L509.702 169.237ZM485.714 154.8L515.327 137.706L539.36 151.583L509.747 168.667L485.714 154.8ZM510.608 164.381L531.917 152.077L514.466 142.002L493.157 154.307L510.608 164.381ZM494.129 154.307L514.466 142.562L530.945 152.077L510.608 163.821L494.129 154.307ZM284.517 214.234L284.033 214.514L326.443 239V247.41L276.748 218.719L276.265 218.999L327.13 248.367V238.832L284.517 214.234ZM189.596 177.831C189.179 178.07 189.087 178.436 189.393 178.721L146.631 203.416H128.814L101.762 219.065L102.271 219.34L129.119 203.839H146.937L189.907 179.032C190.412 179.192 190.96 179.148 191.434 178.91C191.543 178.872 191.638 178.801 191.704 178.707C191.771 178.613 191.807 178.501 191.807 178.385C191.807 178.27 191.771 178.158 191.704 178.064C191.638 177.97 191.543 177.899 191.434 177.861C191.151 177.712 190.838 177.632 190.519 177.627C190.2 177.621 189.884 177.691 189.596 177.831ZM73.5294 180.885L80.753 185.054L65.7152 193.739L72.7556 197.811L92.0543 186.678L82.7129 181.297V169.248H82.0257V181.465L91.0616 186.683L72.7352 197.256L66.6621 193.749L81.7151 185.059L73.5141 180.33L54.1696 191.529L54.6787 191.809L73.5294 180.885ZM116.26 227.403L157.591 203.543V212.243L133.798 225.968C133.293 225.806 132.745 225.848 132.27 226.085C132.16 226.121 132.063 226.192 131.995 226.287C131.926 226.381 131.89 226.495 131.89 226.612C131.89 226.728 131.926 226.842 131.995 226.937C132.063 227.031 132.16 227.102 132.27 227.139C132.553 227.28 132.865 227.354 133.182 227.354C133.498 227.354 133.81 227.28 134.093 227.139C134.51 226.894 134.602 226.533 134.296 226.248L158.258 212.411V202.591L115.761 227.128L116.26 227.403ZM54.6634 188.175L55.1725 188.455L78.3706 175.061V169.304L50.1786 185.594L50.6876 185.874L77.7088 170.276V174.919L54.6634 188.175ZM120.262 229.725L153.687 210.411L153.203 210.131L119.778 229.445L120.262 229.725ZM115.028 220.892C114.92 220.931 114.826 221.003 114.76 221.097C114.694 221.192 114.658 221.304 114.658 221.419C114.658 221.534 114.694 221.647 114.76 221.741C114.826 221.836 114.92 221.907 115.028 221.946C115.311 222.088 115.623 222.161 115.94 222.161C116.256 222.161 116.568 222.088 116.851 221.946C117.273 221.702 117.334 221.335 117.06 221.05L142.197 206.542L141.688 206.262L116.55 220.77C116.046 220.612 115.501 220.656 115.028 220.892ZM84.7135 187.075L84.2045 186.795L71.4778 194.146L71.9869 194.426L84.7135 187.075ZM85.5077 170.785V179.541L98.7434 187.177L72.664 202.235L73.1476 202.515L99.6902 187.177L86.1949 179.358V171.722L112.325 186.81L83.2627 203.61L83.7718 203.89L113.298 186.831L85.5077 170.785ZM51.7414 151.288L86.2102 131.383L148.194 167.171L148.703 166.891L86.2102 130.823L50.7691 151.288L77.5663 166.758L44.3803 185.914L44.8894 186.194L78.5539 166.758L51.7414 151.288ZM127.689 195.734L117.396 189.788L84.2401 208.929L84.7492 209.209L117.421 190.348L126.075 195.337H115.609L88.1548 211.19L88.6639 211.47L115.914 195.734H127.689ZM74.746 184.133L58.0283 193.78L58.5374 194.06L75.25 184.413L74.746 184.133ZM89.1424 177.291L105.234 186.576L79.5058 201.431L80.0149 201.711L106.227 186.576L89.6311 177.011L89.1424 177.291ZM233.137 208.746C233.642 208.907 234.189 208.865 234.664 208.629C234.772 208.59 234.866 208.518 234.932 208.424C234.999 208.33 235.034 208.217 235.034 208.102C235.034 207.987 234.999 207.874 234.932 207.78C234.866 207.686 234.772 207.614 234.664 207.575C234.38 207.433 234.067 207.359 233.75 207.359C233.433 207.359 233.12 207.433 232.836 207.575C232.419 207.82 232.353 208.181 232.633 208.466L206.35 223.646H182.831L225.429 199.059L224.92 198.779L181.141 224.049H206.594L233.137 208.746ZM148.728 238.781C149.146 238.537 149.238 238.175 148.932 237.89L169.743 225.876H178.046L159.546 236.566L160.03 236.846L179.7 225.489H169.458L148.448 237.62C147.944 237.459 147.396 237.501 146.921 237.737C146.81 237.774 146.714 237.845 146.646 237.939C146.577 238.034 146.54 238.147 146.54 238.264C146.54 238.381 146.577 238.495 146.646 238.589C146.714 238.684 146.81 238.754 146.921 238.791C147.205 238.925 147.515 238.993 147.828 238.987C148.142 238.982 148.45 238.904 148.728 238.761V238.781ZM106.695 221.895L134.052 206.114L133.543 205.834L106.211 221.61L106.695 221.895ZM251.061 203.793C251.169 203.754 251.263 203.682 251.329 203.588C251.396 203.494 251.431 203.381 251.431 203.266C251.431 203.151 251.396 203.038 251.329 202.944C251.263 202.85 251.169 202.778 251.061 202.739C250.778 202.597 250.466 202.524 250.15 202.524C249.833 202.524 249.521 202.597 249.238 202.739C248.816 202.983 248.755 203.345 249.03 203.63L209.765 226.299H185.361L149.859 246.809L150.368 247.089L185.671 226.726H210.076L249.539 203.94C250.046 204.091 250.592 204.038 251.061 203.793ZM143.938 234.988C143.433 234.827 142.885 234.869 142.411 235.105C142.3 235.142 142.204 235.213 142.135 235.307C142.067 235.402 142.03 235.516 142.03 235.632C142.03 235.749 142.067 235.863 142.135 235.957C142.204 236.052 142.3 236.123 142.411 236.159C142.694 236.301 143.006 236.374 143.322 236.374C143.639 236.374 143.951 236.301 144.233 236.159C144.656 235.915 144.743 235.548 144.442 235.263L165.436 223.137V217.222L145.761 228.579L146.27 228.859L164.769 218.169V222.959L143.938 234.988ZM239.103 196.9C238.685 197.144 238.619 197.506 238.899 197.791L201.737 219.263C201.233 219.102 200.685 219.144 200.21 219.38C200.099 219.417 200.003 219.488 199.935 219.582C199.866 219.677 199.829 219.791 199.829 219.907C199.829 220.024 199.866 220.138 199.935 220.232C200.003 220.327 200.099 220.398 200.21 220.434C200.493 220.576 200.805 220.649 201.121 220.649C201.438 220.649 201.75 220.576 202.033 220.434C202.45 220.19 202.516 219.823 202.236 219.543L239.424 198.071C239.928 198.232 240.476 198.19 240.951 197.954C241.062 197.917 241.158 197.847 241.226 197.752C241.295 197.657 241.332 197.544 241.332 197.427C241.332 197.31 241.295 197.197 241.226 197.102C241.158 197.007 241.062 196.937 240.951 196.9C240.665 196.754 240.348 196.678 240.027 196.678C239.706 196.678 239.389 196.754 239.103 196.9ZM174.141 204.353C174.03 204.389 173.934 204.46 173.865 204.555C173.797 204.649 173.76 204.763 173.76 204.88C173.76 204.996 173.797 205.11 173.865 205.205C173.934 205.299 174.03 205.37 174.141 205.407C174.424 205.548 174.736 205.622 175.052 205.622C175.369 205.622 175.681 205.548 175.963 205.407C176.381 205.162 176.447 204.801 176.172 204.516L213.334 183.043C213.839 183.205 214.387 183.163 214.861 182.926C214.97 182.887 215.063 182.816 215.13 182.721C215.196 182.627 215.231 182.515 215.231 182.399C215.231 182.284 215.196 182.172 215.13 182.077C215.063 181.983 214.97 181.912 214.861 181.872C214.578 181.731 214.266 181.657 213.95 181.657C213.634 181.657 213.322 181.731 213.039 181.872C212.616 182.117 212.53 182.483 212.83 182.763L175.643 204.236C175.146 204.081 174.608 204.123 174.141 204.353ZM202.944 176.023C202.527 176.268 202.435 176.629 202.74 176.914L163.272 199.72V213.811L127.969 234.174L128.478 234.454L163.96 213.974V199.863L203.224 177.194C203.729 177.355 204.277 177.313 204.751 177.077C204.862 177.04 204.958 176.97 205.027 176.875C205.095 176.781 205.132 176.667 205.132 176.55C205.132 176.433 205.095 176.32 205.027 176.225C204.958 176.131 204.862 176.06 204.751 176.023C204.47 175.884 204.161 175.812 203.848 175.812C203.534 175.812 203.225 175.884 202.944 176.023ZM194.585 185.466C194.168 185.706 194.101 186.072 194.381 186.357L167.905 201.67V216.372L211.685 191.102L211.201 190.822L168.602 215.415V201.838L194.885 186.653C195.391 186.812 195.939 186.768 196.413 186.53C196.522 186.493 196.616 186.422 196.683 186.328C196.75 186.234 196.786 186.121 196.786 186.006C196.786 185.891 196.75 185.778 196.683 185.684C196.616 185.59 196.522 185.519 196.413 185.482C196.132 185.333 195.819 185.254 195.501 185.251C195.183 185.249 194.869 185.322 194.585 185.466ZM229.924 190.557L176.89 221.167C176.384 221.008 175.837 221.051 175.363 221.289C175.254 221.327 175.159 221.398 175.092 221.492C175.025 221.586 174.989 221.698 174.989 221.814C174.989 221.929 175.025 222.042 175.092 222.136C175.159 222.23 175.254 222.3 175.363 222.338C175.646 222.48 175.958 222.553 176.274 222.553C176.59 222.553 176.902 222.48 177.185 222.338C177.603 222.099 177.694 221.732 177.389 221.447L230.423 190.827L229.924 190.557ZM225.429 187.946L172.38 218.556C171.875 218.395 171.327 218.437 170.852 218.673C170.742 218.709 170.645 218.78 170.577 218.875C170.508 218.969 170.472 219.083 170.472 219.2C170.472 219.316 170.508 219.43 170.577 219.525C170.645 219.619 170.742 219.69 170.852 219.727C171.135 219.868 171.447 219.942 171.764 219.942C172.08 219.942 172.392 219.868 172.675 219.727C173.097 219.482 173.159 219.121 172.884 218.836L225.918 188.215L225.429 187.946ZM189.892 141.855L146.921 117.043H129.104L102.236 101.542L101.727 101.822L128.809 117.44H146.626L189.388 142.135C189.113 142.42 189.174 142.781 189.596 143.026C189.879 143.167 190.191 143.241 190.507 143.241C190.824 143.241 191.136 143.167 191.419 143.026C191.527 142.987 191.621 142.915 191.687 142.821C191.753 142.727 191.789 142.614 191.789 142.499C191.789 142.384 191.753 142.271 191.687 142.177C191.621 142.083 191.527 142.011 191.419 141.972C190.94 141.732 190.386 141.689 189.876 141.855H189.892ZM90.6645 108.226L90.1809 108.506L122.364 127.087H143.775L202.399 160.935L137.819 198.224H120.267L92.9808 213.974L93.4898 214.254L120.562 198.621H138.114L203.387 160.95L144.055 126.69H122.649L90.6645 108.226ZM211.975 251.406L184.892 267.039L185.402 267.319L212.682 251.569V241.433L277.242 204.149L335.897 237.997V250.357L368.054 268.953L368.563 268.673L336.558 250.194V237.834L277.242 203.589L211.975 241.26V251.406ZM203.601 236.322L246.362 211.627C246.867 211.786 247.414 211.744 247.889 211.51C248 211.474 248.097 211.403 248.165 211.308C248.233 211.214 248.27 211.1 248.27 210.983C248.27 210.867 248.233 210.753 248.165 210.658C248.097 210.564 248 210.493 247.889 210.456C247.606 210.315 247.294 210.241 246.978 210.241C246.662 210.241 246.35 210.315 246.067 210.456C245.649 210.696 245.583 211.062 245.863 211.347L202.888 236.159V246.442L176.05 261.943L176.534 262.223L203.585 246.605L203.601 236.322ZM258.071 265.695L285.301 249.975L269.133 240.639H248.337L265.712 230.61L349.83 279.175L277.863 320.72L278.372 321L350.817 279.175L265.727 230.05L246.698 241.036H268.878L284.359 249.975L258.091 265.135L223.342 245.073L267.122 219.788L360.148 273.494L360.657 273.214L267.147 219.253L222.375 245.073L258.071 265.695ZM275.827 209.963L218.944 242.792L219.427 243.072L276.285 210.243L275.827 209.963ZM308.239 210.472C308.128 210.508 308.032 210.579 307.963 210.674C307.895 210.768 307.858 210.882 307.858 210.999C307.858 211.115 307.895 211.229 307.963 211.324C308.032 211.418 308.128 211.489 308.239 211.526C308.714 211.759 309.261 211.801 309.766 211.643L352.528 236.337V246.62L379.579 262.239L380.088 261.959L353.205 246.442V236.159L310.235 211.347C310.509 211.062 310.448 210.696 310.026 210.456C309.744 210.317 309.434 210.244 309.12 210.244C308.805 210.244 308.495 210.317 308.214 210.456L308.239 210.472ZM384.059 259.668L384.568 259.388L357.216 243.607L356.707 243.887L384.059 259.668ZM110.89 96.543C110.781 96.5807 110.686 96.6515 110.619 96.7455C110.552 96.8395 110.516 96.952 110.516 97.0673C110.516 97.1827 110.552 97.2952 110.619 97.3891C110.686 97.4831 110.781 97.5539 110.89 97.5917C111.363 97.8296 111.911 97.8735 112.417 97.7138L141.678 114.605L142.187 114.325L112.926 97.4338C113.206 97.1488 113.14 96.7822 112.722 96.543C112.438 96.3998 112.124 96.3252 111.806 96.3252C111.488 96.3252 111.174 96.3998 110.89 96.543ZM204.746 144.838C204.855 144.8 204.95 144.729 205.016 144.635C205.083 144.542 205.119 144.429 205.119 144.314C205.119 144.198 205.083 144.086 205.016 143.992C204.95 143.898 204.855 143.827 204.746 143.789C204.272 143.551 203.724 143.508 203.219 143.667L163.955 120.998V106.913L128.452 86.4126L127.943 86.6926L163.247 107.055V121.141L202.715 143.927C202.435 144.212 202.501 144.578 202.918 144.818C203.202 144.971 203.518 145.052 203.84 145.056C204.162 145.059 204.48 144.985 204.766 144.838H204.746ZM258.799 260.905L277.7 249.99L266.211 243.373L247.319 254.267L258.799 260.905ZM248.276 254.287L266.211 243.933L276.733 250.006L258.799 260.36L248.276 254.287ZM383.041 253.411L357.903 238.898L357.42 239.178L382.578 253.681C382.298 253.961 382.364 254.328 382.781 254.572C383.064 254.714 383.376 254.787 383.693 254.787C384.009 254.787 384.321 254.714 384.604 254.572C384.715 254.535 384.811 254.465 384.88 254.37C384.948 254.276 384.985 254.162 384.985 254.045C384.985 253.928 384.948 253.815 384.88 253.72C384.811 253.626 384.715 253.555 384.604 253.518C384.126 253.275 383.572 253.229 383.061 253.391L383.041 253.411ZM45.2203 156.72L23.9108 169.024L41.3615 179.098L62.6659 166.794L45.2203 156.72ZM61.6987 166.794L41.3615 178.538L24.8577 169.024L45.2203 157.28L61.6987 166.794ZM266.379 288.888L252.832 296.707L263.955 303.132L277.502 295.313L266.379 288.888ZM276.534 295.313L263.955 302.551L253.8 296.687L266.379 289.428L276.534 295.313ZM46.0755 151.868L15.4959 169.523L40.5012 183.939L71.0808 166.285L46.0755 151.868ZM70.1085 166.305L40.5012 183.4L16.4683 169.523L46.0755 152.428L70.1085 166.305ZM72.0124 127.179L11.0162 162.396L14.656 164.498L75.6522 129.281L72.0124 127.179ZM74.685 129.281L14.6764 163.933L12.0038 162.406L72.0327 127.749L74.685 129.281ZM72.7454 123.06L3.88417 162.813L13.9229 168.606L82.7842 128.848L72.7454 123.06ZM81.817 128.853L13.9229 168.051L4.85139 162.813L72.7454 123.615L81.817 128.853ZM44.4974 160.792L30.9664 168.606L42.0895 175.031L55.6357 167.211L44.4974 160.792ZM54.6787 167.216L42.1048 174.476L31.9235 168.611L44.4974 161.352L54.6787 167.216ZM231.029 244.844L244.896 252.851L245.405 252.571L232.017 244.844L233.926 243.739L238.314 246.284H256.101L247.828 251.06L243.247 248.423L242.763 248.703L247.793 251.609L257.719 245.877H238.563L233.89 243.179L231.029 244.844ZM241.674 244.08H259.898V243.688H241.943L237.963 241.392L266.058 225.174L349.463 273.326L349.972 273.046L266.078 224.614L237.016 241.413L241.674 244.08ZM332.842 273.209L263.976 312.967L274.015 318.76L342.881 279.002L332.842 273.209ZM341.909 279.002L274.015 318.2L264.948 312.967L332.842 273.769L341.909 279.002ZM267.977 279.964L237.397 297.619L262.398 312.056L292.957 294.406L267.977 279.964ZM291.99 294.406L262.377 311.501L238.344 297.624L267.957 280.529L291.99 294.406ZM267.096 284.826L245.792 297.125L263.243 307.199L284.547 294.915L267.096 284.826ZM283.575 294.915L263.212 306.66L246.759 297.125L267.122 285.381L283.575 294.915ZM332.084 277.348L271.087 312.544L274.727 314.642L335.723 279.425L332.084 277.348ZM334.756 279.445L274.727 314.082L272.06 312.555L332.084 277.897L334.756 279.445Z" fill="url(#paint0_radial_16_2641)"/>
<defs>
<radialGradient id="paint0_radial_16_2641" cx="0" cy="0" r="1" gradientUnits="userSpaceOnUse" gradientTransform="translate(277.914 160.553) scale(223.057 223.057)">
<stop offset="0.14" stop-color="white"/>
<stop offset="0.15" stop-color="#FCFCFC" stop-opacity="0.99"/>
<stop offset="0.35" stop-color="#A4A4A4" stop-opacity="0.64"/>
<stop offset="0.53" stop-color="#5E5E5E" stop-opacity="0.37"/>
<stop offset="0.68" stop-color="#2B2B2B" stop-opacity="0.17"/>
<stop offset="0.79" stop-color="#0C0C0C" stop-opacity="0.05"/>
<stop offset="0.86" stop-opacity="0"/>
</radialGradient>
</defs>
</svg>
