<svg width="572" height="331" viewBox="0 0 572 331" fill="none" xmlns="http://www.w3.org/2000/svg">
<path style="mix-blend-mode:color-dodge" d="M113.322 165.595L81.5184 147.234L81.0208 147.522L112.819 165.883L113.322 165.595ZM110.85 167.02L79.0458 148.685L78.5481 148.973L110.352 167.308L110.85 167.02ZM105.904 169.875L74.1058 151.514L73.5819 151.802L105.386 170.163L105.904 169.875ZM96.019 175.585L64.2152 157.224L63.6913 157.512L95.4951 175.874L96.019 175.585ZM100.964 172.73L69.1605 154.369L68.6628 154.657L100.461 173.018L100.964 172.73ZM103.432 171.305L71.6331 152.97L71.1355 153.258L102.934 171.62L103.432 171.305ZM108.377 168.477L76.5784 150.115L76.0545 150.403L107.879 168.738L108.377 168.477ZM115.795 164.197L83.9911 145.861L83.4934 146.149L115.292 164.485L115.795 164.197ZM123.207 159.911L91.409 141.524L90.8851 141.812L122.689 160.147L123.207 159.911ZM98.4916 174.155L66.6878 155.82L66.1902 156.108L97.9939 174.443L98.4916 174.155ZM120.735 161.315L88.9363 142.954L88.4125 143.242L120.216 161.603L120.735 161.315ZM118.262 162.74L86.4637 144.379L85.9398 144.667L117.78 163.028L118.262 162.74ZM288.46 64.4791L256.657 46.1439L256.133 46.432L287.957 64.7516L288.46 64.4791ZM276.097 71.6142L244.299 53.2789L243.801 53.5671L275.599 71.9285L276.097 71.6142ZM278.57 70.1893L246.771 51.854L246.247 52.1422L278.083 70.4774L278.57 70.1893ZM295.857 60.1992L264.059 41.864L263.535 42.1521L295.37 60.4873L295.857 60.1992ZM298.33 58.769L266.558 40.4129L266.034 40.701L297.837 59.0362L298.33 58.769ZM293.4 61.6084L261.602 43.2731L261.078 43.5613L292.876 61.9227L293.4 61.6084ZM300.818 57.3284L269.014 38.9932L268.517 39.2813L300.321 57.6427L300.818 57.3284ZM303.291 55.9035L271.487 37.5683L270.963 37.8564L302.762 56.2178L303.291 55.9035ZM281.042 68.7434L249.27 50.3977L248.746 50.6858L280.55 69.021L281.042 68.7434ZM285.988 65.8883L254.184 47.5531L253.686 47.8412L285.49 66.1765L285.988 65.8883ZM283.515 67.3185L251.711 48.9728L251.187 49.2609L282.991 67.5961L283.515 67.3185ZM290.928 63.0385L259.129 44.6771L258.632 44.9652L290.43 63.3266L290.928 63.0385ZM276.113 271.536L307.911 289.898L308.409 289.61L276.611 271.274L276.113 271.536ZM273.64 272.966L305.439 291.328L305.963 291.04L274.159 272.704L273.64 272.966ZM271.168 274.391L302.966 292.727L303.49 292.438L271.686 274.103L271.168 274.391ZM278.606 270.148L310.41 288.483L310.908 288.195L279.109 269.834L278.606 270.148ZM268.695 275.869L300.499 294.204L300.996 293.916L269.193 275.58L268.695 275.869ZM293.411 261.593L325.215 279.929L325.712 279.64L293.914 261.279L293.411 261.593ZM290.943 263.023L322.742 281.385L323.24 281.097L291.441 262.735L290.943 263.023ZM288.471 264.448L320.269 282.81L320.793 282.522L288.989 264.186L288.471 264.448ZM295.894 260.153L327.698 278.488L328.195 278.2L296.397 259.838L295.894 260.153ZM281.063 268.713L312.867 287.048L313.365 286.76L281.566 268.398L281.063 268.713ZM286.009 265.863L317.807 284.198L318.331 283.91L286.527 265.575L286.009 265.863ZM283.536 267.288L315.34 285.623L315.837 285.335L284.034 267L283.536 267.288ZM468.549 160.472L500.353 178.807L500.877 178.519L469.078 160.184L468.549 160.472ZM471.022 159.047L502.82 177.382L503.344 177.094L471.54 158.733L471.022 159.047ZM475.967 156.192L507.765 174.527L508.289 174.239L476.464 155.904L475.967 156.192ZM473.484 157.617L505.282 175.952L505.806 175.669L474.002 157.334L473.484 157.617ZM466.066 161.897L497.87 180.258L498.367 179.97L466.569 161.609L466.066 161.897ZM451.235 170.457L483.039 188.818L483.563 188.53L451.764 170.195L451.235 170.457ZM463.598 163.322L495.397 181.657L495.895 181.369L464.096 163.007L463.598 163.322ZM453.708 169.032L485.533 187.393L486.03 187.105L454.232 168.744L453.708 169.032ZM448.768 171.887L480.566 190.248L481.09 189.96L449.276 171.62L448.768 171.887ZM456.196 167.607L488 185.942L488.498 185.654L456.694 167.319L456.196 167.607ZM461.141 164.752L492.94 183.113L493.464 182.825L461.66 164.464L461.141 164.752ZM458.669 166.177L490.473 184.538L490.996 184.25L459.193 165.889L458.669 166.177ZM167.27 262.191L211.028 236.94H193.5L168.841 251.179C168.321 251.017 167.759 251.06 167.27 251.299C167.158 251.34 167.062 251.413 166.993 251.51C166.925 251.607 166.889 251.723 166.889 251.842C166.889 251.96 166.925 252.076 166.993 252.173C167.062 252.27 167.158 252.344 167.27 252.384C167.561 252.529 167.882 252.605 168.207 252.605C168.533 252.605 168.854 252.529 169.145 252.384C169.58 252.138 169.669 251.76 169.36 251.467L193.814 237.349H209.32L166.788 261.902L167.27 262.191ZM181.094 264.192C180.98 264.229 180.881 264.302 180.811 264.399C180.74 264.497 180.703 264.614 180.703 264.734C180.703 264.854 180.74 264.971 180.811 265.068C180.881 265.166 180.98 265.238 181.094 265.276C181.386 265.422 181.707 265.498 182.032 265.498C182.358 265.498 182.679 265.422 182.97 265.276C183.399 265.025 183.468 264.647 183.179 264.359L205.266 251.614L204.768 251.326L182.697 264.071C182.435 263.985 182.159 263.951 181.884 263.972C181.609 263.992 181.341 264.067 181.094 264.192ZM139.405 200.925L197.931 167.141L197.434 166.853L138.908 200.637L139.405 200.925ZM137.834 187.257V176.596H137.106V187.425L141.904 190.196L171.812 172.908L85.4841 123.089L84.9864 123.377L170.816 172.929L141.904 189.62L137.834 187.257ZM135.775 193.753L138.735 192.05L133.931 189.274V177.906L123.716 183.805L128.891 186.791L129.415 186.503L124.737 183.805L133.25 178.886V189.431L137.766 192.05L135.801 193.187L121.971 185.24L121.447 185.528L135.775 193.753ZM174.143 265.077C174.572 264.831 174.64 264.454 174.352 264.16L204.464 246.778L203.966 246.49L173.834 263.872C173.314 263.709 172.751 263.752 172.262 263.993C172.148 264.03 172.049 264.103 171.978 264.2C171.908 264.298 171.87 264.415 171.87 264.535C171.87 264.655 171.908 264.772 171.978 264.869C172.049 264.967 172.148 265.039 172.262 265.077C172.554 265.224 172.876 265.3 173.202 265.3C173.529 265.3 173.851 265.224 174.143 265.077ZM195.234 278.341L195.757 278.629L224.009 262.316V256.119L232.915 261.258L199.299 280.641L199.796 280.929L233.91 261.232L223.313 255.108V262.122L195.234 278.341ZM126.581 165.999L107.13 177.23L118.959 184.041L138.405 172.814L126.581 165.999ZM137.409 172.809L118.959 183.48L108.131 177.23L126.581 166.575L137.409 172.809ZM239.217 280.961L238.719 280.672L225.623 288.242L226.147 288.53L239.217 280.961ZM209.257 281.532L239.159 264.244L266.034 279.792H252.413L238.531 271.767L211.19 287.551L211.688 287.839L238.531 272.343L252.151 280.201H267.762L239.159 263.689L208.775 281.243L209.257 281.532ZM256.657 277.754L239.6 267.906L212.626 283.48L213.123 283.768L239.6 268.482L256.159 278.043L256.657 277.754ZM243.466 286.346L226.267 296.273L226.791 296.561L243.99 286.608L243.466 286.346ZM241.37 301.224L270.382 284.46H260.119L236.247 298.238L236.744 298.526L260.413 284.863H268.69L240.888 300.915L241.37 301.224ZM161.12 173.134L143.24 183.454V171.096L126.602 161.488L98.5807 177.665L135.34 198.887L181.409 172.29L85.1802 116.729L84.6826 117.017L180.408 172.29L135.34 198.337L99.5812 177.665L126.602 162.059L142.533 171.258V184.439L162.115 173.134L74.5563 122.581L0 165.621L0.523864 165.91L74.5772 123.152L161.12 173.134ZM274.939 284.345L240.296 304.346L240.794 304.634L274.939 284.921L302.516 300.841L338.982 279.787L274.688 242.671L274.19 242.959L337.976 279.787L302.505 300.265L274.939 284.345ZM250.747 287.325L242.313 282.454L226.838 291.391L220.589 287.781L239.448 276.901L248.746 282.27H270.487V281.862H249.008L239.421 276.324L219.572 287.781L226.822 291.972L242.297 283.035L249.736 287.331L230.228 298.547L230.725 298.84L250.747 287.325ZM162.644 259.519L163.168 259.807L197.565 239.947L197.067 239.659L162.644 259.519ZM334.256 79.1421L319.992 70.9017L319.468 71.1898L333.24 79.1421L331.276 80.2789L326.765 77.6596H308.467L316.979 72.7457L321.658 75.4489L322.155 75.1607L316.979 72.1695L306.764 78.0682H326.488L331.291 80.8447L334.256 79.1421ZM305.638 62.6194L286.187 73.8511L298.016 80.6613L317.467 69.4663L305.638 62.6194ZM316.466 69.4297L298.016 80.1008L287.187 73.8511L305.638 63.18L316.466 69.4297ZM290.027 3.07709L219.158 43.9908L229.489 49.9524L300.357 9.03866L290.027 3.07709ZM299.357 9.03866L229.489 49.3762L220.154 43.9908L290.027 3.65334L299.357 9.03866ZM323.302 79.9436H304.543V80.347H323.009L327.1 82.7148L298.188 99.4051L212.359 49.8372L211.861 50.1253L298.188 99.9657L328.101 82.6782L323.302 79.9436ZM306.371 57.6846L278.35 73.8615L294.982 83.4692H316.403L298.518 93.7893L211.976 43.797L286.03 1.06022L285.532 0.772095L210.981 43.797L298.539 94.3499L318.127 83.0868H295.297L279.366 73.8877L306.371 58.2609L342.151 78.8959L297.099 104.916L201.352 49.659L200.855 49.9472L297.078 105.503L343.146 78.8959L306.371 57.6846ZM289.267 7.31515L226.498 43.556L230.243 45.7144L293.013 9.47871L289.267 7.31515ZM292.017 9.47871L230.243 45.1381L227.498 43.5665L289.267 7.8914L292.017 9.47871ZM372.053 139.989C372.483 139.743 372.577 139.365 372.263 139.072L399.535 123.325V108.201L354.483 134.2L354.98 134.488L398.817 109.18V123.157L371.749 138.784C371.23 138.618 370.666 138.661 370.178 138.904C370.064 138.942 369.964 139.015 369.894 139.112C369.824 139.209 369.786 139.327 369.786 139.447C369.786 139.567 369.824 139.684 369.894 139.781C369.964 139.879 370.064 139.951 370.178 139.989C370.469 140.135 370.79 140.21 371.116 140.21C371.441 140.21 371.762 140.135 372.053 139.989ZM393.092 120.564C393.204 120.525 393.301 120.452 393.37 120.356C393.439 120.259 393.476 120.143 393.476 120.024C393.476 119.906 393.439 119.79 393.37 119.693C393.301 119.597 393.204 119.524 393.092 119.485C392.8 119.339 392.479 119.263 392.154 119.263C391.828 119.263 391.507 119.339 391.216 119.485C390.787 119.731 390.692 120.108 391.007 120.402L352.765 142.493C352.244 142.329 351.68 142.374 351.193 142.619C351.081 142.657 350.983 142.73 350.915 142.827C350.846 142.924 350.809 143.04 350.809 143.158C350.809 143.277 350.846 143.393 350.915 143.489C350.983 143.586 351.081 143.659 351.193 143.698C351.484 143.843 351.805 143.919 352.131 143.919C352.456 143.919 352.777 143.843 353.068 143.698C353.498 143.452 353.566 143.074 353.278 142.781L391.546 120.69C392.058 120.847 392.611 120.802 393.092 120.564ZM353.849 72.3685L381.713 56.2807L381.189 55.9926L353.116 72.2009V82.631L286.679 121.02L226.351 86.1881V73.4687L193.217 54.3476L192.693 54.6358L225.644 73.6572V86.3766L286.679 121.617L353.849 82.851V72.3685ZM288.167 115.042L346.677 81.2533L346.185 80.9913L287.669 114.749L288.167 115.042ZM279.193 110.647L279.717 110.359L236.053 85.1822V76.5018L287.193 106.027L287.69 105.739L235.346 75.517V85.3289L279.193 110.647ZM330.605 30.5695L301.594 47.3331H311.867L335.739 33.5502L335.241 33.2621L311.573 46.9088H303.296L331.103 30.8576L330.605 30.5695ZM360.292 43.9332L333.455 59.4291L319.835 51.5711H304.229L332.821 68.0833L363.205 50.5287L362.707 50.2405L332.8 67.528L305.91 52.0007H319.531L333.434 60.0263L360.774 44.2423L360.292 43.9332ZM297.052 47.4274L331.7 27.4263L331.176 27.1382L297.052 46.8511L269.481 30.9309L233.03 51.9902L297.319 89.1007L297.816 88.8126L234.01 51.9902L269.481 31.5072L297.052 47.4274ZM396.476 104.738C396.185 104.592 395.864 104.517 395.538 104.517C395.213 104.517 394.891 104.592 394.6 104.738C394.171 104.984 394.076 105.361 394.391 105.655L339.83 137.165L340.328 137.453L394.904 105.943C395.424 106.107 395.988 106.062 396.476 105.817C396.588 105.778 396.685 105.706 396.754 105.609C396.823 105.512 396.86 105.396 396.86 105.278C396.86 105.159 396.823 105.043 396.754 104.946C396.685 104.85 396.588 104.777 396.476 104.738ZM315.329 54.0228L332.386 63.8662L359.36 48.2918L358.862 47.9879L332.386 63.2743L315.827 53.7504L315.329 54.0228ZM372.719 51.1311L372.221 50.843L338.102 70.5141L348.705 76.638V69.6235L376.747 53.4361L376.223 53.148L347.997 69.4663V75.6636L339.092 70.5245L372.719 51.1311ZM332.769 50.8377L333.266 51.1259L346.363 43.556L345.865 43.2679L332.769 50.8377ZM300.352 19.1754L286.417 27.222L297.864 33.8436L311.804 25.7971L300.352 19.1754ZM310.803 25.7866L297.864 33.2569L287.413 27.2063L300.352 19.736L310.803 25.7866ZM321.244 44.4623L329.678 49.3343L345.137 40.3814L351.423 43.9908L332.564 54.8715L323.261 49.5019H301.499V49.9105H322.978L332.564 55.4477L352.408 43.9908L345.163 39.7999L329.678 48.7423L322.244 44.4466L341.753 33.2307L341.229 32.9426L321.244 44.4623ZM301.096 14.9845L279.167 27.6358L297.125 38.0031L319.049 25.3413L301.096 14.9845ZM318.053 25.3413L297.125 37.4268L280.178 27.6358L301.133 15.5503L318.053 25.3413ZM328.531 45.4472L345.729 35.4938L345.231 35.2056L328.022 45.1591L328.531 45.4472ZM301.976 9.97638L270.513 28.144L296.24 43.0007L327.708 24.8332L301.976 9.97638ZM326.708 24.8332L296.24 42.4245L271.508 28.144L301.976 10.5526L326.708 24.8332ZM389.975 102.056C389.545 102.307 389.451 102.685 389.765 102.973L335.184 134.483L335.681 134.771L390.257 103.261C390.777 103.427 391.341 103.383 391.829 103.14C391.943 103.103 392.042 103.03 392.113 102.933C392.183 102.835 392.221 102.718 392.221 102.598C392.221 102.478 392.183 102.361 392.113 102.264C392.042 102.166 391.943 102.094 391.829 102.056C391.541 101.914 391.223 101.84 390.902 101.84C390.58 101.84 390.263 101.914 389.975 102.056ZM219.274 143.698C219.565 143.843 219.886 143.919 220.211 143.919C220.537 143.919 220.858 143.843 221.149 143.698C221.261 143.659 221.359 143.586 221.427 143.489C221.496 143.393 221.533 143.277 221.533 143.158C221.533 143.04 221.496 142.924 221.427 142.827C221.359 142.73 221.261 142.657 221.149 142.619C220.662 142.374 220.098 142.329 219.577 142.493L181.335 120.402C181.618 120.108 181.55 119.731 181.121 119.485C180.829 119.339 180.508 119.263 180.183 119.263C179.857 119.263 179.536 119.339 179.245 119.485C179.131 119.523 179.032 119.595 178.962 119.693C178.891 119.79 178.853 119.907 178.853 120.027C178.853 120.147 178.891 120.264 178.962 120.362C179.032 120.459 179.131 120.532 179.245 120.569C179.734 120.81 180.297 120.853 180.817 120.69L219.059 142.807C218.776 143.074 218.839 143.452 219.274 143.698ZM232.47 137.165L177.894 105.655C178.177 105.361 178.114 104.984 177.679 104.738C177.388 104.592 177.067 104.517 176.741 104.517C176.416 104.517 176.095 104.592 175.803 104.738C175.691 104.777 175.594 104.85 175.525 104.946C175.456 105.043 175.419 105.159 175.419 105.278C175.419 105.396 175.456 105.512 175.525 105.609C175.594 105.706 175.691 105.778 175.803 105.817C176.291 106.062 176.855 106.107 177.375 105.943L231.983 137.453L232.47 137.165ZM385.852 231.23L340.8 205.226L340.302 205.514L384.149 230.816H359.947L332.879 215.195C333.167 214.901 333.099 214.529 332.669 214.278C332.378 214.132 332.057 214.056 331.731 214.056C331.406 214.056 331.085 214.132 330.794 214.278C330.68 214.316 330.58 214.388 330.51 214.486C330.44 214.583 330.402 214.7 330.402 214.82C330.402 214.94 330.44 215.057 330.51 215.155C330.58 215.252 330.68 215.325 330.794 215.362C331.282 215.606 331.846 215.649 332.365 215.483L359.638 231.23H385.852ZM148.625 88.7393C148.908 88.4459 148.845 88.074 148.411 87.8225C148.119 87.6768 147.798 87.601 147.473 87.601C147.147 87.601 146.826 87.6768 146.535 87.8225C146.424 87.8627 146.327 87.9363 146.259 88.0333C146.191 88.1304 146.154 88.2461 146.154 88.3647C146.154 88.4833 146.191 88.599 146.259 88.6961C146.327 88.7931 146.424 88.8667 146.535 88.9069C147.023 89.1501 147.587 89.1933 148.107 89.0274L169.538 101.422V106.357L150.501 95.3557L150.003 95.6438L170.245 107.331V101.239L148.625 88.7393ZM339.836 194.35L394.38 225.876C394.097 226.17 394.165 226.542 394.595 226.793C394.886 226.939 395.207 227.015 395.533 227.015C395.858 227.015 396.179 226.939 396.471 226.793C396.585 226.755 396.684 226.683 396.754 226.585C396.825 226.488 396.862 226.371 396.862 226.251C396.862 226.131 396.825 226.014 396.754 225.916C396.684 225.819 396.585 225.746 396.471 225.709C395.982 225.465 395.418 225.422 394.899 225.588L340.328 194.078L339.836 194.35ZM138.211 98.0379C138.499 97.7445 138.431 97.3673 138.001 97.1211C137.71 96.9754 137.389 96.8996 137.064 96.8996C136.738 96.8996 136.417 96.9754 136.126 97.1211C136.014 97.1599 135.917 97.2328 135.848 97.3295C135.779 97.4262 135.742 97.542 135.742 97.6607C135.742 97.7794 135.779 97.8951 135.848 97.9919C135.917 98.0886 136.014 98.1614 136.126 98.2003C136.613 98.4452 137.177 98.4903 137.698 98.326L162.162 112.423V121.376L119.63 96.8434L119.106 97.1316L162.864 122.377V112.276L138.211 98.0379ZM152.769 86.3662L174.389 98.8498H184.929L164.687 87.1572L164.189 87.4453L183.227 98.4465H174.677L153.267 86.0833C153.55 85.7899 153.482 85.4127 153.052 85.1665C152.761 85.0208 152.44 84.945 152.114 84.945C151.789 84.945 151.468 85.0208 151.177 85.1665C151.064 85.2054 150.967 85.2782 150.898 85.3749C150.829 85.4716 150.792 85.5874 150.792 85.7061C150.792 85.8248 150.829 85.9406 150.898 86.0373C150.967 86.134 151.064 86.2068 151.177 86.2457C151.669 86.4931 152.24 86.5364 152.764 86.3662H152.769ZM115.381 106.315L137.451 119.055L137.975 118.767L115.879 106.027C116.167 105.733 116.099 105.361 115.669 105.11C115.378 104.964 115.057 104.888 114.731 104.888C114.406 104.888 114.085 104.964 113.794 105.11C113.68 105.148 113.58 105.22 113.51 105.318C113.44 105.415 113.402 105.532 113.402 105.652C113.402 105.772 113.44 105.889 113.51 105.987C113.58 106.084 113.68 106.157 113.794 106.194C114.286 106.442 114.857 106.485 115.381 106.315ZM123.763 94.4599L123.239 94.748L157.636 114.608L158.133 114.32L123.763 94.4599ZM172.786 108.201V123.325L200.027 139.072C199.739 139.365 199.807 139.743 200.236 139.989C200.528 140.135 200.849 140.21 201.174 140.21C201.5 140.21 201.821 140.135 202.112 139.989C202.226 139.951 202.325 139.879 202.396 139.781C202.466 139.684 202.504 139.567 202.504 139.447C202.504 139.327 202.466 139.209 202.396 139.112C202.325 139.015 202.226 138.942 202.112 138.904C201.624 138.661 201.06 138.618 200.54 138.784L173.472 123.157V109.186L217.314 134.494L217.812 134.205L172.786 108.201ZM326.278 203.293C325.987 203.147 325.666 203.071 325.34 203.071C325.015 203.071 324.694 203.147 324.403 203.293C324.289 203.33 324.189 203.403 324.119 203.5C324.049 203.598 324.011 203.715 324.011 203.835C324.011 203.955 324.049 204.072 324.119 204.169C324.189 204.267 324.289 204.339 324.403 204.377C324.891 204.62 325.455 204.663 325.974 204.497L364.216 226.594C363.928 226.882 363.996 227.259 364.426 227.511C364.717 227.656 365.038 227.732 365.363 227.732C365.689 227.732 366.01 227.656 366.301 227.511C366.415 227.473 366.515 227.4 366.585 227.303C366.655 227.206 366.693 227.089 366.693 226.969C366.693 226.848 366.655 226.731 366.585 226.634C366.515 226.537 366.415 226.464 366.301 226.426C365.813 226.183 365.249 226.14 364.73 226.306L326.461 204.209C326.739 203.916 326.671 203.544 326.241 203.293H326.278ZM246.054 128.239C246.345 128.384 246.666 128.46 246.991 128.46C247.317 128.46 247.638 128.384 247.929 128.239C248.043 128.201 248.142 128.128 248.213 128.031C248.283 127.934 248.321 127.817 248.321 127.696C248.321 127.576 248.283 127.459 248.213 127.362C248.142 127.265 248.043 127.192 247.929 127.154C247.441 126.909 246.878 126.864 246.357 127.028L208.089 104.937C208.377 104.644 208.309 104.267 207.88 104.02C207.588 103.875 207.267 103.799 206.942 103.799C206.616 103.799 206.295 103.875 206.004 104.02C205.89 104.058 205.791 104.131 205.72 104.228C205.65 104.325 205.612 104.442 205.612 104.563C205.612 104.683 205.65 104.8 205.72 104.897C205.791 104.994 205.89 105.067 206.004 105.105C206.492 105.348 207.056 105.391 207.576 105.225L245.818 127.317C245.556 127.615 245.603 127.987 246.054 128.239ZM177.103 63.6619L176.579 63.95L204.731 80.1898L205.229 79.9017L177.103 63.6619ZM178.098 70.1054L203.966 85.0408L204.464 84.7527L178.596 69.8173C178.884 69.524 178.816 69.152 178.386 68.9006C178.095 68.7549 177.774 68.679 177.448 68.679C177.123 68.679 176.802 68.7549 176.511 68.9006C176.397 68.9382 176.297 69.0109 176.227 69.1083C176.157 69.2056 176.119 69.3226 176.119 69.4428C176.119 69.5629 176.157 69.6799 176.227 69.7773C176.297 69.8746 176.397 69.9473 176.511 69.985C177.003 70.2324 177.574 70.2756 178.098 70.1054ZM324.366 127.154C324.254 127.193 324.156 127.266 324.088 127.363C324.019 127.459 323.982 127.575 323.982 127.694C323.982 127.812 324.019 127.928 324.088 128.025C324.156 128.122 324.254 128.195 324.366 128.233C324.656 128.383 324.977 128.461 325.304 128.461C325.63 128.461 325.951 128.383 326.241 128.233C326.671 127.987 326.739 127.61 326.451 127.317L364.719 105.225C365.239 105.387 365.801 105.344 366.291 105.105C366.402 105.065 366.499 104.991 366.567 104.894C366.635 104.797 366.672 104.681 366.672 104.563C366.672 104.444 366.635 104.328 366.567 104.231C366.499 104.134 366.402 104.061 366.291 104.02C365.999 103.874 365.677 103.798 365.35 103.798C365.024 103.798 364.702 103.874 364.41 104.02C363.98 104.267 363.886 104.644 364.201 104.937L325.958 127.028C325.432 126.858 324.859 126.904 324.366 127.154ZM332.381 116.043C331.861 115.879 331.297 115.924 330.809 116.169C330.697 116.208 330.6 116.28 330.531 116.377C330.462 116.474 330.425 116.59 330.425 116.708C330.425 116.827 330.462 116.943 330.531 117.04C330.6 117.136 330.697 117.209 330.809 117.248C331.101 117.394 331.422 117.469 331.747 117.469C332.073 117.469 332.394 117.394 332.685 117.248C333.114 117.002 333.183 116.625 332.894 116.331L359.962 100.704H384.165L340.318 126.012L340.815 126.3L385.868 100.301H359.674L332.381 116.043ZM163.142 71.7189L162.618 72.0071L197.015 91.8667L197.512 91.5786L163.142 71.7189ZM168.841 80.3522L193.5 94.6118H211.028L167.296 69.3616L166.798 69.6497L209.325 94.2084H193.793L169.339 80.0641C169.627 79.7707 169.559 79.3935 169.129 79.1473C168.84 78.9976 168.518 78.9194 168.192 78.9194C167.865 78.9194 167.544 78.9976 167.254 79.1473C167.142 79.1862 167.044 79.259 166.976 79.3557C166.907 79.4524 166.87 79.5682 166.87 79.6869C166.87 79.8056 166.907 79.9214 166.976 80.0181C167.044 80.1148 167.142 80.1876 167.254 80.2265C167.746 80.4756 168.316 80.5208 168.841 80.3522ZM353.026 187.828C352.735 187.682 352.414 187.607 352.089 187.607C351.763 187.607 351.442 187.682 351.151 187.828C351.037 187.866 350.938 187.938 350.867 188.036C350.797 188.133 350.759 188.25 350.759 188.37C350.759 188.49 350.797 188.607 350.867 188.705C350.938 188.802 351.037 188.875 351.151 188.912C351.639 189.156 352.203 189.199 352.723 189.033L390.965 211.13C390.677 211.418 390.745 211.795 391.174 212.046C391.465 212.192 391.786 212.268 392.112 212.268C392.437 212.268 392.759 212.192 393.05 212.046C393.164 212.009 393.263 211.936 393.333 211.839C393.404 211.741 393.442 211.624 393.442 211.504C393.442 211.384 393.404 211.267 393.333 211.17C393.263 211.072 393.164 211 393.05 210.962C392.561 210.719 391.998 210.676 391.478 210.841L353.21 188.745C353.519 188.457 353.456 188.08 353.026 187.828ZM131.17 137.045H146.168L189.812 162.237L190.309 161.949L146.462 136.636H129.468L181.812 166.858L182.336 166.57L131.17 137.045ZM399.535 223.325V208.201L372.263 192.459C372.551 192.166 372.483 191.788 372.053 191.537C371.762 191.391 371.441 191.316 371.116 191.316C370.79 191.316 370.469 191.391 370.178 191.537C370.064 191.575 369.964 191.647 369.894 191.745C369.824 191.842 369.786 191.959 369.786 192.079C369.786 192.199 369.824 192.316 369.894 192.414C369.964 192.511 370.064 192.584 370.178 192.621C370.665 192.866 371.229 192.911 371.749 192.747L398.817 208.374V222.345L354.98 197.038L354.483 197.326L399.535 223.325ZM256.269 121.297C255.986 121.591 256.049 121.968 256.484 122.214C256.775 122.36 257.096 122.436 257.421 122.436C257.747 122.436 258.068 122.36 258.359 122.214C258.471 122.175 258.569 122.102 258.637 122.006C258.706 121.909 258.743 121.793 258.743 121.675C258.743 121.556 258.706 121.44 258.637 121.343C258.569 121.247 258.471 121.174 258.359 121.135C257.872 120.89 257.308 120.845 256.787 121.009L216.172 97.5611H191.043L154.713 76.6066L154.189 76.8947L190.723 97.9907H215.837L256.269 121.297ZM186.443 100.301L231.495 126.3L232.019 126.012L188.182 100.704H212.385L239.453 116.331C239.17 116.625 239.233 117.002 239.668 117.248C239.958 117.398 240.279 117.476 240.605 117.476C240.932 117.476 241.253 117.398 241.543 117.248C241.655 117.209 241.753 117.136 241.821 117.04C241.89 116.943 241.927 116.827 241.927 116.708C241.927 116.59 241.89 116.474 241.821 116.377C241.753 116.28 241.655 116.208 241.543 116.169C241.056 115.924 240.492 115.879 239.971 116.043L212.699 100.327L186.443 100.301ZM497.88 200.233L560.649 163.992L556.904 161.834L494.134 198.07L497.88 200.233ZM495.13 198.07L556.904 162.41L559.649 163.982L497.88 199.657L495.13 198.07ZM453.011 130.088L481.263 113.775L480.739 113.487L452.692 129.679H440.58L451.178 135.798L485.292 116.09L484.794 115.802L451.178 135.185L442.272 130.051L453.011 130.088ZM377.397 184.57C377.685 184.276 377.617 183.899 377.187 183.653C376.896 183.507 376.575 183.431 376.249 183.431C375.924 183.431 375.603 183.507 375.312 183.653C375.199 183.692 375.102 183.765 375.033 183.861C374.964 183.958 374.927 184.074 374.927 184.192C374.927 184.311 374.964 184.427 375.033 184.524C375.102 184.62 375.199 184.693 375.312 184.732C375.799 184.977 376.363 185.022 376.883 184.858L421.097 210.412H439.433L467.066 226.363L467.59 226.075L439.752 210.008H421.417L377.397 184.57ZM363.703 165.491L430.16 127.118H448.223L476.297 110.909L475.773 110.621L447.903 126.709H429.867L362.702 165.475L423.717 200.731H445.771L478.68 219.731L479.204 219.443L446.086 200.322H424.031L363.703 165.491ZM433.078 131.136L432.554 130.847L374.065 164.631L374.589 164.92L433.078 131.136ZM483.987 155.38V146.37L470.367 138.512L497.204 123.016L496.707 122.728L469.366 138.512L483.269 146.537V154.395L456.38 138.868L486.282 121.58L485.758 121.292L455.374 138.847L483.987 155.38ZM419.002 159.361L483.285 196.477L519.751 175.418L492.18 159.503L526.326 139.785L525.802 139.496L491.154 159.503L518.73 175.418L483.259 195.901L419.473 159.073L419.002 159.361ZM495.109 141.623L512.307 131.67L511.783 131.382L494.585 141.335L495.109 141.623ZM409.195 259.807L409.693 259.519L375.296 239.659L374.772 239.947L409.195 259.807ZM515.76 133.692L496.329 144.955L488.896 140.665L504.392 131.728L497.141 127.537L477.297 138.994L486.889 144.531V156.952H487.597V144.379L478.298 139.009L497.157 128.129L503.412 131.738L487.932 140.675L496.366 145.542L516.273 133.991L515.76 133.692ZM480.247 148.659L463.693 139.104L490.169 123.817L489.645 123.529L462.666 139.104L479.77 148.947L480.247 148.659ZM515.728 137.453L515.23 137.165L491.358 150.948V156.878L520.37 140.115L519.846 139.826L492.065 155.904V151.126L515.728 137.453ZM208.812 77.2562V87.8382L253.037 113.371C252.749 113.659 252.817 114.037 253.246 114.288C253.537 114.434 253.858 114.51 254.184 114.51C254.509 114.51 254.83 114.434 255.122 114.288C255.236 114.25 255.335 114.178 255.405 114.08C255.476 113.983 255.514 113.866 255.514 113.746C255.514 113.626 255.476 113.509 255.405 113.411C255.335 113.314 255.236 113.241 255.122 113.204C254.633 112.961 254.07 112.917 253.55 113.083L209.545 87.6706V77.0886L181.692 61.0164L181.194 61.3045L208.812 77.2562ZM419.526 245.165L397.906 232.681H387.371L407.613 244.369L408.137 244.081L389.1 233.079H397.644L419.06 245.443C418.771 245.736 418.839 246.108 419.269 246.359C419.56 246.505 419.881 246.581 420.207 246.581C420.532 246.581 420.853 246.505 421.145 246.359C421.259 246.322 421.358 246.249 421.428 246.152C421.499 246.054 421.536 245.937 421.536 245.817C421.536 245.697 421.499 245.58 421.428 245.483C421.358 245.385 421.259 245.313 421.145 245.275C420.896 245.15 420.624 245.076 420.346 245.057C420.068 245.038 419.789 245.075 419.526 245.165ZM182.032 103.261L236.608 134.771L237.106 134.483L182.53 102.994C182.818 102.705 182.75 102.328 182.32 102.077C182.029 101.931 181.708 101.855 181.383 101.855C181.057 101.855 180.736 101.931 180.445 102.077C180.331 102.115 180.232 102.187 180.161 102.285C180.091 102.382 180.053 102.499 180.053 102.619C180.053 102.739 180.091 102.856 180.161 102.954C180.232 103.051 180.331 103.124 180.445 103.161C180.94 103.402 181.511 103.437 182.032 103.261ZM390.263 228.265L335.708 196.765L335.21 197.053L389.786 228.564C389.498 228.857 389.566 229.234 389.996 229.48C390.287 229.626 390.608 229.702 390.933 229.702C391.259 229.702 391.58 229.626 391.871 229.48C391.985 229.443 392.084 229.37 392.155 229.273C392.225 229.175 392.263 229.058 392.263 228.938C392.263 228.818 392.225 228.701 392.155 228.604C392.084 228.506 391.985 228.434 391.871 228.396C391.625 228.269 391.356 228.192 391.08 228.17C390.804 228.147 390.526 228.18 390.263 228.265ZM403.454 251.179L378.795 236.94H361.293L405.03 262.191L405.528 261.902L362.996 237.349H378.502L402.956 251.467C402.673 251.76 402.736 252.138 403.171 252.384C403.462 252.529 403.783 252.605 404.108 252.605C404.434 252.605 404.755 252.529 405.046 252.384C405.16 252.346 405.259 252.273 405.33 252.176C405.4 252.079 405.438 251.962 405.438 251.842C405.438 251.721 405.4 251.604 405.33 251.507C405.259 251.41 405.16 251.337 405.046 251.299C404.552 251.051 403.98 251.007 403.454 251.179ZM316.026 210.228C316.314 209.935 316.246 209.563 315.816 209.312C315.525 209.166 315.204 209.09 314.879 209.09C314.553 209.09 314.232 209.166 313.941 209.312C313.827 209.349 313.728 209.422 313.657 209.519C313.587 209.617 313.549 209.734 313.549 209.854C313.549 209.974 313.587 210.091 313.657 210.188C313.728 210.286 313.827 210.358 313.941 210.396C314.429 210.639 314.993 210.683 315.513 210.517L356.138 233.96H381.252L417.582 254.914L418.106 254.626L381.546 233.556H356.432L316.026 210.228ZM423.67 242.771C423.387 243.064 423.455 243.441 423.884 243.688C424.174 243.837 424.496 243.916 424.822 243.916C425.148 243.916 425.47 243.837 425.76 243.688C425.872 243.649 425.969 243.576 426.038 243.479C426.107 243.383 426.144 243.267 426.144 243.148C426.144 243.029 426.107 242.914 426.038 242.817C425.969 242.72 425.872 242.647 425.76 242.609C425.272 242.364 424.708 242.318 424.188 242.483L402.762 230.12V225.19L421.799 236.191L422.323 235.903L402.076 224.216V230.292L423.67 242.771ZM456.573 230.292L426.467 212.905L425.943 213.194L456.055 230.581C455.772 230.874 455.835 231.246 456.27 231.497C456.561 231.643 456.882 231.719 457.207 231.719C457.533 231.719 457.854 231.643 458.145 231.497C458.257 231.457 458.353 231.384 458.421 231.287C458.489 231.189 458.526 231.074 458.526 230.955C458.526 230.837 458.489 230.721 458.421 230.624C458.353 230.527 458.257 230.453 458.145 230.413C457.657 230.17 457.093 230.127 456.573 230.292ZM361.576 181.809C361.462 181.847 361.363 181.919 361.292 182.017C361.222 182.114 361.184 182.231 361.184 182.351C361.184 182.471 361.222 182.588 361.292 182.686C361.363 182.783 361.462 182.856 361.576 182.893C362.064 183.136 362.628 183.18 363.148 183.014L403.553 206.341V220.863L440.093 241.959L440.617 241.671L404.287 220.716V206.195L363.661 182.726C363.949 182.432 363.881 182.06 363.451 181.809C363.16 181.663 362.839 181.587 362.514 181.587C362.188 181.587 361.867 181.663 361.576 181.809ZM434.089 233.493C433.806 233.787 433.869 234.159 434.304 234.41C434.595 234.556 434.916 234.632 435.242 234.632C435.567 234.632 435.888 234.556 436.179 234.41C436.293 234.372 436.393 234.3 436.463 234.202C436.533 234.105 436.571 233.988 436.571 233.868C436.571 233.748 436.533 233.631 436.463 233.533C436.393 233.436 436.293 233.363 436.179 233.326C435.691 233.082 435.127 233.039 434.608 233.205L410.159 219.087V210.134L452.686 234.688L453.21 234.4L409.478 209.149V219.255L434.089 233.493ZM456.914 225.211L434.849 212.481L434.325 212.769L456.395 225.51C456.107 225.803 456.175 226.18 456.605 226.426C456.897 226.573 457.219 226.649 457.545 226.649C457.872 226.649 458.194 226.573 458.485 226.426C458.598 226.388 458.695 226.315 458.764 226.218C458.833 226.121 458.87 226.005 458.87 225.887C458.87 225.768 458.833 225.652 458.764 225.556C458.695 225.459 458.598 225.386 458.485 225.347C457.999 225.099 457.436 225.05 456.914 225.211ZM448.532 237.071L449.056 236.783L414.654 216.923L414.156 217.212L448.532 237.071ZM484.804 138.585L485.328 138.873L498.425 131.303L497.901 131.015L484.804 138.585ZM407.613 87.1572L387.371 98.8446H397.911L419.526 86.3662C420.046 86.5305 420.61 86.4854 421.097 86.2404C421.21 86.2016 421.307 86.1288 421.376 86.032C421.445 85.9353 421.482 85.8196 421.482 85.7009C421.482 85.5822 421.445 85.4664 421.376 85.3697C421.307 85.273 421.21 85.2001 421.097 85.1613C420.806 85.0156 420.485 84.9398 420.16 84.9398C419.834 84.9398 419.513 85.0156 419.222 85.1613C418.792 85.4075 418.698 85.7847 419.012 86.0781L397.597 98.4412H389.074L408.111 87.4401L407.613 87.1572ZM440.81 194.722H425.812L382.174 169.524L381.65 169.812L425.498 195.125H442.492L390.189 164.904L389.666 165.192L440.81 194.722ZM414.617 114.608L449.019 94.748L448.495 94.4599L414.099 114.32L414.617 114.608ZM403.553 125.184L363.142 148.512C362.622 148.348 362.058 148.393 361.571 148.638C361.459 148.677 361.361 148.75 361.292 148.846C361.224 148.943 361.187 149.059 361.187 149.177C361.187 149.296 361.224 149.412 361.292 149.509C361.361 149.605 361.459 149.678 361.571 149.717C361.862 149.863 362.183 149.939 362.508 149.939C362.834 149.939 363.155 149.863 363.446 149.717C363.876 149.471 363.944 149.094 363.656 148.8L404.271 125.352V110.852L440.601 89.897L440.077 89.6089L403.543 110.7L403.553 125.184ZM356.138 97.5611L315.523 121.009C315.003 120.845 314.439 120.89 313.951 121.135C313.839 121.174 313.742 121.247 313.673 121.343C313.604 121.44 313.567 121.556 313.567 121.675C313.567 121.793 313.604 121.909 313.673 122.006C313.742 122.102 313.839 122.175 313.951 122.214C314.243 122.36 314.564 122.436 314.889 122.436C315.215 122.436 315.536 122.36 315.827 122.214C316.257 121.968 316.351 121.591 316.036 121.297L356.442 97.9698H381.546L418.085 76.8738L417.561 76.5856L381.226 97.5402L356.138 97.5611ZM391.2 67.3394C391.314 67.3018 391.414 67.2291 391.484 67.1317C391.554 67.0344 391.592 66.9174 391.592 66.7972C391.592 66.6771 391.554 66.5601 391.484 66.4627C391.414 66.3654 391.314 66.2927 391.2 66.255C390.909 66.1094 390.588 66.0335 390.263 66.0335C389.937 66.0335 389.616 66.1094 389.325 66.255C388.89 66.5013 388.801 66.8784 389.11 67.1718L367.04 79.9122L367.564 80.2003L389.634 67.4599C390.154 67.6231 390.717 67.5799 391.206 67.3394H391.2ZM362.776 77.0886V87.6706L318.771 113.083C318.251 112.917 317.688 112.961 317.199 113.204C317.085 113.241 316.986 113.314 316.916 113.411C316.845 113.509 316.808 113.626 316.808 113.746C316.808 113.866 316.845 113.983 316.916 114.08C316.986 114.178 317.085 114.25 317.199 114.288C317.491 114.434 317.812 114.51 318.137 114.51C318.463 114.51 318.784 114.434 319.075 114.288C319.51 114.037 319.573 113.659 319.29 113.371L363.472 87.8382V77.2562L391.101 61.3045L390.577 61.0164L362.776 77.0886ZM410.138 112.423L434.592 98.305C435.112 98.4693 435.676 98.4242 436.164 98.1793C436.276 98.1405 436.373 98.0676 436.442 97.9709C436.511 97.8742 436.548 97.7584 436.548 97.6397C436.548 97.521 436.511 97.4052 436.442 97.3085C436.373 97.2118 436.276 97.139 436.164 97.1001C435.873 96.9545 435.551 96.8786 435.226 96.8786C434.9 96.8786 434.579 96.9545 434.288 97.1001C433.853 97.3464 433.764 97.7235 434.073 98.0169L409.415 112.25V122.377L453.147 97.1263L452.623 96.8382L410.096 121.397L410.138 112.423ZM368.329 85.0198L398.44 67.6328C398.96 67.7987 399.524 67.7555 400.012 67.5123C400.126 67.4746 400.225 67.402 400.296 67.3046C400.366 67.2073 400.404 67.0902 400.404 66.9701C400.404 66.85 400.366 66.733 400.296 66.6356C400.225 66.5383 400.126 66.4656 400.012 66.4279C399.721 66.2822 399.4 66.2064 399.074 66.2064C398.749 66.2064 398.428 66.2822 398.136 66.4279C397.707 66.6794 397.613 67.0566 397.927 67.3447L367.815 84.7317L368.329 85.0198ZM378.806 94.5646L403.469 80.3313C403.99 80.4955 404.553 80.4504 405.041 80.2055C405.155 80.1679 405.254 80.0952 405.325 79.9978C405.395 79.9005 405.433 79.7834 405.433 79.6633C405.433 79.5432 405.395 79.4262 405.325 79.3288C405.254 79.2315 405.155 79.1588 405.041 79.1211C404.75 78.9755 404.429 78.8996 404.103 78.8996C403.778 78.8996 403.457 78.9755 403.166 79.1211C402.736 79.3726 402.668 79.7498 402.951 80.0431L378.502 94.1875H362.996L405.528 69.6287L405.03 69.3406L361.293 94.6118L378.806 94.5646ZM375.265 91.8458L409.667 71.9861L409.143 71.698L374.746 91.5577L375.265 91.8458ZM422.307 95.6124L421.81 95.3295L402.767 106.331V101.422L424.183 89.0588C424.702 89.2247 425.266 89.1815 425.755 88.9383C425.869 88.9007 425.968 88.828 426.038 88.7307C426.109 88.6333 426.146 88.5163 426.146 88.3961C426.146 88.276 426.109 88.159 426.038 88.0616C425.968 87.9643 425.869 87.8916 425.755 87.8539C425.463 87.7083 425.142 87.6324 424.817 87.6324C424.491 87.6324 424.17 87.7083 423.879 87.8539C423.449 88.1054 423.355 88.4773 423.67 88.7707L402.044 101.254V107.342L422.307 95.6124ZM410.866 158.638L428.746 148.318V160.681L445.378 170.289L473.4 154.107L436.646 132.885L390.577 159.487L486.806 215.043L487.329 214.755L391.572 159.487L436.625 133.462L472.384 154.107L445.357 169.713L429.479 160.514V147.333L409.892 158.638L497.456 209.196L571.97 166.151L571.472 165.862L497.43 208.62L410.866 158.638ZM445.405 165.773L464.85 154.542L453.027 147.732L433.576 158.963L445.405 165.773ZM434.576 158.963L453.053 148.292L463.881 154.542L445.405 165.197L434.576 158.963ZM436.237 138.035L433.272 139.748L438.081 142.524V153.903L448.296 148.009L443.1 145.002L442.576 145.29L447.291 147.993L438.778 152.907V142.336L434.262 139.716L436.237 138.616L450.009 146.574L450.533 146.286L436.237 138.035ZM434.194 144.515V155.176H434.901V144.347L430.103 141.576L400.19 158.864L486.523 208.704L487.02 208.416L401.191 158.843L430.103 142.152L434.194 144.515ZM497.12 204.471L567.989 163.557L557.658 157.596L486.79 198.51L497.12 204.471ZM487.79 198.51L557.658 158.172L566.993 163.557L497.12 203.895L487.79 198.51ZM453.923 103.549C454.037 103.511 454.136 103.439 454.206 103.341C454.277 103.244 454.315 103.127 454.315 103.007C454.315 102.887 454.277 102.77 454.206 102.672C454.136 102.575 454.037 102.502 453.923 102.465C453.632 102.319 453.31 102.243 452.985 102.243C452.659 102.243 452.338 102.319 452.047 102.465C451.618 102.716 451.523 103.088 451.832 103.381L425.964 118.317L426.488 118.605L452.356 103.669C452.874 103.834 453.436 103.791 453.923 103.549ZM434.849 119.055L462.996 102.815L462.472 102.527L434.32 118.767L434.849 119.055ZM421.097 121.114L376.878 146.647C376.358 146.481 375.795 146.524 375.306 146.768C375.192 146.805 375.093 146.878 375.023 146.975C374.952 147.073 374.914 147.19 374.914 147.31C374.914 147.43 374.952 147.547 375.023 147.644C375.093 147.742 375.192 147.814 375.306 147.852C375.598 147.998 375.919 148.074 376.244 148.074C376.57 148.074 376.891 147.998 377.182 147.852C377.611 147.601 377.706 147.229 377.391 146.935L421.396 121.523H439.731L467.569 105.451L467.045 105.162L439.433 121.114H421.097ZM526.169 165.642L540.109 157.596L528.662 150.985L514.743 159.047L526.169 165.642ZM515.691 159.031L528.636 151.561L539.113 157.596L526.169 165.066L515.691 159.031ZM524.519 174.826L555.987 156.658L530.26 141.801L498.839 159.969L524.519 174.826ZM499.834 159.969L530.307 142.378L555.039 156.658L524.566 174.239L499.834 159.969ZM525.451 169.828L547.38 157.166L529.422 146.799L507.493 159.461L525.451 169.828ZM508.494 159.461L529.422 147.375L546.379 157.166L525.451 169.252L508.494 159.461ZM292.787 221.13L292.29 221.418L335.933 246.616V255.27L284.793 225.745L284.296 226.033L336.64 256.255V246.443L292.787 221.13ZM195.108 183.669C194.678 183.915 194.584 184.292 194.898 184.585L150.894 209.998H132.558L104.72 226.102L105.244 226.384L132.873 210.433H151.208L195.427 184.905C195.948 185.069 196.511 185.024 196.999 184.779C197.111 184.74 197.208 184.668 197.277 184.571C197.346 184.474 197.383 184.358 197.383 184.24C197.383 184.121 197.346 184.005 197.277 183.908C197.208 183.812 197.111 183.739 196.999 183.7C196.708 183.547 196.386 183.464 196.057 183.459C195.729 183.453 195.403 183.525 195.108 183.669ZM75.6669 186.812L83.1005 191.102L67.6256 200.039L74.8706 204.23L94.7303 192.773L85.1174 187.236V174.836H84.4102V187.409L93.7087 192.779L74.8496 203.659L68.5999 200.05L84.0906 191.107L75.6512 186.241L55.7443 197.766L56.2682 198.054L75.6669 186.812ZM119.64 234.682L162.172 210.129V219.082L137.687 233.205C137.168 233.039 136.604 233.082 136.116 233.326C136.001 233.363 135.902 233.436 135.832 233.533C135.761 233.631 135.724 233.748 135.724 233.868C135.724 233.988 135.761 234.105 135.832 234.202C135.902 234.3 136.001 234.372 136.116 234.41C136.407 234.556 136.728 234.632 137.053 234.632C137.379 234.632 137.7 234.556 137.991 234.41C138.421 234.159 138.515 233.787 138.2 233.493L162.859 219.255V209.149L119.127 234.4L119.64 234.682ZM56.2525 194.314L56.7763 194.602L80.6488 180.819V174.894L51.6372 191.658L52.1611 191.946L79.9678 175.894V180.672L56.2525 194.314ZM123.758 237.071L158.154 217.196L157.657 216.908L123.26 236.783L123.758 237.071ZM118.372 227.982C118.261 228.022 118.164 228.096 118.096 228.193C118.028 228.29 117.991 228.406 117.991 228.524C117.991 228.643 118.028 228.759 118.096 228.856C118.164 228.953 118.261 229.026 118.372 229.067C118.663 229.212 118.984 229.288 119.31 229.288C119.635 229.288 119.957 229.212 120.248 229.067C120.682 228.815 120.745 228.438 120.462 228.145L146.331 213.215L145.807 212.926L119.939 227.856C119.42 227.694 118.858 227.739 118.372 227.982ZM87.1762 193.182L86.6523 192.894L73.5557 200.458L74.0796 200.747L87.1762 193.182ZM87.9934 176.418V185.429L101.614 193.287L74.7763 208.783L75.274 209.071L102.588 193.287L88.7006 185.24V177.382L115.591 192.91L85.6831 210.197L86.207 210.485L116.591 192.931L87.9934 176.418ZM53.2455 156.354L88.7163 135.871L152.502 172.699L153.026 172.411L88.7163 135.295L52.2449 156.354L79.8211 172.275L45.6704 191.988L46.1943 192.276L80.8374 172.275L53.2455 156.354ZM131.401 202.093L120.808 195.974L86.689 215.671L87.2128 215.96L120.834 196.55L129.74 201.684H118.969L90.7175 217.997L91.2413 218.286L119.284 202.093H131.401ZM76.9189 190.154L59.7152 200.081L60.2391 200.369L77.4375 190.442L76.9189 190.154ZM91.7338 183.113L108.293 192.669L81.817 207.955L82.3409 208.243L109.315 192.669L92.2367 182.825L91.7338 183.113ZM239.914 215.483C240.433 215.649 240.997 215.606 241.485 215.362C241.597 215.322 241.694 215.249 241.762 215.152C241.83 215.054 241.867 214.939 241.867 214.82C241.867 214.702 241.83 214.586 241.762 214.489C241.694 214.392 241.597 214.318 241.485 214.278C241.194 214.131 240.872 214.055 240.545 214.055C240.219 214.055 239.897 214.131 239.605 214.278C239.175 214.529 239.107 214.901 239.395 215.195L212.348 230.816H188.146L231.983 205.514L231.459 205.226L186.406 231.23H212.6L239.914 215.483ZM153.052 246.391C153.482 246.139 153.576 245.767 153.262 245.474L174.677 233.111H183.221L164.184 244.112L164.682 244.4L184.924 232.713H174.384L152.764 245.196C152.244 245.03 151.681 245.074 151.192 245.317C151.078 245.355 150.979 245.427 150.909 245.525C150.838 245.622 150.8 245.739 150.8 245.859C150.8 245.979 150.838 246.096 150.909 246.194C150.979 246.291 151.078 246.364 151.192 246.401C151.484 246.54 151.803 246.609 152.126 246.603C152.448 246.598 152.765 246.518 153.052 246.37V246.391ZM109.797 229.014L137.949 212.774L137.425 212.486L109.299 228.721L109.797 229.014ZM258.359 210.386C258.471 210.345 258.567 210.272 258.635 210.175C258.704 210.078 258.74 209.962 258.74 209.843C258.74 209.725 258.704 209.609 258.635 209.512C258.567 209.415 258.471 209.341 258.359 209.301C258.068 209.156 257.747 209.08 257.421 209.08C257.096 209.08 256.775 209.156 256.484 209.301C256.049 209.553 255.986 209.925 256.269 210.218L215.863 233.546H190.749L154.215 254.652L154.739 254.94L191.069 233.986H216.183L256.793 210.538C257.315 210.692 257.877 210.638 258.359 210.386ZM148.122 242.488C147.603 242.322 147.039 242.365 146.551 242.609C146.437 242.646 146.338 242.719 146.267 242.816C146.197 242.914 146.159 243.031 146.159 243.151C146.159 243.271 146.197 243.388 146.267 243.485C146.338 243.583 146.437 243.655 146.551 243.693C146.842 243.839 147.163 243.914 147.489 243.914C147.814 243.914 148.135 243.839 148.426 243.693C148.861 243.441 148.95 243.064 148.641 242.771L170.245 230.292V224.205L149.998 235.893L150.522 236.181L169.559 225.18V230.109L148.122 242.488ZM246.054 203.293C245.624 203.544 245.556 203.916 245.844 204.209L207.602 226.306C207.082 226.14 206.519 226.183 206.03 226.426C205.916 226.464 205.817 226.537 205.747 226.634C205.676 226.731 205.638 226.848 205.638 226.969C205.638 227.089 205.676 227.206 205.747 227.303C205.817 227.4 205.916 227.473 206.03 227.511C206.321 227.656 206.643 227.732 206.968 227.732C207.294 227.732 207.615 227.656 207.906 227.511C208.335 227.259 208.403 226.882 208.115 226.594L246.384 204.497C246.903 204.663 247.467 204.62 247.955 204.377C248.069 204.339 248.168 204.267 248.239 204.169C248.309 204.072 248.347 203.955 248.347 203.835C248.347 203.715 248.309 203.598 248.239 203.5C248.168 203.403 248.069 203.33 247.955 203.293C247.661 203.143 247.335 203.064 247.004 203.064C246.674 203.064 246.348 203.143 246.054 203.293ZM179.203 210.962C179.089 211 178.99 211.072 178.92 211.17C178.849 211.267 178.811 211.384 178.811 211.504C178.811 211.624 178.849 211.741 178.92 211.839C178.99 211.936 179.089 212.009 179.203 212.046C179.494 212.192 179.815 212.268 180.141 212.268C180.467 212.268 180.788 212.192 181.079 212.046C181.508 211.795 181.576 211.423 181.294 211.13L219.536 189.033C220.055 189.199 220.619 189.156 221.107 188.912C221.219 188.872 221.315 188.799 221.383 188.702C221.452 188.605 221.488 188.489 221.488 188.37C221.488 188.252 221.452 188.136 221.383 188.039C221.315 187.942 221.219 187.868 221.107 187.828C220.816 187.682 220.495 187.607 220.169 187.607C219.844 187.607 219.523 187.682 219.232 187.828C218.797 188.08 218.708 188.457 219.017 188.745L180.749 210.841C180.237 210.683 179.684 210.726 179.203 210.962ZM208.843 181.809C208.414 182.06 208.32 182.432 208.634 182.726L168.019 206.195V220.695L131.689 241.65L132.213 241.938L168.726 220.863V206.341L209.132 183.014C209.651 183.18 210.215 183.136 210.703 182.893C210.817 182.856 210.917 182.783 210.987 182.686C211.057 182.588 211.095 182.471 211.095 182.351C211.095 182.231 211.057 182.114 210.987 182.017C210.917 181.919 210.817 181.847 210.703 181.809C210.414 181.666 210.096 181.591 209.773 181.591C209.451 181.591 209.133 181.666 208.843 181.809ZM200.242 191.527C199.812 191.773 199.744 192.15 200.032 192.443L172.786 208.201V223.33L217.838 197.326L217.341 197.038L173.504 222.345V208.374L200.551 192.747C201.071 192.911 201.635 192.866 202.122 192.621C202.235 192.583 202.332 192.51 202.401 192.413C202.469 192.316 202.506 192.201 202.506 192.082C202.506 191.963 202.469 191.847 202.401 191.751C202.332 191.654 202.235 191.581 202.122 191.542C201.833 191.389 201.511 191.308 201.184 191.305C200.857 191.302 200.533 191.378 200.242 191.527ZM236.608 196.765L182.032 228.265C181.512 228.101 180.948 228.146 180.461 228.391C180.348 228.43 180.251 228.503 180.182 228.599C180.113 228.696 180.076 228.812 180.076 228.93C180.076 229.049 180.113 229.165 180.182 229.262C180.251 229.358 180.348 229.431 180.461 229.47C180.752 229.616 181.073 229.692 181.398 229.692C181.724 229.692 182.045 229.616 182.336 229.47C182.766 229.224 182.86 228.847 182.546 228.553L237.122 197.043L236.608 196.765ZM231.983 194.078L177.391 225.578C176.871 225.412 176.307 225.455 175.819 225.698C175.705 225.736 175.606 225.809 175.535 225.906C175.465 226.003 175.427 226.12 175.427 226.24C175.427 226.36 175.465 226.478 175.535 226.575C175.606 226.672 175.705 226.745 175.819 226.783C176.11 226.928 176.431 227.004 176.757 227.004C177.082 227.004 177.403 226.928 177.695 226.783C178.129 226.531 178.192 226.159 177.909 225.866L232.485 194.355L231.983 194.078ZM195.412 146.647L151.192 121.114H132.857L105.208 105.162L104.684 105.451L132.553 121.523H150.888L194.893 146.935C194.61 147.229 194.673 147.601 195.108 147.852C195.399 147.998 195.72 148.074 196.045 148.074C196.371 148.074 196.692 147.998 196.983 147.852C197.095 147.812 197.191 147.738 197.26 147.641C197.328 147.544 197.364 147.428 197.364 147.31C197.364 147.191 197.328 147.076 197.26 146.978C197.191 146.881 197.095 146.808 196.983 146.768C196.491 146.52 195.92 146.477 195.396 146.647H195.412ZM93.3001 112.041L92.8024 112.329L125.921 131.45H147.955L208.283 166.282L141.826 204.655H123.763L95.6837 220.863L96.2076 221.151L124.067 205.063H142.129L209.299 166.297L148.243 131.041H126.214L93.3001 112.041ZM218.137 259.383L190.267 275.47L190.791 275.759L218.865 259.55V249.12L285.301 210.752L345.661 245.584V258.303L378.753 277.44L379.277 277.152L346.342 258.136V245.416L285.301 210.176L218.137 248.942V259.383ZM209.519 243.861L253.524 218.448C254.044 218.611 254.606 218.568 255.095 218.327C255.209 218.29 255.309 218.217 255.379 218.12C255.449 218.022 255.487 217.905 255.487 217.785C255.487 217.665 255.449 217.548 255.379 217.451C255.309 217.353 255.209 217.281 255.095 217.243C254.804 217.097 254.483 217.022 254.158 217.022C253.832 217.022 253.511 217.097 253.22 217.243C252.79 217.489 252.722 217.866 253.01 218.16L208.786 243.693V254.275L181.168 270.227L181.665 270.515L209.504 254.443L209.519 243.861ZM265.573 274.087L293.594 257.911L276.956 248.303H255.556L273.436 237.983L359.999 287.959L285.941 330.712L286.464 331L361.015 287.959L273.452 237.407L253.87 248.712H276.694L292.625 257.911L265.594 273.511L229.835 252.866L274.887 226.845L370.618 282.113L371.142 281.825L274.913 226.295L228.839 252.866L265.573 274.087ZM283.845 216.735L225.309 250.519L225.806 250.807L284.317 217.023L283.845 216.735ZM317.199 217.259C317.085 217.296 316.986 217.369 316.916 217.466C316.845 217.564 316.808 217.681 316.808 217.801C316.808 217.921 316.845 218.038 316.916 218.135C316.986 218.233 317.085 218.305 317.199 218.343C317.688 218.584 318.251 218.627 318.771 218.464L362.776 243.876V254.458L390.614 270.53L391.138 270.242L363.472 254.275V243.693L319.253 218.16C319.536 217.866 319.473 217.489 319.038 217.243C318.748 217.099 318.429 217.024 318.106 217.024C317.782 217.024 317.463 217.099 317.173 217.243L317.199 217.259ZM395.224 267.885L395.748 267.597L367.6 251.357L367.077 251.645L395.224 267.885ZM114.113 100.018C114.001 100.057 113.904 100.13 113.835 100.226C113.766 100.323 113.729 100.439 113.729 100.558C113.729 100.676 113.766 100.792 113.835 100.889C113.904 100.986 114.001 101.058 114.113 101.097C114.601 101.342 115.165 101.387 115.685 101.223L145.796 118.605L146.32 118.317L116.209 100.935C116.497 100.641 116.429 100.264 115.999 100.018C115.707 99.8707 115.384 99.7939 115.056 99.7939C114.729 99.7939 114.406 99.8707 114.113 100.018ZM210.698 149.717C210.81 149.678 210.907 149.605 210.976 149.509C211.045 149.412 211.082 149.296 211.082 149.177C211.082 149.059 211.045 148.943 210.976 148.846C210.907 148.75 210.81 148.677 210.698 148.638C210.21 148.393 209.647 148.348 209.126 148.512L168.721 125.184V110.689L132.187 89.5932L131.663 89.8813L167.993 110.836V125.331L208.608 148.779C208.32 149.073 208.388 149.45 208.817 149.696C209.109 149.853 209.434 149.938 209.766 149.941C210.097 149.945 210.424 149.868 210.719 149.717H210.698ZM266.322 269.158L285.773 257.926L273.949 251.116L254.509 262.327L266.322 269.158ZM255.494 262.348L273.949 251.692L284.778 257.942L266.322 268.597L255.494 262.348ZM394.176 261.447L368.308 246.511L367.81 246.799L393.699 261.724C393.411 262.012 393.479 262.39 393.909 262.641C394.2 262.787 394.521 262.863 394.847 262.863C395.172 262.863 395.493 262.787 395.784 262.641C395.898 262.603 395.998 262.531 396.068 262.433C396.138 262.336 396.176 262.219 396.176 262.099C396.176 261.979 396.138 261.862 396.068 261.764C395.998 261.667 395.898 261.594 395.784 261.557C395.293 261.306 394.723 261.259 394.197 261.426L394.176 261.447ZM46.5348 161.944L24.6059 174.606L42.5639 184.973L64.4876 172.311L46.5348 161.944ZM63.4923 172.311L42.5639 184.397L25.5803 174.606L46.5348 162.52L63.4923 172.311ZM274.122 297.955L260.182 306.001L271.629 312.612L285.569 304.566L274.122 297.955ZM284.573 304.566L271.629 312.015L261.177 305.98L274.122 298.51L284.573 304.566ZM47.4149 156.952L15.9464 175.119L41.6786 189.955L73.1471 171.787L47.4149 156.952ZM72.1465 171.808L41.6786 189.4L16.947 175.119L47.4149 157.528L72.1465 171.808ZM74.1058 131.544L11.3364 167.785L15.082 169.949L77.8514 133.708L74.1058 131.544ZM76.856 133.708L15.103 169.367L12.3527 167.796L74.1267 132.131L76.856 133.708ZM74.8601 127.306L3.99708 168.215L14.3277 174.176L85.1907 133.262L74.8601 127.306ZM84.1954 133.268L14.3277 173.605L4.99242 168.215L74.8601 127.877L84.1954 133.268ZM45.7909 166.135L31.8666 174.176L43.313 180.787L57.2531 172.741L45.7909 166.135ZM56.2682 172.746L43.3288 180.216L32.8515 174.181L45.7909 166.711L56.2682 172.746ZM237.745 252.63L252.015 260.87L252.539 260.582L238.761 252.63L240.726 251.493L245.242 254.113H263.545L255.033 259.026L250.318 256.313L249.82 256.601L254.996 259.592L265.211 253.693H245.498L240.689 250.917L237.745 252.63ZM248.699 251.844H267.453V251.441H248.977L244.88 249.078L273.792 232.388L359.622 281.94L360.146 281.652L273.813 231.812L243.906 249.099L248.699 251.844ZM342.518 281.82L271.65 322.733L281.98 328.695L352.848 287.781L342.518 281.82ZM351.848 287.781L281.98 328.119L272.65 322.733L342.518 282.396L351.848 287.781ZM275.767 288.771L244.299 306.939L270.026 321.796L301.473 303.633L275.767 288.771ZM300.478 303.633L270.005 321.225L245.273 306.944L275.746 289.353L300.478 303.633ZM274.861 293.774L252.937 306.431L270.895 316.798L292.819 304.157L274.861 293.774ZM291.818 304.157L270.864 316.243L253.932 306.431L274.887 294.345L291.818 304.157ZM341.737 286.079L278.968 322.299L282.713 324.457L345.483 288.216L341.737 286.079ZM344.488 288.237L282.713 323.881L279.968 322.309L341.737 286.644L344.488 288.237Z" fill="url(#paint0_radial_12_1348)"/>
<defs>
<radialGradient id="paint0_radial_12_1348" cx="0" cy="0" r="1" gradientUnits="userSpaceOnUse" gradientTransform="translate(285.993 165.889) scale(229.541 229.541)">
<stop offset="0.14" stop-color="white"/>
<stop offset="0.15" stop-color="#FCFCFC" stop-opacity="0.99"/>
<stop offset="0.35" stop-color="#A4A4A4" stop-opacity="0.64"/>
<stop offset="0.53" stop-color="#5E5E5E" stop-opacity="0.37"/>
<stop offset="0.68" stop-color="#2B2B2B" stop-opacity="0.17"/>
<stop offset="0.79" stop-color="#0C0C0C" stop-opacity="0.05"/>
<stop offset="0.86" stop-opacity="0"/>
</radialGradient>
</defs>
</svg>
