<svg width="794" height="459" viewBox="0 0 794 459" fill="none" xmlns="http://www.w3.org/2000/svg">
<path style="mix-blend-mode:color-dodge" d="M157.312 228.992L113.163 203.503L112.472 203.903L156.614 229.392L157.312 228.992ZM153.88 230.97L109.73 205.517L109.039 205.917L153.189 231.37L153.88 230.97ZM147.015 234.933L102.872 209.444L102.145 209.844L146.295 235.333L147.015 234.933ZM133.292 242.86L89.1426 217.371L88.4153 217.771L132.565 243.26L133.292 242.86ZM140.157 238.897L96.0075 213.408L95.3167 213.808L139.459 239.297L140.157 238.897ZM143.582 236.919L99.44 211.466L98.7491 211.866L142.891 237.355L143.582 236.919ZM150.447 232.992L106.305 207.503L105.578 207.903L149.756 233.355L150.447 232.992ZM160.745 227.05L116.595 201.598L115.904 201.998L160.046 227.45L160.745 227.05ZM171.035 221.102L126.893 195.576L126.165 195.976L170.315 221.429L171.035 221.102ZM136.725 240.875L92.575 215.422L91.8842 215.822L136.034 241.275L136.725 240.875ZM167.602 223.051L123.46 197.562L122.733 197.962L166.882 223.451L167.602 223.051ZM164.17 225.029L120.028 199.54L119.3 199.94L163.501 225.429L164.17 225.029ZM400.436 88.6241L356.287 63.1714L355.559 63.5713L399.738 89.0022L400.436 88.6241ZM383.274 98.5288L339.132 73.0761L338.441 73.4761L382.583 98.9651L383.274 98.5288ZM386.706 96.5508L342.564 71.0981L341.837 71.498L386.03 96.9507L386.706 96.5508ZM410.704 82.6827L366.562 57.23L365.835 57.63L410.028 83.0826L410.704 82.6827ZM414.137 80.6974L370.031 55.2156L369.304 55.6156L413.453 81.0682L414.137 80.6974ZM407.294 84.6389L363.152 59.1862L362.424 59.5862L406.567 85.0752L407.294 84.6389ZM417.591 78.6975L373.442 53.2448L372.751 53.6448L416.9 79.1338L417.591 78.6975ZM421.024 76.7195L376.874 51.2668L376.147 51.6668L420.289 77.1558L421.024 76.7195ZM390.139 94.5436L346.033 69.0764L345.306 69.4764L389.455 94.929L390.139 94.5436ZM397.004 90.5803L352.854 65.1276L352.163 65.5276L396.313 90.9802L397.004 90.5803ZM393.571 92.5656L349.422 67.0984L348.694 67.4983L392.844 92.951L393.571 92.5656ZM403.861 86.6242L359.719 61.1352L359.028 61.5351L403.171 87.0242L403.861 86.6242ZM383.296 376.058L427.438 401.547L428.129 401.147L383.986 375.694L383.296 376.058ZM379.863 378.043L424.005 403.532L424.733 403.132L380.583 377.679L379.863 378.043ZM376.431 380.021L420.573 405.474L421.3 405.074L377.151 379.621L376.431 380.021ZM386.757 374.13L430.907 399.583L431.597 399.183L387.455 373.694L386.757 374.13ZM372.998 382.072L417.148 407.524L417.839 407.124L373.689 381.672L372.998 382.072ZM407.308 362.255L451.458 387.708L452.149 387.308L408.006 361.819L407.308 362.255ZM403.883 364.24L448.025 389.729L448.716 389.329L404.574 363.84L403.883 364.24ZM400.451 366.218L444.593 391.707L445.32 391.307L401.171 365.855L400.451 366.218ZM410.755 360.255L454.905 385.708L455.596 385.308L411.453 359.819L410.755 360.255ZM390.168 372.138L434.317 397.591L435.008 397.191L390.866 371.702L390.168 372.138ZM397.033 368.182L441.175 393.634L441.902 393.234L397.753 367.782L397.033 368.182ZM393.6 370.16L437.75 395.613L438.441 395.213L394.291 369.76L393.6 370.16ZM650.432 221.88L694.582 247.332L695.309 246.932L651.167 221.48L650.432 221.88ZM653.865 219.902L698.007 245.354L698.734 244.954L654.585 219.465L653.865 219.902ZM660.73 215.938L704.872 241.391L705.599 240.991L661.421 215.538L660.73 215.938ZM657.283 217.916L701.425 243.369L702.152 242.976L658.003 217.524L657.283 217.916ZM646.985 223.858L691.135 249.347L691.826 248.947L647.683 223.458L646.985 223.858ZM626.398 235.741L670.547 261.23L671.274 260.83L627.132 235.377L626.398 235.741ZM643.56 225.836L687.702 251.289L688.393 250.889L644.251 225.4L643.56 225.836ZM629.83 233.763L674.009 259.252L674.7 258.852L630.557 233.363L629.83 233.763ZM622.973 237.726L667.115 263.215L667.842 262.815L623.678 237.355L622.973 237.726ZM633.285 231.784L677.434 257.237L678.125 256.837L633.975 231.385L633.285 231.784ZM640.149 227.821L684.292 253.31L685.019 252.91L640.869 227.421L640.149 227.821ZM636.717 229.799L680.867 255.288L681.594 254.888L637.444 229.399L636.717 229.799ZM232.201 363.084L292.946 328.032H268.613L234.383 347.798C233.661 347.574 232.881 347.633 232.201 347.965C232.046 348.021 231.912 348.123 231.818 348.258C231.723 348.392 231.672 348.553 231.672 348.718C231.672 348.882 231.723 349.043 231.818 349.178C231.912 349.312 232.046 349.415 232.201 349.47C232.605 349.673 233.051 349.778 233.503 349.778C233.955 349.778 234.4 349.673 234.805 349.47C235.408 349.129 235.532 348.605 235.103 348.198L269.049 328.599H290.575L231.532 362.684L232.201 363.084ZM251.393 365.862C251.234 365.914 251.096 366.015 250.999 366.15C250.901 366.285 250.848 366.448 250.848 366.615C250.848 366.781 250.901 366.944 250.999 367.079C251.096 367.214 251.234 367.315 251.393 367.367C251.797 367.57 252.242 367.675 252.694 367.675C253.146 367.675 253.592 367.57 253.996 367.367C254.592 367.018 254.687 366.495 254.287 366.095L284.946 348.401L284.256 348.001L253.618 365.695C253.254 365.575 252.87 365.528 252.488 365.556C252.107 365.585 251.734 365.689 251.393 365.862ZM193.52 278.036L274.765 231.137L274.074 230.737L192.83 277.636L193.52 278.036ZM191.339 259.062V244.264H190.328V259.295L196.989 263.142L238.506 239.144L118.668 169.985L117.977 170.385L237.124 239.173L196.989 262.342L191.339 259.062ZM188.481 268.08L192.59 265.717L185.921 261.862V246.082L171.74 254.27L178.925 258.415L179.652 258.015L173.158 254.27L184.976 247.442V262.08L191.244 265.717L188.517 267.295L169.319 256.263L168.591 256.663L188.481 268.08ZM241.742 367.091C242.339 366.749 242.433 366.226 242.033 365.818L283.834 341.689L283.143 341.289L241.313 365.418C240.592 365.192 239.81 365.252 239.132 365.586C238.973 365.638 238.835 365.739 238.738 365.874C238.64 366.009 238.588 366.172 238.588 366.338C238.588 366.505 238.64 366.668 238.738 366.803C238.835 366.938 238.973 367.039 239.132 367.091C239.537 367.294 239.984 367.4 240.437 367.4C240.89 367.4 241.337 367.294 241.742 367.091ZM271.02 385.504L271.747 385.904L310.966 363.259V354.655L323.329 361.79L276.663 388.697L277.354 389.097L324.711 361.753L309.999 353.252V362.989L271.02 385.504ZM175.718 229.552L148.716 245.144L165.137 254.597L192.131 239.013L175.718 229.552ZM190.75 239.006L165.137 253.819L150.105 245.144L175.718 230.352L190.75 239.006ZM332.078 389.14L331.387 388.74L313.206 399.249L313.933 399.649L332.078 389.14ZM290.488 389.933L331.998 365.935L369.304 387.519H350.396L331.125 376.378L293.171 398.289L293.862 398.689L331.125 377.178L350.033 388.086H371.704L331.998 365.164L289.819 389.533L290.488 389.933ZM356.287 384.69L332.608 371.018L295.164 392.638L295.855 393.038L332.608 371.818L355.596 385.09L356.287 384.69ZM337.975 396.616L314.101 410.397L314.828 410.797L338.702 396.98L337.975 396.616ZM335.066 417.269L375.34 393.998H361.094L327.954 413.124L328.645 413.524L361.501 394.558H372.991L334.397 416.84L335.066 417.269ZM223.664 239.457L198.844 253.783V236.628L175.747 223.291L136.848 245.747L187.877 275.207L251.829 238.286L118.246 161.157L117.555 161.557L250.44 238.286L187.877 274.443L138.237 245.747L175.747 224.083L197.862 236.853V255.15L225.045 239.457L103.498 169.28L0 229.028L0.727219 229.428L103.527 170.073L223.664 239.457ZM381.667 393.838L333.576 421.603L334.266 422.003L381.667 394.638L419.947 416.738L470.569 387.511L381.318 335.988L380.627 336.388L469.173 387.511L419.933 415.938L381.667 393.838ZM348.084 397.976L336.375 391.213L314.893 403.619L306.218 398.609L332.397 383.504L345.306 390.958H375.485V390.391H345.669L332.361 382.704L304.807 398.609L314.871 404.426L336.354 392.02L346.68 397.983L319.598 413.553L320.289 413.96L348.084 397.976ZM225.78 359.375L226.507 359.775L274.256 332.206L273.565 331.806L225.78 359.375ZM464.01 108.979L444.207 97.5398L443.48 97.9397L462.599 108.979L459.872 110.557L453.61 106.921H428.209L440.026 100.1L446.52 103.852L447.211 103.452L440.026 99.2996L425.845 107.488H453.225L459.894 111.342L464.01 108.979ZM424.282 86.0424L397.28 101.634L413.701 111.088L440.702 95.5472L424.282 86.0424ZM439.313 95.4963L413.701 110.31L398.669 101.634L424.282 86.8205L439.313 95.4963ZM402.611 3.38666L304.232 60.1825L318.573 68.4583L416.951 11.6624L402.611 3.38666ZM415.562 11.6624L318.573 67.6583L305.614 60.1825L402.611 4.1866L415.562 11.6624ZM448.803 110.092H422.762V110.652H448.396L454.076 113.939L413.941 137.108L294.793 68.2983L294.102 68.6982L413.941 137.886L455.465 113.888L448.803 110.092ZM425.3 79.192L386.401 101.649L409.49 114.986H439.226L414.399 129.312L294.262 59.9134L397.062 0.586861L396.371 0.18689L292.88 59.9134L414.428 130.09L441.619 114.455H409.926L387.812 101.685L425.3 79.992L474.969 108.637L412.428 144.758L279.514 68.051L278.823 68.451L412.399 145.573L476.351 108.637L425.3 79.192ZM401.556 9.26986L314.421 59.5789L319.62 62.5751L406.756 12.2733L401.556 9.26986ZM405.374 12.2733L319.62 61.7751L315.81 59.5934L401.556 10.0698L405.374 12.2733ZM516.479 193.445C517.075 193.104 517.206 192.58 516.769 192.173L554.628 170.313V149.318L492.088 185.41L492.778 185.81L553.632 150.678V170.08L516.057 191.773C515.335 191.543 514.553 191.603 513.875 191.94C513.717 191.992 513.579 192.093 513.481 192.228C513.384 192.364 513.331 192.526 513.331 192.693C513.331 192.86 513.384 193.022 513.481 193.157C513.579 193.292 513.717 193.393 513.875 193.445C514.279 193.648 514.725 193.753 515.177 193.753C515.629 193.753 516.074 193.648 516.479 193.445ZM545.684 166.48C545.839 166.426 545.974 166.325 546.07 166.191C546.166 166.057 546.217 165.896 546.217 165.731C546.217 165.566 546.166 165.406 546.07 165.271C545.974 165.137 545.839 165.036 545.684 164.982C545.28 164.78 544.834 164.675 544.382 164.675C543.93 164.675 543.484 164.78 543.08 164.982C542.484 165.324 542.353 165.848 542.789 166.255L489.702 196.922C488.98 196.694 488.197 196.756 487.521 197.096C487.365 197.15 487.23 197.251 487.134 197.385C487.039 197.52 486.987 197.68 486.987 197.845C486.987 198.01 487.039 198.171 487.134 198.305C487.23 198.439 487.365 198.54 487.521 198.594C487.925 198.796 488.37 198.902 488.822 198.902C489.274 198.902 489.72 198.796 490.124 198.594C490.72 198.252 490.815 197.729 490.415 197.322L543.538 166.655C544.25 166.873 545.017 166.811 545.684 166.48ZM491.208 99.576L529.888 77.2431L529.161 76.8431L490.19 99.3433V113.822L397.964 167.113L314.217 118.76V101.103L268.22 74.5596L267.493 74.9596L313.235 101.365V119.022L397.964 167.942L491.208 114.128V99.576ZM400.029 158.815L481.252 111.91L480.568 111.546L399.338 158.408L400.029 158.815ZM387.572 152.714L388.299 152.314L327.685 117.364V105.314L398.676 146.3L399.367 145.9L326.703 103.947V117.567L387.572 152.714ZM458.941 41.5511L418.668 64.8222H432.928L466.068 45.689L465.377 45.289L432.521 64.2331H421.031L459.632 41.9511L458.941 41.5511ZM500.152 60.1025L462.897 81.6137L443.989 70.7054H422.325L462.017 93.6273L504.196 69.2582L503.505 68.8582L461.988 92.8565L424.66 71.3017H443.568L462.868 82.4427L500.822 60.5316L500.152 60.1025ZM412.363 64.9531L460.461 37.1878L459.734 36.7878L412.363 64.1531L374.089 42.0529L323.489 71.2871L412.733 122.803L413.424 122.403L324.849 71.2871L374.089 42.8529L412.363 64.9531ZM550.382 144.511C549.977 144.309 549.532 144.203 549.08 144.203C548.628 144.203 548.182 144.309 547.778 144.511C547.182 144.853 547.051 145.376 547.487 145.784L471.747 189.526L472.438 189.926L548.2 146.183C548.922 146.412 549.705 146.349 550.382 146.009C550.537 145.955 550.672 145.854 550.768 145.72C550.863 145.585 550.915 145.425 550.915 145.26C550.915 145.095 550.863 144.934 550.768 144.8C550.672 144.666 550.537 144.565 550.382 144.511ZM437.735 74.1087L461.413 87.7732L498.858 66.153L498.167 65.7312L461.413 86.9514L438.426 73.7306L437.735 74.1087ZM517.402 70.0945L516.711 69.6945L469.347 97.0016L484.066 105.503V95.7654L522.994 73.2943L522.267 72.8943L483.085 95.5472V104.15L470.722 97.0162L517.402 70.0945ZM461.944 69.6873L462.635 70.0872L480.816 59.5789L480.125 59.1789L461.944 69.6873ZM416.944 25.7341L397.6 36.9042L413.49 46.0963L432.841 34.9262L416.944 25.7341ZM431.452 34.9116L413.49 45.2818L398.982 36.8824L416.944 26.5122L431.452 34.9116ZM445.946 60.837L457.654 67.6001L479.114 55.172L487.841 60.1825L461.661 75.2868L448.745 67.8328H418.537V68.4001H448.353L461.661 76.0868L489.208 60.1825L479.15 54.3647L457.654 66.7784L447.335 60.8152L474.416 45.2454L473.689 44.8454L445.946 60.837ZM417.977 19.9164L387.535 37.4787L412.464 51.8704L442.898 34.2935L417.977 19.9164ZM441.517 34.2935L412.464 51.0704L388.939 37.4787L418.028 20.7018L441.517 34.2935ZM456.061 62.2042L479.936 48.387L479.245 47.987L455.356 61.8042L456.061 62.2042ZM419.198 12.9641L375.522 38.1841L411.235 58.8081L454.919 33.5881L419.198 12.9641ZM453.53 33.5881L411.235 58.0081L376.903 38.1841L419.198 13.7641L453.53 33.5881ZM541.357 140.788C540.76 141.137 540.63 141.66 541.066 142.06L465.297 185.802L465.988 186.202L541.749 142.46C542.471 142.69 543.253 142.63 543.931 142.293C544.089 142.241 544.227 142.14 544.325 142.005C544.423 141.869 544.475 141.707 544.475 141.54C544.475 141.373 544.423 141.211 544.325 141.076C544.227 140.941 544.089 140.84 543.931 140.788C543.531 140.59 543.09 140.487 542.644 140.487C542.197 140.487 541.757 140.59 541.357 140.788ZM304.392 198.594C304.796 198.796 305.242 198.902 305.694 198.902C306.146 198.902 306.592 198.796 306.996 198.594C307.151 198.54 307.286 198.439 307.382 198.305C307.478 198.171 307.529 198.01 307.529 197.845C307.529 197.68 307.478 197.52 307.382 197.385C307.286 197.251 307.151 197.15 306.996 197.096C306.319 196.756 305.536 196.694 304.814 196.922L251.727 166.255C252.12 165.848 252.025 165.324 251.429 164.982C251.025 164.78 250.579 164.675 250.127 164.675C249.675 164.675 249.23 164.78 248.825 164.982C248.667 165.034 248.529 165.135 248.432 165.27C248.334 165.406 248.281 165.568 248.281 165.735C248.281 165.902 248.334 166.064 248.432 166.199C248.529 166.334 248.667 166.435 248.825 166.487C249.504 166.821 250.285 166.881 251.007 166.655L304.094 197.358C303.701 197.729 303.789 198.252 304.392 198.594ZM322.711 189.526L246.949 145.784C247.342 145.376 247.255 144.853 246.651 144.511C246.247 144.309 245.801 144.203 245.349 144.203C244.897 144.203 244.452 144.309 244.048 144.511C243.892 144.565 243.757 144.666 243.661 144.8C243.566 144.934 243.514 145.095 243.514 145.26C243.514 145.425 243.566 145.585 243.661 145.72C243.757 145.854 243.892 145.955 244.048 146.009C244.724 146.349 245.507 146.412 246.229 146.183L322.035 189.926L322.711 189.526ZM535.633 320.105L473.093 284.006L472.402 284.406L533.27 319.531H499.673L462.097 297.845C462.497 297.438 462.403 296.922 461.806 296.572C461.402 296.37 460.956 296.265 460.504 296.265C460.053 296.265 459.607 296.37 459.203 296.572C459.044 296.625 458.907 296.726 458.809 296.861C458.711 296.996 458.659 297.158 458.659 297.325C458.659 297.492 458.711 297.654 458.809 297.79C458.907 297.925 459.044 298.026 459.203 298.078C459.88 298.415 460.663 298.475 461.384 298.245L499.243 320.105H535.633ZM206.319 122.302C206.712 121.894 206.625 121.378 206.021 121.029C205.617 120.827 205.171 120.721 204.72 120.721C204.268 120.721 203.822 120.827 203.418 121.029C203.263 121.085 203.129 121.187 203.034 121.322C202.94 121.456 202.889 121.617 202.889 121.782C202.889 121.946 202.94 122.107 203.034 122.242C203.129 122.376 203.263 122.479 203.418 122.534C204.096 122.872 204.878 122.932 205.599 122.702L235.35 139.908V146.758L208.923 131.486L208.232 131.886L236.332 148.111V139.653L206.319 122.302ZM471.755 268.909L547.473 312.673C547.08 313.08 547.174 313.597 547.771 313.946C548.175 314.148 548.621 314.253 549.073 314.253C549.524 314.253 549.97 314.148 550.374 313.946C550.533 313.893 550.67 313.793 550.768 313.657C550.866 313.522 550.918 313.36 550.918 313.193C550.918 313.026 550.866 312.864 550.768 312.729C550.67 312.594 550.533 312.493 550.374 312.44C549.696 312.103 548.914 312.043 548.193 312.273L472.438 268.531L471.755 268.909ZM191.862 135.21C192.262 134.802 192.168 134.279 191.571 133.937C191.167 133.735 190.722 133.63 190.27 133.63C189.818 133.63 189.372 133.735 188.968 133.937C188.812 133.991 188.677 134.092 188.582 134.226C188.486 134.361 188.435 134.521 188.435 134.686C188.435 134.851 188.486 135.012 188.582 135.146C188.677 135.28 188.812 135.381 188.968 135.435C189.645 135.775 190.427 135.838 191.15 135.61L225.111 155.179V167.607L166.068 133.552L165.341 133.952L226.085 168.996V154.976L191.862 135.21ZM212.072 119.007L242.084 136.337H256.716L228.616 120.105L227.925 120.505L254.352 135.777H242.484L212.763 118.615C213.155 118.207 213.061 117.684 212.464 117.342C212.06 117.14 211.615 117.034 211.163 117.034C210.711 117.034 210.265 117.14 209.861 117.342C209.705 117.396 209.57 117.497 209.475 117.631C209.379 117.765 209.328 117.926 209.328 118.091C209.328 118.256 209.379 118.416 209.475 118.551C209.57 118.685 209.705 118.786 209.861 118.84C210.545 119.183 211.337 119.244 212.064 119.007H212.072ZM160.17 146.7L190.808 164.386L191.535 163.986L160.861 146.3C161.261 145.893 161.166 145.376 160.57 145.027C160.166 144.825 159.72 144.72 159.268 144.72C158.816 144.72 158.371 144.825 157.967 145.027C157.808 145.079 157.67 145.18 157.573 145.316C157.475 145.451 157.423 145.613 157.423 145.78C157.423 145.947 157.475 146.109 157.573 146.244C157.67 146.379 157.808 146.48 157.967 146.533C158.651 146.876 159.442 146.936 160.17 146.7ZM171.806 130.243L171.078 130.643L218.828 158.212L219.518 157.812L171.806 130.243ZM239.859 149.318V170.313L277.674 192.173C277.274 192.58 277.369 193.104 277.965 193.445C278.369 193.648 278.815 193.753 279.267 193.753C279.719 193.753 280.164 193.648 280.569 193.445C280.727 193.393 280.865 193.292 280.962 193.157C281.06 193.022 281.113 192.86 281.113 192.693C281.113 192.526 281.06 192.364 280.962 192.228C280.865 192.093 280.727 191.992 280.569 191.94C279.891 191.603 279.108 191.543 278.387 191.773L240.811 170.08V150.685L301.672 185.817L302.363 185.417L239.859 149.318ZM452.934 281.323C452.53 281.12 452.084 281.015 451.632 281.015C451.18 281.015 450.735 281.12 450.331 281.323C450.172 281.375 450.035 281.476 449.937 281.611C449.839 281.746 449.787 281.909 449.787 282.075C449.787 282.242 449.839 282.405 449.937 282.54C450.035 282.675 450.172 282.776 450.331 282.828C451.008 283.166 451.791 283.226 452.512 282.995L505.599 313.669C505.199 314.069 505.294 314.593 505.89 314.942C506.294 315.144 506.74 315.25 507.192 315.25C507.644 315.25 508.09 315.144 508.494 314.942C508.652 314.89 508.79 314.789 508.887 314.654C508.985 314.519 509.038 314.356 509.038 314.189C509.038 314.023 508.985 313.86 508.887 313.725C508.79 313.59 508.652 313.489 508.494 313.437C507.816 313.099 507.033 313.039 506.312 313.269L453.189 282.595C453.574 282.188 453.48 281.672 452.883 281.323H452.934ZM341.568 177.134C341.972 177.336 342.418 177.441 342.869 177.441C343.321 177.441 343.767 177.336 344.171 177.134C344.329 177.082 344.467 176.981 344.565 176.846C344.663 176.71 344.715 176.548 344.715 176.381C344.715 176.215 344.663 176.052 344.565 175.917C344.467 175.782 344.329 175.681 344.171 175.629C343.494 175.289 342.712 175.226 341.99 175.454L288.866 144.787C289.266 144.38 289.172 143.856 288.575 143.515C288.171 143.312 287.725 143.207 287.273 143.207C286.822 143.207 286.376 143.312 285.972 143.515C285.813 143.567 285.676 143.668 285.578 143.803C285.48 143.938 285.428 144.101 285.428 144.267C285.428 144.434 285.48 144.596 285.578 144.732C285.676 144.867 285.813 144.968 285.972 145.02C286.65 145.357 287.432 145.417 288.153 145.187L341.24 175.854C340.877 176.269 340.942 176.785 341.568 177.134ZM245.851 87.4896L245.124 87.8896L284.205 110.433L284.896 110.033L245.851 87.4896ZM247.233 96.4344L283.143 117.167L283.834 116.767L247.924 96.0344C248.324 95.6272 248.229 95.1109 247.633 94.7618C247.229 94.5596 246.783 94.4543 246.331 94.4543C245.879 94.4543 245.433 94.5596 245.029 94.7618C244.871 94.8141 244.733 94.915 244.636 95.0501C244.538 95.1852 244.485 95.3477 244.485 95.5145C244.485 95.6812 244.538 95.8437 244.636 95.9788C244.733 96.114 244.871 96.2148 245.029 96.2671C245.713 96.6106 246.505 96.6707 247.233 96.4344ZM450.28 175.629C450.124 175.683 449.989 175.784 449.893 175.918C449.798 176.052 449.746 176.213 449.746 176.378C449.746 176.542 449.798 176.703 449.893 176.837C449.989 176.972 450.124 177.073 450.28 177.127C450.682 177.335 451.129 177.443 451.581 177.443C452.034 177.443 452.481 177.335 452.883 177.127C453.48 176.785 453.574 176.261 453.174 175.854L506.297 145.187C507.019 145.411 507.8 145.352 508.479 145.02C508.634 144.964 508.768 144.862 508.863 144.727C508.957 144.593 509.008 144.432 509.008 144.267C509.008 144.103 508.957 143.942 508.863 143.807C508.768 143.673 508.634 143.57 508.479 143.515C508.074 143.311 507.627 143.205 507.174 143.205C506.721 143.205 506.273 143.311 505.868 143.515C505.272 143.856 505.141 144.38 505.578 144.787L452.491 175.454C451.759 175.218 450.965 175.281 450.28 175.629ZM461.406 160.204C460.684 159.976 459.901 160.039 459.225 160.379C459.069 160.433 458.934 160.534 458.838 160.668C458.743 160.802 458.691 160.963 458.691 161.128C458.691 161.293 458.743 161.453 458.838 161.588C458.934 161.722 459.069 161.823 459.225 161.877C459.629 162.079 460.074 162.184 460.526 162.184C460.978 162.184 461.424 162.079 461.828 161.877C462.424 161.535 462.519 161.011 462.119 160.604L499.694 138.911H533.292L472.424 174.043L473.114 174.443L535.655 138.351H499.294L461.406 160.204ZM226.471 98.6742L225.743 99.0742L273.493 126.643L274.184 126.243L226.471 98.6742ZM234.383 110.659L268.613 130.454H292.946L232.238 95.4017L231.547 95.8017L290.582 129.894H269.02L235.074 110.259C235.474 109.852 235.379 109.328 234.783 108.986C234.38 108.778 233.934 108.67 233.481 108.67C233.028 108.67 232.582 108.778 232.179 108.986C232.024 109.04 231.889 109.141 231.793 109.275C231.697 109.41 231.646 109.57 231.646 109.735C231.646 109.9 231.697 110.061 231.793 110.195C231.889 110.329 232.024 110.43 232.179 110.484C232.862 110.83 233.654 110.893 234.383 110.659ZM490.066 259.855C489.662 259.653 489.216 259.548 488.764 259.548C488.312 259.548 487.867 259.653 487.462 259.855C487.304 259.907 487.166 260.008 487.069 260.143C486.971 260.279 486.918 260.441 486.918 260.608C486.918 260.775 486.971 260.937 487.069 261.072C487.166 261.207 487.304 261.308 487.462 261.361C488.14 261.698 488.923 261.758 489.644 261.528L542.731 292.202C542.331 292.602 542.426 293.125 543.022 293.475C543.426 293.677 543.872 293.782 544.324 293.782C544.776 293.782 545.221 293.677 545.626 293.475C545.784 293.422 545.922 293.321 546.019 293.186C546.117 293.051 546.17 292.889 546.17 292.722C546.17 292.555 546.117 292.393 546.019 292.258C545.922 292.122 545.784 292.021 545.626 291.969C544.948 291.632 544.165 291.572 543.444 291.802L490.32 261.128C490.75 260.728 490.662 260.204 490.066 259.855ZM182.088 189.359H202.909L263.493 224.33L264.184 223.931L203.316 188.791H179.725L252.389 230.745L253.116 230.345L182.088 189.359ZM554.628 309.132V288.137L516.769 266.284C517.169 265.877 517.075 265.353 516.479 265.004C516.074 264.802 515.629 264.696 515.177 264.696C514.725 264.696 514.279 264.802 513.875 265.004C513.717 265.056 513.579 265.157 513.481 265.292C513.384 265.427 513.331 265.59 513.331 265.757C513.331 265.923 513.384 266.086 513.481 266.221C513.579 266.356 513.717 266.457 513.875 266.509C514.552 266.849 515.335 266.912 516.057 266.684L553.632 288.377V307.772L492.778 272.64L492.088 273.04L554.628 309.132ZM355.749 167.498C355.356 167.906 355.443 168.429 356.047 168.771C356.451 168.973 356.896 169.078 357.348 169.078C357.8 169.078 358.246 168.973 358.65 168.771C358.806 168.717 358.941 168.616 359.036 168.482C359.132 168.347 359.183 168.187 359.183 168.022C359.183 167.857 359.132 167.696 359.036 167.562C358.941 167.428 358.806 167.327 358.65 167.273C357.973 166.933 357.191 166.87 356.468 167.098L300.087 134.548H265.202L214.77 105.459L214.043 105.859L264.759 135.144H299.622L355.749 167.498ZM258.817 138.351L321.358 174.443L322.086 174.043L261.232 138.911H294.829L332.405 160.604C332.012 161.011 332.099 161.535 332.703 161.877C333.105 162.085 333.552 162.193 334.005 162.193C334.458 162.193 334.904 162.085 335.306 161.877C335.462 161.823 335.597 161.722 335.693 161.588C335.788 161.453 335.84 161.293 335.84 161.128C335.84 160.963 335.788 160.802 335.693 160.668C335.597 160.534 335.462 160.433 335.306 160.379C334.63 160.039 333.847 159.976 333.125 160.204L295.266 138.388L258.817 138.351ZM691.149 277.076L778.285 226.767L773.085 223.771L685.95 274.072L691.149 277.076ZM687.331 274.072L773.085 224.57L776.896 226.752L691.149 276.276L687.331 274.072ZM628.863 179.701L668.082 157.055L667.355 156.655L628.419 179.134H611.606L626.318 187.628L673.674 160.27L672.983 159.87L626.318 186.777L613.955 179.65L628.863 179.701ZM523.896 255.332C524.296 254.925 524.202 254.401 523.605 254.059C523.201 253.857 522.755 253.752 522.304 253.752C521.852 253.752 521.406 253.857 521.002 254.059C520.846 254.113 520.711 254.214 520.615 254.349C520.52 254.483 520.469 254.643 520.469 254.808C520.469 254.973 520.52 255.134 520.615 255.268C520.711 255.402 520.846 255.503 521.002 255.557C521.679 255.897 522.461 255.96 523.183 255.732L584.561 291.206H610.013L648.374 313.349L649.102 312.949L610.457 290.646H585.004L523.896 255.332ZM504.887 228.847L597.142 175.578H622.216L661.188 153.078L660.461 152.678L621.773 175.01H596.734L503.498 228.825L588.197 277.767H618.813L664.497 304.143L665.224 303.743L619.249 277.199H588.633L504.887 228.847ZM601.192 181.155L600.465 180.755L519.271 227.654L519.998 228.054L601.192 181.155ZM671.864 214.811V202.303L652.956 191.395L690.211 169.884L689.52 169.484L651.567 191.395L670.867 202.536V213.444L633.539 191.889L675.049 167.891L674.322 167.491L632.143 191.86L671.864 214.811ZM581.652 220.338L670.889 271.862L721.511 242.627L683.237 220.534L730.637 193.162L729.91 192.762L681.812 220.534L720.093 242.627L670.853 271.062L582.306 219.938L581.652 220.338ZM687.302 195.714L711.177 181.897L710.45 181.497L686.575 195.314L687.302 195.714ZM568.038 359.775L568.729 359.375L520.98 331.806L520.253 332.206L568.038 359.775ZM715.969 184.704L688.997 200.34L678.678 194.384L700.189 181.977L690.124 176.159L662.577 192.064L675.892 199.75V216.993H676.874V199.54L663.966 192.086L690.146 176.981L698.829 181.992L677.339 194.398L689.048 201.154L716.682 185.119L715.969 184.704ZM666.671 205.481L643.691 192.216L680.445 170.996L679.717 170.596L642.266 192.216L666.009 205.881L666.671 205.481ZM715.926 189.926L715.235 189.526L682.096 208.659V216.891L722.369 193.62L721.642 193.22L683.077 215.538V208.906L715.926 189.926ZM289.87 106.361V121.051L351.262 156.495C350.862 156.895 350.956 157.419 351.552 157.768C351.957 157.97 352.402 158.076 352.854 158.076C353.306 158.076 353.752 157.97 354.156 157.768C354.314 157.716 354.452 157.615 354.55 157.48C354.647 157.345 354.7 157.182 354.7 157.015C354.7 156.849 354.647 156.686 354.55 156.551C354.452 156.416 354.314 156.315 354.156 156.263C353.478 155.925 352.695 155.865 351.974 156.095L290.888 120.818V106.128L252.222 83.8171L251.531 84.2171L289.87 106.361ZM582.379 339.449L552.367 322.12H537.742L565.842 338.344L566.569 337.944L540.142 322.672H552.003L581.732 339.835C581.332 340.242 581.427 340.758 582.023 341.107C582.427 341.31 582.873 341.415 583.325 341.415C583.776 341.415 584.222 341.31 584.626 341.107C584.785 341.055 584.922 340.954 585.02 340.819C585.118 340.684 585.17 340.521 585.17 340.355C585.17 340.188 585.118 340.026 585.02 339.89C584.922 339.755 584.785 339.654 584.626 339.602C584.281 339.429 583.904 339.326 583.518 339.299C583.132 339.273 582.745 339.324 582.379 339.449ZM252.694 142.46L328.456 186.202L329.147 185.802L253.385 142.089C253.785 141.689 253.691 141.166 253.094 140.817C252.69 140.614 252.244 140.509 251.792 140.509C251.341 140.509 250.895 140.614 250.491 140.817C250.332 140.869 250.195 140.97 250.097 141.105C249.999 141.24 249.947 141.403 249.947 141.569C249.947 141.736 249.999 141.898 250.097 142.034C250.195 142.169 250.332 142.27 250.491 142.322C251.179 142.656 251.97 142.705 252.694 142.46ZM541.757 315.989L466.024 272.262L465.333 272.661L541.095 316.404C540.695 316.811 540.789 317.335 541.386 317.676C541.79 317.879 542.236 317.984 542.688 317.984C543.139 317.984 543.585 317.879 543.989 317.676C544.148 317.624 544.285 317.523 544.383 317.388C544.481 317.253 544.533 317.09 544.533 316.924C544.533 316.757 544.481 316.594 544.383 316.459C544.285 316.324 544.148 316.223 543.989 316.171C543.648 315.995 543.274 315.888 542.891 315.857C542.508 315.825 542.122 315.871 541.757 315.989ZM560.068 347.798L525.838 328.032H501.541L562.257 363.084L562.948 362.684L503.905 328.599H525.431L559.377 348.198C558.984 348.605 559.072 349.129 559.675 349.47C560.08 349.673 560.525 349.778 560.977 349.778C561.429 349.778 561.875 349.673 562.279 349.47C562.437 349.418 562.575 349.317 562.673 349.182C562.77 349.047 562.823 348.884 562.823 348.718C562.823 348.551 562.77 348.389 562.673 348.253C562.575 348.118 562.437 348.017 562.279 347.965C561.593 347.62 560.798 347.56 560.068 347.798ZM438.702 290.951C439.102 290.544 439.008 290.028 438.412 289.678C438.007 289.476 437.562 289.371 437.11 289.371C436.658 289.371 436.212 289.476 435.808 289.678C435.65 289.731 435.512 289.832 435.414 289.967C435.317 290.102 435.264 290.264 435.264 290.431C435.264 290.598 435.317 290.76 435.414 290.895C435.512 291.031 435.65 291.131 435.808 291.184C436.486 291.521 437.268 291.581 437.99 291.351L494.386 323.894H529.249L579.681 352.983L580.408 352.583L529.656 323.334H494.793L438.702 290.951ZM588.131 336.126C587.739 336.533 587.833 337.057 588.43 337.399C588.832 337.606 589.278 337.715 589.731 337.715C590.184 337.715 590.631 337.606 591.033 337.399C591.189 337.345 591.324 337.244 591.419 337.109C591.515 336.975 591.566 336.814 591.566 336.65C591.566 336.485 591.515 336.324 591.419 336.19C591.324 336.056 591.189 335.954 591.033 335.901C590.356 335.561 589.574 335.498 588.851 335.726L559.108 318.564V311.72L585.535 326.992L586.263 326.592L558.156 310.368V318.804L588.131 336.126ZM633.808 318.804L592.015 294.667L591.288 295.067L633.088 319.204C632.695 319.611 632.783 320.127 633.386 320.476C633.79 320.678 634.236 320.784 634.688 320.784C635.14 320.784 635.586 320.678 635.99 320.476C636.145 320.42 636.279 320.318 636.373 320.184C636.468 320.049 636.519 319.888 636.519 319.724C636.519 319.559 636.468 319.398 636.373 319.264C636.279 319.129 636.145 319.027 635.99 318.971C635.312 318.633 634.529 318.573 633.808 318.804ZM501.934 251.499C501.776 251.552 501.638 251.653 501.54 251.788C501.443 251.923 501.39 252.085 501.39 252.252C501.39 252.419 501.443 252.581 501.54 252.716C501.638 252.852 501.776 252.952 501.934 253.005C502.612 253.342 503.395 253.402 504.116 253.172L560.206 285.555V305.714L610.93 334.999L611.657 334.599L561.224 305.51V285.351L504.828 252.772C505.228 252.365 505.134 251.848 504.538 251.499C504.133 251.297 503.688 251.192 503.236 251.192C502.784 251.192 502.338 251.297 501.934 251.499ZM602.596 323.247C602.203 323.654 602.29 324.17 602.894 324.52C603.298 324.722 603.744 324.827 604.196 324.827C604.648 324.827 605.093 324.722 605.497 324.52C605.656 324.467 605.794 324.366 605.891 324.231C605.989 324.096 606.042 323.934 606.042 323.767C606.042 323.6 605.989 323.438 605.891 323.302C605.794 323.167 605.656 323.066 605.497 323.014C604.82 322.677 604.037 322.617 603.316 322.847L569.376 303.248V290.82L628.412 324.905L629.139 324.505L568.431 289.453V303.481L602.596 323.247ZM634.281 311.75L603.65 294.078L602.923 294.478L633.561 312.164C633.161 312.571 633.255 313.095 633.852 313.437C634.257 313.64 634.704 313.746 635.157 313.746C635.61 313.746 636.057 313.64 636.462 313.437C636.618 313.383 636.753 313.282 636.849 313.147C636.944 313.013 636.996 312.852 636.996 312.688C636.996 312.523 636.944 312.362 636.849 312.228C636.753 312.094 636.618 311.993 636.462 311.939C635.788 311.594 635.005 311.526 634.281 311.75ZM622.645 328.214L623.373 327.814L575.616 300.245L574.925 300.645L622.645 328.214ZM672.998 191.497L673.725 191.896L691.906 181.388L691.178 180.988L672.998 191.497ZM565.842 120.105L537.742 136.33H552.374L582.379 119.007C583.101 119.235 583.884 119.173 584.561 118.833C584.717 118.779 584.852 118.678 584.947 118.543C585.043 118.409 585.094 118.249 585.094 118.084C585.094 117.919 585.043 117.758 584.947 117.624C584.852 117.49 584.717 117.389 584.561 117.335C584.157 117.132 583.711 117.027 583.259 117.027C582.807 117.027 582.362 117.132 581.957 117.335C581.361 117.676 581.23 118.2 581.667 118.607L551.938 135.77H540.106L566.533 120.498L565.842 120.105ZM611.926 269.425H591.106L530.528 234.446L529.801 234.846L590.669 269.985H614.26L541.655 228.032L540.928 228.432L611.926 269.425ZM575.565 158.212L623.322 130.643L622.594 130.243L574.845 157.812L575.565 158.212ZM560.206 172.894L504.109 205.277C503.386 205.049 502.604 205.112 501.927 205.452C501.771 205.506 501.636 205.607 501.541 205.741C501.445 205.875 501.394 206.036 501.394 206.201C501.394 206.366 501.445 206.526 501.541 206.661C501.636 206.795 501.771 206.896 501.927 206.95C502.331 207.152 502.777 207.257 503.229 207.257C503.68 207.257 504.126 207.152 504.53 206.95C505.127 206.608 505.221 206.085 504.821 205.677L561.203 173.127V152.998L611.635 123.909L610.908 123.509L560.192 152.787L560.206 172.894ZM494.386 134.548L438.004 167.098C437.282 166.87 436.499 166.933 435.823 167.273C435.667 167.327 435.532 167.428 435.436 167.562C435.341 167.696 435.289 167.857 435.289 168.022C435.289 168.187 435.341 168.347 435.436 168.482C435.532 168.616 435.667 168.717 435.823 168.771C436.227 168.973 436.672 169.078 437.124 169.078C437.576 169.078 438.022 168.973 438.426 168.771C439.022 168.429 439.153 167.906 438.717 167.498L494.807 135.115H529.656L580.379 105.83L579.652 105.43L529.212 134.519L494.386 134.548ZM543.058 92.5947C543.217 92.5424 543.355 92.4415 543.452 92.3064C543.55 92.1712 543.602 92.0087 543.602 91.842C543.602 91.6753 543.55 91.5128 543.452 91.3776C543.355 91.2425 543.217 91.1416 543.058 91.0893C542.654 90.8871 542.209 90.7818 541.757 90.7818C541.305 90.7818 540.859 90.8871 540.455 91.0893C539.851 91.4311 539.728 91.9547 540.157 92.362L509.519 110.048L510.246 110.448L540.884 92.7619C541.606 92.9884 542.387 92.9285 543.066 92.5947H543.058ZM503.599 106.128V120.818L442.513 156.095C441.792 155.865 441.009 155.925 440.331 156.263C440.173 156.315 440.035 156.416 439.938 156.551C439.84 156.686 439.787 156.849 439.787 157.015C439.787 157.182 439.84 157.345 439.938 157.48C440.035 157.615 440.173 157.716 440.331 157.768C440.736 157.97 441.181 158.076 441.633 158.076C442.085 158.076 442.531 157.97 442.935 157.768C443.538 157.419 443.626 156.895 443.233 156.495L504.567 121.051V106.361L542.92 84.2171L542.193 83.8171L503.599 106.128ZM569.347 155.179L603.294 135.581C604.016 135.809 604.799 135.746 605.476 135.406C605.631 135.352 605.766 135.251 605.862 135.117C605.958 134.983 606.009 134.822 606.009 134.657C606.009 134.492 605.958 134.332 605.862 134.197C605.766 134.063 605.631 133.962 605.476 133.908C605.072 133.706 604.626 133.6 604.174 133.6C603.722 133.6 603.276 133.706 602.872 133.908C602.269 134.25 602.145 134.773 602.574 135.181L568.344 154.939V168.996L629.052 133.944L628.325 133.544L569.289 167.636L569.347 155.179ZM511.308 117.138L553.109 93.0019C553.83 93.2322 554.612 93.1722 555.29 92.8347C555.449 92.7824 555.586 92.6815 555.684 92.5463C555.782 92.4112 555.834 92.2487 555.834 92.082C555.834 91.9152 555.782 91.7528 555.684 91.6176C555.586 91.4825 555.449 91.3816 555.29 91.3293C554.886 91.1271 554.44 91.0218 553.989 91.0218C553.537 91.0218 553.091 91.1271 552.687 91.3293C552.09 91.6784 551.96 92.202 552.396 92.6019L510.595 116.738L511.308 117.138ZM525.852 130.388L560.09 110.63C560.812 110.858 561.595 110.795 562.272 110.455C562.43 110.403 562.568 110.302 562.665 110.167C562.763 110.032 562.816 109.869 562.816 109.703C562.816 109.536 562.763 109.373 562.665 109.238C562.568 109.103 562.43 109.002 562.272 108.95C561.867 108.748 561.422 108.642 560.97 108.642C560.518 108.642 560.072 108.748 559.668 108.95C559.072 109.299 558.977 109.823 559.37 110.23L525.431 129.865H503.905L562.948 95.7726L562.257 95.3727L501.541 130.454L525.852 130.388ZM520.936 126.614L568.693 99.0451L567.966 98.6451L520.216 126.214L520.936 126.614ZM586.241 131.843L585.55 131.45L559.115 146.722V139.908L588.844 122.745C589.565 122.975 590.348 122.915 591.026 122.578C591.184 122.526 591.322 122.425 591.42 122.29C591.517 122.154 591.57 121.992 591.57 121.825C591.57 121.659 591.517 121.496 591.42 121.361C591.322 121.226 591.184 121.125 591.026 121.073C590.622 120.87 590.176 120.765 589.724 120.765C589.272 120.765 588.826 120.87 588.422 121.073C587.826 121.422 587.695 121.938 588.131 122.345L558.112 139.675V148.125L586.241 131.843ZM570.358 219.335L595.178 205.008V222.171L618.267 235.508L657.166 213.044L606.145 183.584L542.193 220.513L675.776 297.634L676.503 297.234L543.575 220.513L606.116 184.384L655.756 213.044L618.238 234.708L596.196 221.938V203.641L569.006 219.335L690.56 289.518L794 229.763L793.309 229.363L690.524 288.719L570.358 219.335ZM618.304 229.239L645.298 213.648L628.885 204.194L601.883 219.785L618.304 229.239ZM603.272 219.785L628.921 204.972L643.953 213.648L618.304 228.439L603.272 219.785ZM605.578 190.733L601.461 193.111L608.137 196.965V212.76L622.318 204.579L615.104 200.405L614.377 200.805L620.922 204.557L609.104 211.379V196.703L602.836 193.067L605.578 191.54L624.696 202.587L625.423 202.187L605.578 190.733ZM602.741 199.729V214.528H603.723V199.496L597.062 195.649L555.538 219.647L675.383 288.835L676.074 288.435L556.927 219.618L597.062 196.449L602.741 199.729ZM690.095 282.959L788.473 226.163L774.132 217.887L675.754 274.683L690.095 282.959ZM677.143 274.683L774.132 218.687L787.091 226.163L690.095 282.159L677.143 274.683ZM630.128 142.86C630.287 142.808 630.425 142.707 630.522 142.572C630.62 142.437 630.672 142.274 630.672 142.107C630.672 141.941 630.62 141.778 630.522 141.643C630.425 141.508 630.287 141.407 630.128 141.355C629.724 141.153 629.279 141.047 628.827 141.047C628.375 141.047 627.929 141.153 627.525 141.355C626.929 141.704 626.798 142.22 627.227 142.627L591.317 163.36L592.044 163.76L627.954 143.027C628.673 143.256 629.453 143.196 630.128 142.86ZM603.65 164.386L642.724 141.842L641.997 141.442L602.916 163.986L603.65 164.386ZM584.561 167.244L523.176 202.688C522.455 202.458 521.672 202.518 520.995 202.856C520.836 202.908 520.698 203.009 520.601 203.144C520.503 203.279 520.451 203.442 520.451 203.608C520.451 203.775 520.503 203.938 520.601 204.073C520.698 204.208 520.836 204.309 520.995 204.361C521.399 204.563 521.844 204.669 522.296 204.669C522.748 204.669 523.194 204.563 523.598 204.361C524.194 204.012 524.325 203.496 523.889 203.088L584.975 167.811H610.428L649.073 145.5L648.345 145.1L610.013 167.244H584.561ZM730.419 229.057L749.771 217.887L733.881 208.71L714.559 219.902L730.419 229.057ZM715.875 219.88L733.844 209.51L748.389 217.887L730.419 228.257L715.875 219.88ZM728.128 241.806L771.812 216.586L736.099 195.962L692.48 221.182L728.128 241.806ZM693.862 221.182L736.164 196.762L770.496 216.586L728.194 240.991L693.862 221.182ZM729.423 234.868L759.864 217.291L734.935 202.899L704.494 220.476L729.423 234.868ZM705.883 220.476L734.935 203.699L758.475 217.291L729.423 234.068L705.883 220.476ZM406.443 306.085L405.752 306.484L466.337 341.464V353.477L395.346 312.491L394.655 312.891L467.318 354.845V341.224L406.443 306.085ZM270.846 254.081C270.249 254.423 270.118 254.946 270.555 255.354L209.468 290.631H184.016L145.371 312.986L146.098 313.379L184.452 291.235H209.905L271.289 255.797C272.011 256.025 272.794 255.963 273.471 255.623C273.627 255.569 273.762 255.468 273.857 255.333C273.953 255.199 274.004 255.039 274.004 254.874C274.004 254.709 273.953 254.548 273.857 254.414C273.762 254.28 273.627 254.179 273.471 254.125C273.067 253.912 272.619 253.797 272.163 253.79C271.707 253.782 271.256 253.882 270.846 254.081ZM105.04 258.444L115.359 264.4L93.8768 276.807L103.934 282.624L131.503 266.72L118.159 259.033V241.82H117.177V259.273L130.085 266.727L103.905 281.832L95.2294 276.821L116.733 264.408L105.018 257.652L77.3834 273.651L78.1106 274.05L105.04 258.444ZM166.082 324.898L225.125 290.813V303.241L191.135 322.847C190.414 322.617 189.631 322.677 188.953 323.014C188.795 323.066 188.657 323.167 188.56 323.302C188.462 323.438 188.409 323.6 188.409 323.767C188.409 323.934 188.462 324.096 188.56 324.231C188.657 324.366 188.795 324.467 188.953 324.52C189.358 324.722 189.803 324.827 190.255 324.827C190.707 324.827 191.153 324.722 191.557 324.52C192.153 324.17 192.284 323.654 191.848 323.247L226.078 303.481V289.453L165.37 324.505L166.082 324.898ZM78.0888 268.858L78.816 269.258L111.955 250.125V241.9L71.682 265.171L72.4092 265.571L111.01 243.289V249.921L78.0888 268.858ZM171.798 328.214L219.548 300.623L218.857 300.223L171.107 327.814L171.798 328.214ZM164.323 315.597C164.168 315.652 164.034 315.755 163.939 315.889C163.844 316.024 163.793 316.185 163.793 316.349C163.793 316.514 163.844 316.674 163.939 316.809C164.034 316.944 164.168 317.046 164.323 317.102C164.727 317.304 165.172 317.409 165.624 317.409C166.076 317.409 166.522 317.304 166.926 317.102C167.53 316.753 167.617 316.229 167.224 315.822L203.134 295.096L202.407 294.696L166.497 315.422C165.777 315.196 164.997 315.259 164.323 315.597ZM121.017 267.287L120.289 266.887L102.109 277.388L102.836 277.788L121.017 267.287ZM122.151 244.016V256.525L141.059 267.433L103.803 288.944L104.494 289.344L142.411 267.433L123.133 256.263V245.354L160.461 266.909L118.944 290.907L119.671 291.307L161.85 266.938L122.151 244.016ZM73.9146 216.164L123.155 187.73L211.701 238.853L212.428 238.453L123.155 186.93L72.5256 216.164L110.806 238.264L63.399 265.629L64.1262 266.029L112.217 238.264L73.9146 216.164ZM182.408 279.657L167.704 271.163L120.34 298.507L121.067 298.907L167.74 271.963L180.103 279.09H165.152L125.933 301.736L126.66 302.136L165.588 279.657H182.408ZM106.778 263.084L82.8958 276.865L83.623 277.265L107.498 263.484L106.778 263.084ZM127.343 253.31L150.331 266.575L113.577 287.795L114.304 288.195L151.749 266.575L128.042 252.91L127.343 253.31ZM333.045 298.245C333.766 298.475 334.549 298.415 335.226 298.078C335.381 298.022 335.515 297.92 335.61 297.785C335.705 297.65 335.755 297.49 335.755 297.325C335.755 297.16 335.705 297 335.61 296.865C335.515 296.73 335.381 296.628 335.226 296.572C334.821 296.369 334.374 296.263 333.921 296.263C333.468 296.263 333.021 296.369 332.616 296.572C332.019 296.922 331.925 297.438 332.325 297.845L294.778 319.531H261.181L322.035 284.406L321.307 284.006L258.767 320.105H295.127L333.045 298.245ZM212.464 341.151C213.061 340.802 213.192 340.286 212.755 339.878L242.484 322.716H254.345L227.918 337.988L228.609 338.388L256.708 322.163H242.077L212.064 339.493C211.343 339.263 210.561 339.323 209.883 339.66C209.724 339.713 209.587 339.813 209.489 339.949C209.391 340.084 209.339 340.246 209.339 340.413C209.339 340.58 209.391 340.742 209.489 340.877C209.587 341.012 209.724 341.113 209.883 341.166C210.287 341.358 210.731 341.453 211.179 341.446C211.627 341.438 212.067 341.327 212.464 341.122V341.151ZM152.418 317.029L191.499 294.485L190.771 294.085L151.727 316.622L152.418 317.029ZM358.65 291.169C358.805 291.113 358.939 291.011 359.034 290.877C359.128 290.742 359.179 290.581 359.179 290.417C359.179 290.252 359.128 290.091 359.034 289.957C358.939 289.822 358.805 289.72 358.65 289.664C358.246 289.462 357.8 289.356 357.348 289.356C356.896 289.356 356.451 289.462 356.047 289.664C355.443 290.013 355.356 290.529 355.749 290.937L299.658 323.32H264.795L214.079 352.619L214.806 353.019L265.239 323.93H300.102L356.476 291.38C357.2 291.595 357.98 291.519 358.65 291.169ZM205.621 335.733C204.9 335.503 204.117 335.563 203.44 335.901C203.281 335.953 203.144 336.054 203.046 336.189C202.948 336.324 202.896 336.486 202.896 336.653C202.896 336.82 202.948 336.982 203.046 337.118C203.144 337.253 203.281 337.354 203.44 337.406C203.844 337.608 204.289 337.713 204.741 337.713C205.193 337.713 205.639 337.608 206.043 337.406C206.647 337.057 206.77 336.533 206.341 336.126L236.332 318.804V310.353L208.225 326.578L208.952 326.978L235.379 311.706V318.549L205.621 335.733ZM341.568 281.323C340.971 281.672 340.877 282.188 341.277 282.595L288.19 313.269C287.469 313.039 286.686 313.099 286.008 313.437C285.85 313.489 285.712 313.59 285.614 313.725C285.517 313.86 285.464 314.023 285.464 314.189C285.464 314.356 285.517 314.519 285.614 314.654C285.712 314.789 285.85 314.89 286.008 314.942C286.412 315.144 286.858 315.25 287.31 315.25C287.762 315.25 288.207 315.144 288.612 314.942C289.208 314.593 289.302 314.069 288.902 313.669L342.026 282.995C342.747 283.226 343.53 283.166 344.208 282.828C344.366 282.776 344.504 282.675 344.601 282.54C344.699 282.405 344.752 282.242 344.752 282.075C344.752 281.909 344.699 281.746 344.601 281.611C344.504 281.476 344.366 281.375 344.208 281.323C343.799 281.115 343.346 281.006 342.888 281.006C342.429 281.006 341.977 281.115 341.568 281.323ZM248.767 291.969C248.609 292.021 248.471 292.122 248.373 292.258C248.276 292.393 248.223 292.555 248.223 292.722C248.223 292.889 248.276 293.051 248.373 293.186C248.471 293.321 248.609 293.422 248.767 293.475C249.171 293.677 249.617 293.782 250.069 293.782C250.521 293.782 250.967 293.677 251.371 293.475C251.967 293.125 252.062 292.609 251.669 292.202L304.756 261.528C305.477 261.758 306.26 261.698 306.938 261.361C307.092 261.305 307.226 261.203 307.321 261.068C307.416 260.933 307.467 260.772 307.467 260.608C307.467 260.443 307.416 260.283 307.321 260.148C307.226 260.013 307.092 259.911 306.938 259.855C306.533 259.653 306.088 259.548 305.636 259.548C305.184 259.548 304.738 259.653 304.334 259.855C303.73 260.204 303.607 260.728 304.036 261.128L250.913 291.802C250.202 291.581 249.435 291.641 248.767 291.969ZM289.913 251.499C289.317 251.848 289.186 252.365 289.622 252.772L233.241 285.351V305.481L182.808 334.57L183.536 334.97L234.223 305.714V285.555L290.313 253.172C291.035 253.402 291.817 253.342 292.495 253.005C292.653 252.952 292.791 252.852 292.889 252.716C292.986 252.581 293.039 252.419 293.039 252.252C293.039 252.085 292.986 251.923 292.889 251.788C292.791 251.653 292.653 251.552 292.495 251.499C292.094 251.301 291.652 251.197 291.204 251.197C290.756 251.197 290.315 251.301 289.913 251.499ZM277.972 264.989C277.376 265.331 277.281 265.855 277.681 266.262L239.859 288.137V309.139L302.4 273.04L301.709 272.64L240.855 307.772V288.377L278.401 266.684C279.124 266.912 279.906 266.849 280.583 266.509C280.739 266.455 280.874 266.354 280.969 266.22C281.065 266.086 281.116 265.925 281.116 265.76C281.116 265.595 281.065 265.435 280.969 265.3C280.874 265.166 280.739 265.065 280.583 265.011C280.181 264.799 279.735 264.686 279.28 264.682C278.826 264.678 278.377 264.784 277.972 264.989ZM328.456 272.262L252.694 315.989C251.972 315.761 251.189 315.824 250.513 316.164C250.357 316.218 250.222 316.319 250.126 316.453C250.031 316.587 249.979 316.748 249.979 316.913C249.979 317.078 250.031 317.238 250.126 317.373C250.222 317.507 250.357 317.608 250.513 317.662C250.917 317.864 251.362 317.969 251.814 317.969C252.266 317.969 252.712 317.864 253.116 317.662C253.712 317.32 253.843 316.796 253.407 316.389L329.169 272.647L328.456 272.262ZM322.035 268.531L246.251 312.259C245.53 312.028 244.747 312.088 244.069 312.426C243.911 312.478 243.773 312.579 243.676 312.714C243.578 312.849 243.525 313.012 243.525 313.179C243.525 313.345 243.578 313.508 243.676 313.643C243.773 313.778 243.911 313.879 244.069 313.931C244.474 314.133 244.919 314.239 245.371 314.239C245.823 314.239 246.269 314.133 246.673 313.931C247.276 313.582 247.364 313.066 246.971 312.659L322.733 268.916L322.035 268.531ZM271.267 202.688L209.883 167.244H184.43L146.047 145.1L145.32 145.5L184.008 167.811H209.461L270.547 203.088C270.155 203.496 270.242 204.012 270.846 204.361C271.25 204.563 271.695 204.669 272.147 204.669C272.599 204.669 273.045 204.563 273.449 204.361C273.604 204.305 273.738 204.203 273.833 204.068C273.927 203.934 273.978 203.773 273.978 203.608C273.978 203.444 273.927 203.283 273.833 203.148C273.738 203.014 273.604 202.911 273.449 202.856C272.765 202.512 271.973 202.452 271.246 202.688H271.267ZM129.518 154.648L128.827 155.048L174.802 181.592H205.389L289.135 229.945L196.88 283.213H171.806L132.827 305.714L133.554 306.114L172.227 283.781H197.302L290.546 229.966L205.789 181.025H175.209L129.518 154.648ZM302.814 359.186L264.126 381.519L264.853 381.919L303.825 359.419V344.94L396.051 291.678L479.841 340.031V357.688L525.78 384.253L526.507 383.853L480.787 357.455V339.798L396.051 290.878L302.814 344.693V359.186ZM290.851 337.639L351.938 302.361C352.66 302.588 353.441 302.528 354.12 302.194C354.278 302.142 354.416 302.041 354.513 301.906C354.611 301.77 354.664 301.608 354.664 301.441C354.664 301.274 354.611 301.112 354.513 300.977C354.416 300.842 354.278 300.741 354.12 300.689C353.715 300.486 353.27 300.381 352.818 300.381C352.366 300.381 351.92 300.486 351.516 300.689C350.92 301.03 350.825 301.554 351.225 301.961L289.833 337.406V352.096L251.494 374.24L252.185 374.64L290.83 352.328L290.851 337.639ZM368.664 379.599L407.563 357.143L384.466 343.805H354.759L379.579 329.479L499.745 398.856L396.938 458.204L397.665 458.604L501.156 398.856L379.601 328.679L352.418 344.373H384.103L406.218 357.143L368.693 378.799L319.053 350.139L381.594 314.018L514.486 390.74L515.213 390.34L381.63 313.255L317.671 350.139L368.664 379.599ZM394.029 299.983L312.77 346.882L313.461 347.281L394.684 300.383L394.029 299.983ZM440.331 300.71C440.173 300.763 440.035 300.864 439.938 300.999C439.84 301.134 439.787 301.296 439.787 301.463C439.787 301.63 439.84 301.792 439.938 301.927C440.035 302.063 440.173 302.163 440.331 302.216C441.01 302.55 441.791 302.609 442.513 302.383L503.599 337.66V352.35L542.244 374.661L542.971 374.261L504.567 352.096V337.406L443.182 301.961C443.575 301.554 443.488 301.03 442.884 300.689C442.482 300.489 442.039 300.385 441.589 300.385C441.14 300.385 440.697 300.489 440.295 300.689L440.331 300.71ZM548.643 370.989L549.371 370.589L510.297 348.045L509.57 348.445L548.643 370.989ZM158.41 137.959C158.254 138.013 158.119 138.114 158.024 138.248C157.928 138.382 157.877 138.543 157.877 138.708C157.877 138.872 157.928 139.033 158.024 139.167C158.119 139.302 158.254 139.403 158.41 139.457C159.087 139.797 159.87 139.859 160.592 139.631L202.392 163.76L203.12 163.36L161.319 139.231C161.719 138.824 161.625 138.3 161.028 137.959C160.622 137.754 160.174 137.647 159.719 137.647C159.265 137.647 158.816 137.754 158.41 137.959ZM292.488 206.95C292.643 206.896 292.778 206.795 292.874 206.661C292.97 206.526 293.021 206.366 293.021 206.201C293.021 206.036 292.97 205.875 292.874 205.741C292.778 205.607 292.643 205.506 292.488 205.452C291.811 205.112 291.028 205.049 290.306 205.277L234.216 172.894V152.772L183.499 123.487L182.772 123.887L233.205 152.976V173.098L289.586 205.648C289.186 206.055 289.281 206.579 289.877 206.921C290.282 207.139 290.733 207.256 291.193 207.261C291.653 207.266 292.107 207.16 292.517 206.95H292.488ZM369.704 372.756L396.706 357.164L380.292 347.711L353.305 363.273L369.704 372.756ZM354.672 363.302L380.292 348.51L395.324 357.186L369.704 371.978L354.672 363.302ZM547.189 362.051L511.279 341.318L510.588 341.718L546.527 362.437C546.127 362.837 546.222 363.36 546.818 363.709C547.222 363.912 547.668 364.017 548.12 364.017C548.572 364.017 549.017 363.912 549.422 363.709C549.58 363.657 549.718 363.556 549.815 363.421C549.913 363.286 549.966 363.123 549.966 362.957C549.966 362.79 549.913 362.628 549.815 362.492C549.718 362.357 549.58 362.256 549.422 362.204C548.74 361.856 547.948 361.79 547.218 362.022L547.189 362.051ZM64.5989 223.923L34.1575 241.5L59.0866 255.892L89.5207 238.315L64.5989 223.923ZM88.139 238.315L59.0866 255.092L35.5101 241.5L64.5989 224.723L88.139 238.315ZM380.532 412.731L361.181 423.901L377.071 433.079L396.422 421.909L380.532 412.731ZM395.04 421.909L377.071 432.25L362.563 423.872L380.532 413.502L395.04 421.909ZM65.8206 216.993L22.1366 242.213L57.8576 262.808L101.542 237.588L65.8206 216.993ZM100.153 237.617L57.8576 262.037L23.5256 242.213L65.8206 217.793L100.153 237.617ZM102.872 181.723L15.737 232.032L20.9367 235.035L108.072 184.726L102.872 181.723ZM106.69 184.726L20.9657 234.228L17.1478 232.046L102.902 182.537L106.69 184.726ZM103.92 175.839L5.54869 232.628L19.8895 240.904L118.26 184.108L103.92 175.839ZM116.879 184.115L19.8895 240.111L6.9304 232.628L103.92 176.632L116.879 184.115ZM63.5663 229.741L44.2368 240.904L60.1265 250.081L79.4778 238.911L63.5663 229.741ZM78.1106 238.919L60.1483 249.289L45.6039 240.911L63.5663 230.541L78.1106 238.919ZM330.034 349.812L349.843 361.251L350.571 360.851L331.445 349.812L334.172 348.234L340.441 351.87H365.85L354.032 358.692L347.487 354.925L346.796 355.325L353.981 359.477L368.162 351.288H340.797L334.121 347.434L330.034 349.812ZM345.24 348.721H371.275V348.161H345.626L339.939 344.882L380.074 321.712L499.222 390.5L499.949 390.1L380.103 320.913L338.586 344.911L345.24 348.721ZM475.478 390.333L377.1 447.129L391.44 455.405L489.819 398.609L475.478 390.333ZM488.43 398.609L391.44 454.605L378.489 447.129L475.478 391.133L488.43 398.609ZM382.816 399.983L339.132 425.203L374.845 445.827L418.5 420.614L382.816 399.983ZM417.119 420.614L374.816 445.034L340.484 425.21L382.786 400.79L417.119 420.614ZM381.557 406.928L351.123 424.498L376.052 438.889L406.487 421.342L381.557 406.928ZM405.098 421.342L376.009 438.118L352.505 424.498L381.594 407.721L405.098 421.342ZM474.394 396.245L387.259 446.525L392.459 449.521L479.594 399.212L474.394 396.245ZM478.212 399.241L392.459 448.721L388.648 446.54L474.394 397.031L478.212 399.241Z" fill="url(#paint0_radial_368_2770)"/>
<defs>
<radialGradient id="paint0_radial_368_2770" cx="0" cy="0" r="1" gradientUnits="userSpaceOnUse" gradientTransform="translate(397.011 229.399) scale(318.646 318.646)">
<stop offset="0.14" stop-color="white"/>
<stop offset="0.15" stop-color="#FCFCFC" stop-opacity="0.99"/>
<stop offset="0.35" stop-color="#A4A4A4" stop-opacity="0.64"/>
<stop offset="0.53" stop-color="#5E5E5E" stop-opacity="0.37"/>
<stop offset="0.68" stop-color="#2B2B2B" stop-opacity="0.17"/>
<stop offset="0.79" stop-color="#0C0C0C" stop-opacity="0.05"/>
<stop offset="0.86" stop-opacity="0"/>
</radialGradient>
</defs>
</svg>
